Joti-GWF-OTF.ufo
<glyph name="exclam" format="1">
  <advance width="383"/>
  <unicode hex="0021"/>
  <outline>
	<contour>
	  <point x="100" y="27"/>
	  <point x="142" y="-15"/>
	  <point x="193" y="-15" type="curve" smooth="yes"/>
	  <point x="244" y="-15"/>
	  <point x="286" y="27"/>
	  <point x="286" y="78" type="curve" smooth="yes"/>
	  <point x="286" y="129"/>
	  <point x="244" y="171"/>
	  <point x="193" y="171" type="curve" smooth="yes"/>
	  <point x="142" y="171"/>
	  <point x="100" y="129"/>
	  <point x="100" y="78" type="curve" smooth="yes"/>
	</contour>
	<contour>
	  <point x="296" y="683" type="line"/>
	  <point x="115" y="651" type="line"/>
	  <point x="146" y="226" type="line"/>
	  <point x="235" y="235" type="line"/>
	  <point x="323" y="643" type="line"/>
	</contour>
  </outline>
</glyph>
<glyph name="quotedbl" format="1">
  <advance width="452"/>
  <unicode hex="0022"/>
  <outline>
	<contour>
	  <point x="78" y="459" type="line"/>
	  <point x="154" y="462" type="line"/>
	  <point x="182" y="738" type="line"/>
	  <point x="40" y="726" type="line"/>
	</contour>
	<contour>
	  <point x="308" y="459" type="line"/>
	  <point x="384" y="462" type="line"/>
	  <point x="412" y="738" type="line"/>
	  <point x="270" y="726" type="line"/>
	</contour>
  </outline>
</glyph>
<glyph name="numbersign" format="1">
  <advance width="794"/>
  <unicode hex="0023"/>
  <outline>
	<contour>
	  <point x="391" y="-68" type="line"/>
	  <point x="461" y="-91" type="line"/>
	  <point x="534" y="129" type="line"/>
	  <point x="699" y="129" type="line"/>
	  <point x="714" y="239" type="line"/>
	  <point x="568" y="233" type="line"/>
	  <point x="628" y="412" type="line"/>
	  <point x="729" y="416" type="line"/>
	  <point x="744" y="499" type="line"/>
	  <point x="657" y="499" type="line"/>
	  <point x="727" y="708" type="line"/>
	  <point x="615" y="739" type="line"/>
	  <point x="548" y="499" type="line"/>
	  <point x="357" y="499" type="line"/>
	  <point x="427" y="708" type="line"/>
	  <point x="315" y="739" type="line"/>
	  <point x="248" y="499" type="line"/>
	  <point x="94" y="499" type="line"/>
	  <point x="80" y="389" type="line"/>
	  <point x="219" y="395" type="line"/>
	  <point x="170" y="216" type="line"/>
	  <point x="64" y="212" type="line"/>
	  <point x="50" y="129" type="line"/>
	  <point x="145" y="129" type="line"/>
	  <point x="91" y="-68" type="line"/>
	  <point x="161" y="-91" type="line"/>
	  <point x="234" y="129" type="line"/>
	  <point x="445" y="129" type="line"/>
	</contour>
	<contour>
	  <point x="324" y="399" type="line"/>
	  <point x="523" y="407" type="line"/>
	  <point x="473" y="229" type="line"/>
	  <point x="264" y="220" type="line"/>
	</contour>
  </outline>
</glyph>
<glyph name="dollar" format="1">
  <advance width="574"/>
  <unicode hex="0024"/>
  <outline>
	<contour>
	  <point x="144" y="284"/>
	  <point x="220" y="222"/>
	  <point x="220" y="159" type="curve" smooth="yes"/>
	  <point x="220" y="99"/>
	  <point x="180" y="48"/>
	  <point x="81" y="20" type="curve"/>
	  <point x="102" y="-45" type="line"/>
	  <point x="157" y="-33"/>
	  <point x="202" y="-20"/>
	  <point x="239" y="-4" type="curve"/>
	  <point x="230" y="-112" type="line"/>
	  <point x="330" y="-112" type="line"/>
	  <point x="317" y="38" type="line"/>
	  <point x="378" y="82"/>
	  <point x="396" y="132"/>
	  <point x="396" y="178" type="curve" smooth="yes"/>
	  <point x="396" y="238"/>
	  <point x="349" y="318"/>
	  <point x="349" y="381" type="curve" smooth="yes"/>
	  <point x="349" y="444"/>
	  <point x="420" y="503"/>
	  <point x="522" y="538" type="curve"/>
	  <point x="401" y="700" type="line"/>
	  <point x="374" y="682"/>
	  <point x="347" y="664"/>
	  <point x="321" y="645" type="curve"/>
	  <point x="330" y="749" type="line"/>
	  <point x="230" y="749" type="line"/>
	  <point x="244" y="581" type="line"/>
	  <point x="186" y="526"/>
	  <point x="144" y="462"/>
	  <point x="144" y="384" type="curve" smooth="yes"/>
	</contour>
  </outline>
</glyph>
<glyph name="ampersand" format="1">
  <advance width="615"/>
  <unicode hex="0026"/>
  <outline>
	<contour>
	  <point x="385" y="-218" type="line"/>
	  <point x="451" y="-209" type="line"/>
	  <point x="490" y="10"/>
	  <point x="491" y="10"/>
	  <point x="536" y="275" type="curve"/>
	  <point x="642" y="287" type="line"/>
	  <point x="645" y="354" type="line"/>
	  <point x="242" y="338" type="line"/>
	  <point x="294" y="431"/>
	  <point x="373" y="515"/>
	  <point x="471" y="578" type="curve"/>
	  <point x="278" y="700" type="line"/>
	  <point x="128" y="591"/>
	  <point x="70" y="398"/>
	  <point x="70" y="217" type="curve" smooth="yes"/>
	  <point x="70" y="159"/>
	  <point x="76" y="103"/>
	  <point x="87" y="51" type="curve"/>
	  <point x="132" y="14"/>
	  <point x="224" y="-14"/>
	  <point x="330" y="-14" type="curve" smooth="yes"/>
	  <point x="341" y="-14"/>
	  <point x="353" y="-13"/>
	  <point x="364" y="-13" type="curve"/>
	</contour>
	<contour>
	  <point x="243" y="69"/>
	  <point x="206" y="73"/>
	  <point x="171" y="80" type="curve"/>
	  <point x="171" y="132"/>
	  <point x="180" y="184"/>
	  <point x="197" y="236" type="curve"/>
	  <point x="336" y="252" type="line"/>
	  <point x="355" y="75" type="line"/>
	  <point x="331" y="71"/>
	  <point x="306" y="69"/>
	  <point x="279" y="69" type="curve" smooth="yes"/>
	</contour>
  </outline>
</glyph>
<glyph name="quotesingle" format="1">
  <advance width="222"/>
  <unicode hex="0027"/>
  <outline>
	<contour>
	  <point x="78" y="459" type="line"/>
	  <point x="154" y="462" type="line"/>
	  <point x="182" y="738" type="line"/>
	  <point x="40" y="726" type="line"/>
	</contour>
  </outline>
</glyph>
<glyph name="parenleft" format="1">
  <advance width="400"/>
  <unicode hex="0028"/>
  <outline>
	<contour>
	  <point x="290" y="-80" type="line"/>
	  <point x="215" y="52"/>
	  <point x="185" y="170"/>
	  <point x="185" y="275" type="curve" smooth="yes"/>
	  <point x="185" y="459"/>
	  <point x="277" y="602"/>
	  <point x="370" y="707" type="curve"/>
	  <point x="203" y="738" type="line"/>
	  <point x="117" y="607"/>
	  <point x="80" y="474"/>
	  <point x="80" y="346" type="curve" smooth="yes"/>
	  <point x="80" y="186"/>
	  <point x="138" y="33"/>
	  <point x="230" y="-98" type="curve"/>
	</contour>
  </outline>
</glyph>
<glyph name="parenright" format="1">
  <advance width="400"/>
  <unicode hex="0029"/>
  <outline>
	<contour>
	  <point x="169" y="-98" type="line"/>
	  <point x="262" y="33"/>
	  <point x="320" y="186"/>
	  <point x="320" y="346" type="curve" smooth="yes"/>
	  <point x="320" y="474"/>
	  <point x="283" y="607"/>
	  <point x="197" y="738" type="curve"/>
	  <point x="30" y="707" type="line"/>
	  <point x="123" y="602"/>
	  <point x="215" y="459"/>
	  <point x="215" y="275" type="curve" smooth="yes"/>
	  <point x="215" y="170"/>
	  <point x="185" y="52"/>
	  <point x="110" y="-80" type="curve"/>
	</contour>
  </outline>
</glyph>
<glyph name="asterisk" format="1">
  <advance width="571"/>
  <unicode hex="002A"/>
  <outline>
	<contour>
	  <point x="341" y="697" type="line"/>
	  <point x="221" y="687" type="line"/>
	  <point x="247" y="541" type="line"/>
	  <point x="126" y="637" type="line"/>
	  <point x="74" y="528" type="line"/>
	  <point x="213" y="478" type="line"/>
	  <point x="70" y="420" type="line"/>
	  <point x="138" y="321" type="line"/>
	  <point x="250" y="416" type="line"/>
	  <point x="230" y="263" type="line"/>
	  <point x="350" y="273" type="line"/>
	  <point x="323" y="417" type="line"/>
	  <point x="445" y="323" type="line"/>
	  <point x="497" y="432" type="line"/>
	  <point x="357" y="481" type="line"/>
	  <point x="501" y="540" type="line"/>
	  <point x="433" y="639" type="line"/>
	  <point x="320" y="543" type="line"/>
	</contour>
  </outline>
</glyph>
<glyph name="plus" format="1">
  <advance width="612"/>
  <unicode hex="002B"/>
  <outline>
	<contour>
	  <point x="278" y="108" type="line"/>
	  <point x="361" y="98" type="line"/>
	  <point x="361" y="276" type="line"/>
	  <point x="512" y="286" type="line"/>
	  <point x="522" y="369" type="line"/>
	  <point x="361" y="369" type="line"/>
	  <point x="361" y="520" type="line"/>
	  <point x="251" y="530" type="line"/>
	  <point x="261" y="369" type="line"/>
	  <point x="100" y="369" type="line"/>
	  <point x="90" y="259" type="line"/>
	  <point x="267" y="270" type="line"/>
	</contour>
  </outline>
</glyph>
<glyph name="comma" format="1">
  <advance width="286"/>
  <unicode hex="002C"/>
  <outline>
	<contour>
	  <point x="144" y="-6" type="line"/>
	  <point x="135" y="-54"/>
	  <point x="115" y="-88"/>
	  <point x="73" y="-123" type="curve"/>
	  <point x="148" y="-183" type="line"/>
	  <point x="212" y="-125"/>
	  <point x="236" y="-32"/>
	  <point x="236" y="55" type="curve" smooth="yes"/>
	  <point x="236" y="85"/>
	  <point x="234" y="113"/>
	  <point x="229" y="139" type="curve"/>
	  <point x="211" y="157"/>
	  <point x="177" y="171"/>
	  <point x="138" y="171" type="curve" smooth="yes"/>
	  <point x="69" y="171"/>
	  <point x="50" y="139"/>
	  <point x="50" y="78" type="curve" smooth="yes"/>
	  <point x="50" y="21"/>
	  <point x="71" y="-15"/>
	  <point x="105" y="-15" type="curve" smooth="yes"/>
	  <point x="121" y="-15"/>
	  <point x="131" y="-11"/>
	  <point x="140" y="-4" type="curve"/>
	</contour>
  </outline>
</glyph>
<glyph name="hyphen" format="1">
  <advance width="445"/>
  <unicode hex="002D"/>
  <outline>
	<contour>
	  <point x="375" y="274" type="line"/>
	  <point x="375" y="367" type="line"/>
	  <point x="75" y="367" type="line"/>
	  <point x="70" y="227" type="line"/>
	</contour>
  </outline>
</glyph>
<glyph name="period" format="1">
  <advance width="286"/>
  <unicode hex="002E"/>
  <outline>
	<contour>
	  <point x="50" y="30"/>
	  <point x="75" y="-10"/>
	  <point x="143" y="-10" type="curve" smooth="yes"/>
	  <point x="211" y="-10"/>
	  <point x="236" y="30"/>
	  <point x="236" y="78" type="curve" smooth="yes"/>
	  <point x="236" y="126"/>
	  <point x="211" y="166"/>
	  <point x="143" y="166" type="curve" smooth="yes"/>
	  <point x="75" y="166"/>
	  <point x="50" y="126"/>
	  <point x="50" y="78" type="curve" smooth="yes"/>
	</contour>
  </outline>
</glyph>
<glyph name="slash" format="1">
  <advance width="496"/>
  <unicode hex="002F"/>
  <outline>
	<contour>
	  <point x="80" y="-68" type="line"/>
	  <point x="150" y="-91" type="line"/>
	  <point x="416" y="708" type="line"/>
	  <point x="304" y="739" type="line"/>
	</contour>
  </outline>
</glyph>
<glyph name="zero" format="1">
  <advance width="644"/>
  <unicode hex="0030"/>
  <outline>
	<contour>
	  <point x="508" y="51"/>
	  <point x="564" y="160"/>
	  <point x="564" y="316" type="curve" smooth="yes"/>
	  <point x="564" y="399"/>
	  <point x="550" y="496"/>
	  <point x="506" y="603" type="curve"/>
	  <point x="457" y="648"/>
	  <point x="390" y="665"/>
	  <point x="317" y="665" type="curve" smooth="yes"/>
	  <point x="278" y="665"/>
	  <point x="238" y="658"/>
	  <point x="184" y="641" type="curve"/>
	  <point x="137" y="591"/>
	  <point x="81" y="482"/>
	  <point x="81" y="326" type="curve" smooth="yes"/>
	  <point x="81" y="243"/>
	  <point x="95" y="146"/>
	  <point x="139" y="39" type="curve"/>
	  <point x="188" y="-6"/>
	  <point x="255" y="-23"/>
	  <point x="328" y="-23" type="curve" smooth="yes"/>
	  <point x="367" y="-23"/>
	  <point x="407" y="-16"/>
	  <point x="461" y="1" type="curve"/>
	</contour>
	<contour>
	  <point x="211" y="101"/>
	  <point x="209" y="129"/>
	  <point x="209" y="158" type="curve" smooth="yes"/>
	  <point x="209" y="298"/>
	  <point x="262" y="464"/>
	  <point x="359" y="573" type="curve"/>
	  <point x="387" y="573"/>
	  <point x="408" y="571"/>
	  <point x="429" y="566" type="curve"/>
	  <point x="434" y="541"/>
	  <point x="436" y="513"/>
	  <point x="436" y="484" type="curve" smooth="yes"/>
	  <point x="436" y="344"/>
	  <point x="383" y="177"/>
	  <point x="286" y="69" type="curve"/>
	  <point x="258" y="69"/>
	  <point x="237" y="71"/>
	  <point x="216" y="76" type="curve"/>
	</contour>
  </outline>
</glyph>
<glyph name="one" format="1">
  <advance width="473"/>
  <unicode hex="0031"/>
  <outline>
	<contour>
	  <point x="347" y="667" type="line"/>
	  <point x="0" y="492" type="line"/>
	  <point x="52" y="384" type="line"/>
	  <point x="167" y="466" type="line"/>
	  <point x="204" y="-14" type="line"/>
	  <point x="314" y="-4" type="line"/>
	  <point x="383" y="650" type="line"/>
	</contour>
  </outline>
</glyph>
<glyph name="two" format="1">
  <advance width="579"/>
  <unicode hex="0032"/>
  <outline>
	<contour>
	  <point x="90" y="497" type="line"/>
	  <point x="242" y="600" type="line"/>
	  <point x="278" y="578"/>
	  <point x="295" y="535"/>
	  <point x="295" y="483" type="curve" smooth="yes"/>
	  <point x="295" y="344"/>
	  <point x="182" y="137"/>
	  <point x="33" y="67" type="curve"/>
	  <point x="40" y="0" type="line"/>
	  <point x="499" y="0" type="line"/>
	  <point x="499" y="113" type="line"/>
	  <point x="185" y="82" type="line"/>
	  <point x="185" y="91" type="line"/>
	  <point x="352" y="193"/>
	  <point x="492" y="376"/>
	  <point x="492" y="537" type="curve" smooth="yes"/>
	  <point x="492" y="564"/>
	  <point x="488" y="591"/>
	  <point x="480" y="617" type="curve"/>
	  <point x="424" y="652"/>
	  <point x="350" y="665"/>
	  <point x="275" y="665" type="curve" smooth="yes"/>
	  <point x="159" y="665"/>
	  <point x="100" y="640"/>
	  <point x="38" y="605" type="curve"/>
	</contour>
  </outline>
</glyph>
<glyph name="three" format="1">
  <advance width="574"/>
  <unicode hex="0033"/>
  <outline>
	<contour>
	  <point x="227" y="254" type="line"/>
	  <point x="269" y="280"/>
	  <point x="313" y="296"/>
	  <point x="345" y="304" type="curve"/>
	  <point x="357" y="283"/>
	  <point x="360" y="217"/>
	  <point x="360" y="169" type="curve" smooth="yes"/>
	  <point x="360" y="111"/>
	  <point x="352" y="78"/>
	  <point x="345" y="52" type="curve"/>
	  <point x="267" y="55"/>
	  <point x="179" y="74"/>
	  <point x="95" y="128" type="curve"/>
	  <point x="47" y="38" type="line"/>
	  <point x="128" y="-6"/>
	  <point x="218" y="-24"/>
	  <point x="293" y="-24" type="curve" smooth="yes"/>
	  <point x="464" y="-24"/>
	  <point x="534" y="40"/>
	  <point x="534" y="164" type="curve" smooth="yes"/>
	  <point x="534" y="266"/>
	  <point x="501" y="320"/>
	  <point x="453" y="367" type="curve"/>
	  <point x="432" y="373"/>
	  <point x="411" y="375"/>
	  <point x="390" y="375" type="curve"/>
	  <point x="454" y="435"/>
	  <point x="489" y="501"/>
	  <point x="489" y="565" type="curve" smooth="yes"/>
	  <point x="489" y="582"/>
	  <point x="486" y="599"/>
	  <point x="480" y="617" type="curve"/>
	  <point x="424" y="652"/>
	  <point x="350" y="665"/>
	  <point x="275" y="665" type="curve" smooth="yes"/>
	  <point x="159" y="665"/>
	  <point x="110" y="640"/>
	  <point x="48" y="605" type="curve"/>
	  <point x="100" y="497" type="line"/>
	  <point x="242" y="600" type="line"/>
	  <point x="282" y="576"/>
	  <point x="303" y="536"/>
	  <point x="303" y="489" type="curve" smooth="yes"/>
	  <point x="303" y="438"/>
	  <point x="279" y="361"/>
	  <point x="215" y="300" type="curve" smooth="yes"/>
	  <point x="201" y="287" type="line"/>
	</contour>
  </outline>
</glyph>
<glyph name="four" format="1">
  <advance width="576"/>
  <unicode hex="0034"/>
  <outline>
	<contour>
	  <point x="280" y="680" type="line"/>
	  <point x="179" y="629"/>
	  <point x="74" y="475"/>
	  <point x="74" y="291" type="curve" smooth="yes"/>
	  <point x="74" y="250"/>
	  <point x="78" y="207"/>
	  <point x="91" y="152" type="curve"/>
	  <point x="135" y="117"/>
	  <point x="228" y="91"/>
	  <point x="336" y="91" type="curve" smooth="yes"/>
	  <point x="350" y="91"/>
	  <point x="364" y="91"/>
	  <point x="379" y="92" type="curve"/>
	  <point x="387" y="-15" type="line"/>
	  <point x="498" y="-4" type="line"/>
	  <point x="536" y="352" type="line"/>
	  <point x="362" y="340" type="line"/>
	  <point x="372" y="188" type="line"/>
	  <point x="338" y="183"/>
	  <point x="305" y="181"/>
	  <point x="272" y="181" type="curve" smooth="yes"/>
	  <point x="238" y="181"/>
	  <point x="206" y="183"/>
	  <point x="175" y="187" type="curve"/>
	  <point x="175" y="330"/>
	  <point x="310" y="481"/>
	  <point x="463" y="558" type="curve"/>
	</contour>
  </outline>
</glyph>
<glyph name="five" format="1">
  <advance width="574"/>
  <unicode hex="0035"/>
  <outline>
	<contour>
	  <point x="70" y="640" type="line"/>
	  <point x="55" y="618" type="line"/>
	  <point x="117" y="264" type="line"/>
	  <point x="197" y="254" type="line"/>
	  <point x="239" y="280"/>
	  <point x="283" y="296"/>
	  <point x="345" y="304" type="curve"/>
	  <point x="357" y="283"/>
	  <point x="360" y="217"/>
	  <point x="360" y="169" type="curve" smooth="yes"/>
	  <point x="360" y="111"/>
	  <point x="352" y="78"/>
	  <point x="345" y="52" type="curve"/>
	  <point x="267" y="55"/>
	  <point x="179" y="74"/>
	  <point x="95" y="128" type="curve"/>
	  <point x="47" y="38" type="line"/>
	  <point x="128" y="-6"/>
	  <point x="218" y="-24"/>
	  <point x="293" y="-24" type="curve" smooth="yes"/>
	  <point x="464" y="-24"/>
	  <point x="534" y="40"/>
	  <point x="534" y="164" type="curve" smooth="yes"/>
	  <point x="534" y="266"/>
	  <point x="501" y="320"/>
	  <point x="453" y="367" type="curve"/>
	  <point x="434" y="373"/>
	  <point x="415" y="375"/>
	  <point x="395" y="375" type="curve" smooth="yes"/>
	  <point x="331" y="375"/>
	  <point x="263" y="351"/>
	  <point x="211" y="318" type="curve"/>
	  <point x="265" y="556" type="line"/>
	  <point x="472" y="538" type="line"/>
	  <point x="490" y="656" type="line"/>
	</contour>
  </outline>
</glyph>
<glyph name="six" format="1">
  <advance width="574"/>
  <unicode hex="0036"/>
  <outline>
	<contour>
	  <point x="229" y="247"/>
	  <point x="294" y="290"/>
	  <point x="335" y="304" type="curve"/>
	  <point x="347" y="283"/>
	  <point x="350" y="217"/>
	  <point x="350" y="169" type="curve" smooth="yes"/>
	  <point x="350" y="111"/>
	  <point x="342" y="78"/>
	  <point x="335" y="52" type="curve"/>
	  <point x="318" y="48"/>
	  <point x="300" y="45"/>
	  <point x="282" y="45" type="curve" smooth="yes"/>
	  <point x="256" y="45"/>
	  <point x="230" y="51"/>
	  <point x="199" y="66" type="curve"/>
	</contour>
	<contour>
	  <point x="189" y="235" type="line"/>
	  <point x="233" y="367"/>
	  <point x="330" y="473"/>
	  <point x="463" y="558" type="curve"/>
	  <point x="280" y="680" type="line"/>
	  <point x="180" y="614"/>
	  <point x="62" y="444"/>
	  <point x="62" y="207" type="curve" smooth="yes"/>
	  <point x="62" y="155"/>
	  <point x="67" y="100"/>
	  <point x="79" y="41" type="curve"/>
	  <point x="124" y="4"/>
	  <point x="209" y="-24"/>
	  <point x="303" y="-24" type="curve" smooth="yes"/>
	  <point x="474" y="-24"/>
	  <point x="524" y="40"/>
	  <point x="524" y="164" type="curve" smooth="yes"/>
	  <point x="524" y="266"/>
	  <point x="491" y="320"/>
	  <point x="443" y="367" type="curve"/>
	  <point x="423" y="374"/>
	  <point x="402" y="377"/>
	  <point x="383" y="377" type="curve" smooth="yes"/>
	  <point x="308" y="377"/>
	  <point x="242" y="326"/>
	  <point x="201" y="228" type="curve"/>
	</contour>
  </outline>
</glyph>
<glyph name="seven" format="1">
  <advance width="510"/>
  <unicode hex="0037"/>
  <outline>
	<contour>
	  <point x="15" y="656" type="line"/>
	  <point x="33" y="538" type="line"/>
	  <point x="219" y="554" type="line"/>
	  <point x="181" y="-14" type="line"/>
	  <point x="291" y="-4" type="line"/>
	  <point x="460" y="618" type="line"/>
	  <point x="445" y="640" type="line"/>
	</contour>
  </outline>
</glyph>
<glyph name="eight" format="1">
  <advance width="617"/>
  <unicode hex="0038"/>
  <outline>
	<contour>
	  <point x="55" y="124"/>
	  <point x="69" y="70"/>
	  <point x="115" y="11" type="curve"/>
	  <point x="167" y="-9"/>
	  <point x="238" y="-24"/>
	  <point x="314" y="-24" type="curve" smooth="yes"/>
	  <point x="427" y="-24"/>
	  <point x="562" y="5"/>
	  <point x="562" y="165" type="curve" smooth="yes"/>
	  <point x="562" y="211"/>
	  <point x="548" y="265"/>
	  <point x="502" y="324" type="curve"/>
	  <point x="464" y="337" type="line"/>
	  <point x="504" y="366"/>
	  <point x="545" y="416"/>
	  <point x="545" y="486" type="curve" smooth="yes"/>
	  <point x="545" y="528"/>
	  <point x="531" y="578"/>
	  <point x="489" y="633" type="curve"/>
	  <point x="440" y="651"/>
	  <point x="375" y="665"/>
	  <point x="303" y="665" type="curve" smooth="yes"/>
	  <point x="198" y="665"/>
	  <point x="72" y="638"/>
	  <point x="72" y="490" type="curve" smooth="yes"/>
	  <point x="72" y="448"/>
	  <point x="86" y="398"/>
	  <point x="128" y="343" type="curve"/>
	  <point x="134" y="340"/>
	  <point x="141" y="338"/>
	  <point x="148" y="336" type="curve"/>
	  <point x="102" y="305"/>
	  <point x="55" y="248"/>
	  <point x="55" y="170" type="curve" smooth="yes"/>
	</contour>
	<contour>
	  <point x="374" y="274"/>
	  <point x="388" y="222"/>
	  <point x="388" y="181" type="curve" smooth="yes"/>
	  <point x="388" y="128"/>
	  <point x="368" y="77"/>
	  <point x="322" y="40" type="curve"/>
	  <point x="303" y="40"/>
	  <point x="263" y="47"/>
	  <point x="237" y="66" type="curve"/>
	  <point x="226" y="90"/>
	  <point x="221" y="120"/>
	  <point x="221" y="148" type="curve" smooth="yes"/>
	  <point x="221" y="208"/>
	  <point x="242" y="270"/>
	  <point x="291" y="309" type="curve"/>
	  <point x="311" y="309"/>
	  <point x="329" y="308"/>
	  <point x="348" y="305" type="curve"/>
	</contour>
	<contour>
	  <point x="239" y="392"/>
	  <point x="224" y="439"/>
	  <point x="224" y="475" type="curve" smooth="yes"/>
	  <point x="224" y="522"/>
	  <point x="246" y="567"/>
	  <point x="294" y="600" type="curve"/>
	  <point x="314" y="600"/>
	  <point x="356" y="594"/>
	  <point x="384" y="577" type="curve"/>
	  <point x="394" y="556"/>
	  <point x="400" y="529"/>
	  <point x="400" y="504" type="curve" smooth="yes"/>
	  <point x="400" y="451"/>
	  <point x="377" y="396"/>
	  <point x="327" y="361" type="curve"/>
	  <point x="306" y="361"/>
	  <point x="287" y="362"/>
	  <point x="267" y="365" type="curve"/>
	</contour>
  </outline>
</glyph>
<glyph name="nine" format="1">
  <advance width="574"/>
  <unicode hex="0039"/>
  <outline>
	<contour>
	  <point x="389" y="556"/>
	  <point x="390" y="539"/>
	  <point x="390" y="523" type="curve" smooth="yes"/>
	  <point x="390" y="363"/>
	  <point x="285" y="343"/>
	  <point x="251" y="337" type="curve"/>
	  <point x="239" y="358"/>
	  <point x="236" y="424"/>
	  <point x="236" y="472" type="curve" smooth="yes"/>
	  <point x="236" y="530"/>
	  <point x="244" y="563"/>
	  <point x="251" y="589" type="curve"/>
	  <point x="268" y="593"/>
	  <point x="286" y="596"/>
	  <point x="304" y="596" type="curve" smooth="yes"/>
	  <point x="330" y="596"/>
	  <point x="356" y="590"/>
	  <point x="387" y="575" type="curve"/>
	</contour>
	<contour>
	  <point x="360" y="319" type="line"/>
	  <point x="307" y="221"/>
	  <point x="221" y="116"/>
	  <point x="123" y="53" type="curve"/>
	  <point x="293" y="-62" type="line"/>
	  <point x="393" y="4"/>
	  <point x="524" y="197"/>
	  <point x="524" y="434" type="curve" smooth="yes"/>
	  <point x="524" y="486"/>
	  <point x="519" y="541"/>
	  <point x="507" y="600" type="curve"/>
	  <point x="462" y="637"/>
	  <point x="377" y="665"/>
	  <point x="283" y="665" type="curve" smooth="yes"/>
	  <point x="112" y="665"/>
	  <point x="62" y="601"/>
	  <point x="62" y="477" type="curve" smooth="yes"/>
	  <point x="62" y="375"/>
	  <point x="95" y="321"/>
	  <point x="143" y="274" type="curve"/>
	  <point x="165" y="268"/>
	  <point x="185" y="264"/>
	  <point x="205" y="264" type="curve" smooth="yes"/>
	  <point x="256" y="264"/>
	  <point x="312" y="287"/>
	  <point x="353" y="323" type="curve"/>
	</contour>
  </outline>
</glyph>
<glyph name="less" format="1">
  <advance width="612"/>
  <unicode hex="003C"/>
  <outline>
	<contour>
	  <point x="512" y="495" type="line"/>
	  <point x="488" y="556" type="line"/>
	  <point x="105" y="367" type="line"/>
	  <point x="105" y="280" type="line"/>
	  <point x="468" y="78" type="line"/>
	  <point x="526" y="173" type="line"/>
	  <point x="229" y="311" type="line"/>
	</contour>
  </outline>
</glyph>
<glyph name="equal" format="1">
  <advance width="612"/>
  <unicode hex="003D"/>
  <outline>
	<contour>
	  <point x="512" y="386" type="line"/>
	  <point x="522" y="469" type="line"/>
	  <point x="100" y="469" type="line"/>
	  <point x="90" y="359" type="line"/>
	</contour>
	<contour>
	  <point x="100" y="242" type="line"/>
	  <point x="90" y="159" type="line"/>
	  <point x="512" y="159" type="line"/>
	  <point x="522" y="269" type="line"/>
	</contour>
  </outline>
</glyph>
<glyph name="greater" format="1">
  <advance width="612"/>
  <unicode hex="003E"/>
  <outline>
	<contour>
	  <point x="100" y="139" type="line"/>
	  <point x="124" y="78" type="line"/>
	  <point x="507" y="267" type="line"/>
	  <point x="507" y="354" type="line"/>
	  <point x="144" y="556" type="line"/>
	  <point x="86" y="461" type="line"/>
	  <point x="383" y="323" type="line"/>
	</contour>
  </outline>
</glyph>
<glyph name="question" format="1">
  <advance width="407"/>
  <unicode hex="003F"/>
  <outline>
	<contour>
	  <point x="100" y="27"/>
	  <point x="142" y="-15"/>
	  <point x="193" y="-15" type="curve" smooth="yes"/>
	  <point x="244" y="-15"/>
	  <point x="286" y="27"/>
	  <point x="286" y="78" type="curve" smooth="yes"/>
	  <point x="286" y="129"/>
	  <point x="244" y="171"/>
	  <point x="193" y="171" type="curve" smooth="yes"/>
	  <point x="142" y="171"/>
	  <point x="100" y="129"/>
	  <point x="100" y="78" type="curve" smooth="yes"/>
	</contour>
	<contour>
	  <point x="258" y="453"/>
	  <point x="239" y="373"/>
	  <point x="131" y="300" type="curve"/>
	  <point x="188" y="230" type="line"/>
	  <point x="269" y="270"/>
	  <point x="387" y="378"/>
	  <point x="387" y="524" type="curve" smooth="yes"/>
	  <point x="387" y="557"/>
	  <point x="384" y="591"/>
	  <point x="373" y="635" type="curve"/>
	  <point x="339" y="662"/>
	  <point x="265" y="683"/>
	  <point x="179" y="683" type="curve" smooth="yes"/>
	  <point x="136" y="683"/>
	  <point x="88" y="678"/>
	  <point x="42" y="664" type="curve"/>
	  <point x="77" y="491" type="line"/>
	  <point x="125" y="513"/>
	  <point x="182" y="525"/>
	  <point x="258" y="525" type="curve"/>
	</contour>
  </outline>
</glyph>
<glyph name="at" format="1">
  <advance width="999"/>
  <unicode hex="0040"/>
  <outline>
	<contour>
	  <point x="652" y="476" type="line"/>
	  <point x="581" y="426" type="line"/>
	  <point x="548" y="447"/>
	  <point x="498" y="465"/>
	  <point x="441" y="465" type="curve" smooth="yes"/>
	  <point x="318" y="465"/>
	  <point x="278" y="411"/>
	  <point x="278" y="306" type="curve" smooth="yes"/>
	  <point x="278" y="187"/>
	  <point x="321" y="74"/>
	  <point x="381" y="74" type="curve" smooth="yes"/>
	  <point x="453" y="74"/>
	  <point x="515" y="115"/>
	  <point x="551" y="206" type="curve"/>
	  <point x="558" y="206" type="line"/>
	  <point x="569" y="116"/>
	  <point x="623" y="61"/>
	  <point x="712" y="61" type="curve" smooth="yes"/>
	  <point x="770" y="61"/>
	  <point x="930" y="83"/>
	  <point x="930" y="304" type="curve" smooth="yes"/>
	  <point x="930" y="513"/>
	  <point x="815" y="695"/>
	  <point x="520" y="695" type="curve" smooth="yes"/>
	  <point x="196" y="695"/>
	  <point x="69" y="478"/>
	  <point x="69" y="243" type="curve" smooth="yes"/>
	  <point x="69" y="34"/>
	  <point x="183" y="-156"/>
	  <point x="477" y="-156" type="curve" smooth="yes"/>
	  <point x="596" y="-156"/>
	  <point x="686" y="-109"/>
	  <point x="751" y="-62" type="curve"/>
	  <point x="710" y="0" type="line"/>
	  <point x="655" y="-44"/>
	  <point x="583" y="-89"/>
	  <point x="480" y="-89" type="curve" smooth="yes"/>
	  <point x="239" y="-89"/>
	  <point x="160" y="65"/>
	  <point x="160" y="242" type="curve" smooth="yes"/>
	  <point x="160" y="445"/>
	  <point x="247" y="629"/>
	  <point x="517" y="629" type="curve" smooth="yes"/>
	  <point x="758" y="629"/>
	  <point x="839" y="483"/>
	  <point x="839" y="307" type="curve" smooth="yes"/>
	  <point x="839" y="175"/>
	  <point x="789" y="119"/>
	  <point x="728" y="119" type="curve" smooth="yes"/>
	  <point x="678" y="119"/>
	  <point x="667" y="157"/>
	  <point x="665" y="200" type="curve" smooth="yes"/>
	  <point x="665" y="208"/>
	  <point x="665" y="216"/>
	  <point x="666" y="224" type="curve" smooth="yes"/>
	  <point x="682" y="453" type="line"/>
	</contour>
	<contour>
	  <point x="546" y="194"/>
	  <point x="465" y="145"/>
	  <point x="429" y="137" type="curve"/>
	  <point x="417" y="167"/>
	  <point x="406" y="265"/>
	  <point x="406" y="319" type="curve" smooth="yes"/>
	  <point x="406" y="358"/>
	  <point x="409" y="389"/>
	  <point x="411" y="410" type="curve"/>
	  <point x="425" y="416"/>
	  <point x="443" y="422"/>
	  <point x="463" y="422" type="curve" smooth="yes"/>
	  <point x="490" y="422"/>
	  <point x="523" y="415"/>
	  <point x="546" y="399" type="curve"/>
	</contour>
  </outline>
</glyph>
<glyph name="A" format="1">
  <advance width="639"/>
  <unicode hex="0041"/>
  <outline>
	<contour>
	  <point x="30" y="0" type="line"/>
	  <point x="130" y="-15" type="line"/>
	  <point x="164" y="129" type="line"/>
	  <point x="430" y="151" type="line"/>
	  <point x="499" y="-15" type="line"/>
	  <point x="589" y="0" type="line"/>
	  <point x="459" y="650" type="line"/>
	  <point x="217" y="665" type="line"/>
	</contour>
	<contour>
	  <point x="261" y="539" type="line"/>
	  <point x="269" y="539" type="line"/>
	  <point x="408" y="204" type="line"/>
	  <point x="182" y="206" type="line"/>
	</contour>
  </outline>
</glyph>
<glyph name="B" format="1">
  <advance width="702"/>
  <unicode hex="0042"/>
  <outline>
	<contour>
	  <point x="155" y="-14" type="line"/>
	  <point x="212" y="-22"/>
	  <point x="282" y="-26"/>
	  <point x="329" y="-26" type="curve" smooth="yes"/>
	  <point x="549" y="-26"/>
	  <point x="630" y="57"/>
	  <point x="630" y="153" type="curve" smooth="yes"/>
	  <point x="630" y="214"/>
	  <point x="587" y="296"/>
	  <point x="508" y="357" type="curve"/>
	  <point x="563" y="398"/>
	  <point x="598" y="454"/>
	  <point x="598" y="529" type="curve" smooth="yes"/>
	  <point x="598" y="558"/>
	  <point x="593" y="591"/>
	  <point x="581" y="627" type="curve"/>
	  <point x="525" y="662"/>
	  <point x="452" y="675"/>
	  <point x="381" y="675" type="curve" smooth="yes"/>
	  <point x="282" y="675"/>
	  <point x="160" y="649"/>
	  <point x="98" y="630" type="curve"/>
	</contour>
	<contour>
	  <point x="459" y="278"/>
	  <point x="468" y="237"/>
	  <point x="468" y="196" type="curve" smooth="yes"/>
	  <point x="468" y="137"/>
	  <point x="449" y="83"/>
	  <point x="433" y="51" type="curve"/>
	  <point x="420" y="46"/>
	  <point x="375" y="45"/>
	  <point x="359" y="45" type="curve" smooth="yes"/>
	  <point x="328" y="45"/>
	  <point x="295" y="51"/>
	  <point x="262" y="60" type="curve"/>
	  <point x="284" y="267" type="line"/>
	  <point x="337" y="279"/>
	  <point x="389" y="294"/>
	  <point x="435" y="315" type="curve"/>
	</contour>
	<contour>
	  <point x="418" y="586"/>
	  <point x="436" y="534"/>
	  <point x="436" y="494" type="curve" smooth="yes"/>
	  <point x="436" y="433"/>
	  <point x="383" y="361"/>
	  <point x="290" y="324" type="curve"/>
	  <point x="319" y="598" type="line"/>
	  <point x="343" y="605"/>
	  <point x="366" y="610"/>
	  <point x="383" y="610" type="curve"/>
	</contour>
  </outline>
</glyph>
<glyph name="C" format="1">
  <advance width="502"/>
  <unicode hex="0043"/>
  <outline>
	<contour>
	  <point x="278" y="700" type="line"/>
	  <point x="178" y="634"/>
	  <point x="70" y="444"/>
	  <point x="70" y="207" type="curve" smooth="yes"/>
	  <point x="70" y="155"/>
	  <point x="75" y="100"/>
	  <point x="87" y="41" type="curve"/>
	  <point x="132" y="4"/>
	  <point x="224" y="-24"/>
	  <point x="330" y="-24" type="curve" smooth="yes"/>
	  <point x="385" y="-24"/>
	  <point x="444" y="-17"/>
	  <point x="502" y="1" type="curve"/>
	  <point x="468" y="109" type="line"/>
	  <point x="399" y="83"/>
	  <point x="332" y="73"/>
	  <point x="267" y="73" type="curve" smooth="yes"/>
	  <point x="234" y="73"/>
	  <point x="202" y="75"/>
	  <point x="171" y="80" type="curve"/>
	  <point x="171" y="263"/>
	  <point x="286" y="460"/>
	  <point x="471" y="578" type="curve"/>
	</contour>
  </outline>
</glyph>
<glyph name="D" format="1">
  <advance width="654"/>
  <unicode hex="0044"/>
  <outline>
	<contour>
	  <point x="155" y="-14" type="line"/>
	  <point x="436" y="-6"/>
	  <point x="624" y="233"/>
	  <point x="624" y="468" type="curve" smooth="yes"/>
	  <point x="624" y="526"/>
	  <point x="613" y="583"/>
	  <point x="591" y="637" type="curve"/>
	  <point x="531" y="666"/>
	  <point x="459" y="677"/>
	  <point x="386" y="677" type="curve" smooth="yes"/>
	  <point x="280" y="677"/>
	  <point x="173" y="654"/>
	  <point x="98" y="630" type="curve"/>
	</contour>
	<contour>
	  <point x="417" y="578"/>
	  <point x="446" y="495"/>
	  <point x="446" y="400" type="curve" smooth="yes"/>
	  <point x="446" y="268"/>
	  <point x="391" y="122"/>
	  <point x="264" y="70" type="curve"/>
	  <point x="319" y="603" type="line"/>
	  <point x="334" y="607"/>
	  <point x="349" y="610"/>
	  <point x="363" y="610" type="curve"/>
	</contour>
  </outline>
</glyph>
<glyph name="E" format="1">
  <advance width="605"/>
  <unicode hex="0045"/>
  <outline>
	<contour>
	  <point x="531" y="0" type="line"/>
	  <point x="535" y="103" type="line"/>
	  <point x="259" y="71" type="line"/>
	  <point x="286" y="294" type="line"/>
	  <point x="512" y="277" type="line"/>
	  <point x="507" y="367" type="line"/>
	  <point x="294" y="365" type="line"/>
	  <point x="320" y="572" type="line"/>
	  <point x="531" y="597" type="line"/>
	  <point x="534" y="664" type="line"/>
	  <point x="93" y="650" type="line"/>
	  <point x="140" y="-9" type="line"/>
	</contour>
  </outline>
</glyph>
<glyph name="F" format="1">
  <advance width="574"/>
  <unicode hex="0046"/>
  <outline>
	<contour>
	  <point x="482" y="247" type="line"/>
	  <point x="477" y="337" type="line"/>
	  <point x="291" y="335" type="line"/>
	  <point x="320" y="572" type="line"/>
	  <point x="531" y="597" type="line"/>
	  <point x="534" y="664" type="line"/>
	  <point x="93" y="650" type="line"/>
	  <point x="140" y="-9" type="line"/>
	  <point x="250" y="-4" type="line"/>
	  <point x="282" y="263" type="line"/>
	</contour>
  </outline>
</glyph>
<glyph name="G" format="1">
  <advance width="576"/>
  <unicode hex="0047"/>
  <outline>
	<contour>
	  <point x="388" y="-50" type="line"/>
	  <point x="486" y="-42" type="line"/>
	  <point x="546" y="310" type="line"/>
	  <point x="356" y="298" type="line"/>
	  <point x="376" y="79" type="line"/>
	  <point x="346" y="72"/>
	  <point x="314" y="69"/>
	  <point x="279" y="69" type="curve" smooth="yes"/>
	  <point x="243" y="69"/>
	  <point x="206" y="73"/>
	  <point x="171" y="80" type="curve"/>
	  <point x="171" y="263"/>
	  <point x="286" y="460"/>
	  <point x="471" y="578" type="curve"/>
	  <point x="278" y="700" type="line"/>
	  <point x="128" y="591"/>
	  <point x="70" y="398"/>
	  <point x="70" y="217" type="curve" smooth="yes"/>
	  <point x="70" y="159"/>
	  <point x="76" y="103"/>
	  <point x="87" y="51" type="curve"/>
	  <point x="132" y="14"/>
	  <point x="224" y="-14"/>
	  <point x="330" y="-14" type="curve" smooth="yes"/>
	  <point x="348" y="-14"/>
	  <point x="366" y="-13"/>
	  <point x="384" y="-11" type="curve"/>
	</contour>
  </outline>
</glyph>
<glyph name="H" format="1">
  <advance width="769"/>
  <unicode hex="0048"/>
  <outline>
	<contour>
	  <point x="513" y="-16" type="line"/>
	  <point x="613" y="-6" type="line"/>
	  <point x="684" y="663" type="line"/>
	  <point x="456" y="648" type="line"/>
	  <point x="485" y="304" type="line"/>
	  <point x="288" y="306" type="line"/>
	  <point x="326" y="665" type="line"/>
	  <point x="98" y="650" type="line"/>
	  <point x="155" y="-14" type="line"/>
	  <point x="255" y="-4" type="line"/>
	  <point x="279" y="229" type="line"/>
	  <point x="490" y="246" type="line"/>
	</contour>
  </outline>
</glyph>
<glyph name="I" format="1">
  <advance width="431"/>
  <unicode hex="0049"/>
  <outline>
	<contour>
	  <point x="155" y="-14" type="line"/>
	  <point x="265" y="-4" type="line"/>
	  <point x="336" y="665" type="line"/>
	  <point x="98" y="650" type="line"/>
	</contour>
  </outline>
</glyph>
<glyph name="J" format="1">
  <advance width="421"/>
  <unicode hex="004A"/>
  <outline>
	<contour>
	  <point x="346" y="665" type="line"/>
	  <point x="108" y="650" type="line"/>
	  <point x="151" y="154"/>
	  <point x="151" y="147"/>
	  <point x="151" y="140" type="curve" smooth="yes"/>
	  <point x="151" y="92"/>
	  <point x="134" y="50"/>
	  <point x="79" y="50" type="curve" smooth="yes"/>
	  <point x="58" y="50"/>
	  <point x="35" y="56"/>
	  <point x="10" y="64" type="curve"/>
	  <point x="-8" y="10" type="line"/>
	  <point x="33" y="-11"/>
	  <point x="77" y="-24"/>
	  <point x="119" y="-24" type="curve" smooth="yes"/>
	  <point x="203" y="-24"/>
	  <point x="276" y="10"/>
	  <point x="290" y="141" type="curve" smooth="yes"/>
	</contour>
  </outline>
</glyph>
<glyph name="K" format="1">
  <advance width="681"/>
  <unicode hex="004B"/>
  <outline>
	<contour>
	  <point x="625" y="597" type="line"/>
	  <point x="536" y="665" type="line"/>
	  <point x="304" y="363" type="line"/>
	  <point x="336" y="665" type="line"/>
	  <point x="98" y="650" type="line"/>
	  <point x="155" y="-14" type="line"/>
	  <point x="265" y="-4" type="line"/>
	  <point x="292" y="248" type="line"/>
	  <point x="314" y="271" type="line"/>
	  <point x="449" y="-14" type="line"/>
	  <point x="661" y="1" type="line"/>
	  <point x="414" y="376" type="line"/>
	</contour>
  </outline>
</glyph>
<glyph name="L" format="1">
  <advance width="505"/>
  <unicode hex="004C"/>
  <outline>
	<contour>
	  <point x="511" y="0" type="line"/>
	  <point x="515" y="103" type="line"/>
	  <point x="259" y="72" type="line"/>
	  <point x="331" y="665" type="line"/>
	  <point x="93" y="650" type="line"/>
	  <point x="140" y="-9" type="line"/>
	</contour>
  </outline>
</glyph>
<glyph name="M" format="1">
  <advance width="939"/>
  <unicode hex="004D"/>
  <outline>
	<contour>
	  <point x="769" y="-15" type="line"/>
	  <point x="859" y="0" type="line"/>
	  <point x="829" y="650" type="line"/>
	  <point x="587" y="665" type="line"/>
	  <point x="470" y="184" type="line"/>
	  <point x="369" y="660" type="line"/>
	  <point x="127" y="650" type="line"/>
	  <point x="80" y="-5" type="line"/>
	  <point x="180" y="0" type="line"/>
	  <point x="196" y="478" type="line"/>
	  <point x="202" y="478" type="line"/>
	  <point x="419" y="-15" type="line"/>
	  <point x="509" y="0" type="line"/>
	  <point x="618" y="517" type="line"/>
	  <point x="626" y="517" type="line"/>
	</contour>
  </outline>
</glyph>
<glyph name="N" format="1">
  <advance width="692"/>
  <unicode hex="004E"/>
  <outline>
	<contour>
	  <point x="642" y="660" type="line"/>
	  <point x="542" y="655" type="line"/>
	  <point x="532" y="166" type="line"/>
	  <point x="524" y="166" type="line"/>
	  <point x="349" y="665" type="line"/>
	  <point x="107" y="650" type="line"/>
	  <point x="80" y="-5" type="line"/>
	  <point x="180" y="0" type="line"/>
	  <point x="177" y="521" type="line"/>
	  <point x="185" y="521" type="line"/>
	  <point x="509" y="-15" type="line"/>
	  <point x="599" y="0" type="line"/>
	</contour>
  </outline>
</glyph>
<glyph name="P" format="1">
  <advance width="629"/>
  <unicode hex="0050"/>
  <outline>
	<contour>
	  <point x="155" y="-14" type="line"/>
	  <point x="255" y="-4" type="line"/>
	  <point x="279" y="220" type="line"/>
	  <point x="464" y="262"/>
	  <point x="619" y="361"/>
	  <point x="619" y="524" type="curve" smooth="yes"/>
	  <point x="619" y="557"/>
	  <point x="613" y="591"/>
	  <point x="601" y="627" type="curve"/>
	  <point x="545" y="662"/>
	  <point x="471" y="675"/>
	  <point x="396" y="675" type="curve" smooth="yes"/>
	  <point x="280" y="675"/>
	  <point x="160" y="650"/>
	  <point x="98" y="630" type="curve"/>
	</contour>
	<contour>
	  <point x="405" y="585"/>
	  <point x="426" y="542"/>
	  <point x="426" y="495" type="curve" smooth="yes"/>
	  <point x="426" y="422"/>
	  <point x="376" y="337"/>
	  <point x="286" y="288" type="curve"/>
	  <point x="319" y="603" type="line"/>
	  <point x="334" y="607"/>
	  <point x="349" y="610"/>
	  <point x="363" y="610" type="curve"/>
	</contour>
  </outline>
</glyph>
<glyph name="Q" format="1">
  <advance width="589"/>
  <unicode hex="0051"/>
  <outline>
	<contour>
	  <point x="168" y="624"/>
	  <point x="60" y="444"/>
	  <point x="60" y="207" type="curve" smooth="yes"/>
	  <point x="60" y="155"/>
	  <point x="65" y="100"/>
	  <point x="77" y="41" type="curve"/>
	  <point x="121" y="4"/>
	  <point x="192" y="-23"/>
	  <point x="295" y="-24" type="curve"/>
	  <point x="352" y="-165" type="line"/>
	  <point x="532" y="-152" type="line"/>
	  <point x="420" y="-9" type="line"/>
	  <point x="515" y="19"/>
	  <point x="539" y="92"/>
	  <point x="539" y="207" type="curve" smooth="yes"/>
	  <point x="539" y="444"/>
	  <point x="418" y="628"/>
	  <point x="268" y="690" type="curve"/>
	</contour>
	<contour>
	  <point x="418" y="198"/>
	  <point x="414" y="157"/>
	  <point x="400" y="96" type="curve"/>
	  <point x="357" y="81"/>
	  <point x="298" y="73"/>
	  <point x="242" y="73" type="curve" smooth="yes"/>
	  <point x="213" y="73"/>
	  <point x="185" y="75"/>
	  <point x="161" y="80" type="curve"/>
	  <point x="161" y="230"/>
	  <point x="237" y="396"/>
	  <point x="367" y="516" type="curve"/>
	  <point x="400" y="445"/>
	  <point x="418" y="357"/>
	  <point x="418" y="252" type="curve" smooth="yes"/>
	</contour>
  </outline>
</glyph>
<glyph name="R" format="1">
  <advance width="702"/>
  <unicode hex="0052"/>
  <outline>
	<contour>
	  <point x="155" y="-14" type="line"/>
	  <point x="255" y="-4" type="line"/>
	  <point x="282" y="248" type="line"/>
	  <point x="291" y="250"/>
	  <point x="301" y="251"/>
	  <point x="311" y="254" type="curve"/>
	  <point x="582" y="-38" type="line"/>
	  <point x="652" y="1" type="line"/>
	  <point x="484" y="320" type="line"/>
	  <point x="571" y="369"/>
	  <point x="629" y="438"/>
	  <point x="629" y="528" type="curve" smooth="yes"/>
	  <point x="629" y="557"/>
	  <point x="623" y="591"/>
	  <point x="611" y="627" type="curve"/>
	  <point x="555" y="662"/>
	  <point x="481" y="675"/>
	  <point x="406" y="675" type="curve" smooth="yes"/>
	  <point x="290" y="675"/>
	  <point x="160" y="650"/>
	  <point x="98" y="630" type="curve"/>
	</contour>
	<contour>
	  <point x="416" y="584"/>
	  <point x="436" y="544"/>
	  <point x="436" y="501" type="curve" smooth="yes"/>
	  <point x="436" y="433"/>
	  <point x="384" y="355"/>
	  <point x="289" y="312" type="curve"/>
	  <point x="319" y="600" type="line"/>
	  <point x="337" y="606"/>
	  <point x="356" y="610"/>
	  <point x="373" y="610" type="curve"/>
	</contour>
  </outline>
</glyph>
<glyph name="S" format="1">
  <advance width="431"/>
  <unicode hex="0053"/>
  <outline>
	<contour>
	  <point x="49" y="292"/>
	  <point x="198" y="221"/>
	  <point x="198" y="126" type="curve" smooth="yes"/>
	  <point x="198" y="90"/>
	  <point x="179" y="58"/>
	  <point x="111" y="20" type="curve"/>
	  <point x="159" y="-45" type="line"/>
	  <point x="280" y="3"/>
	  <point x="359" y="73"/>
	  <point x="359" y="179" type="curve" smooth="yes"/>
	  <point x="359" y="263"/>
	  <point x="258" y="324"/>
	  <point x="258" y="413" type="curve" smooth="yes"/>
	  <point x="258" y="478"/>
	  <point x="310" y="533"/>
	  <point x="382" y="578" type="curve"/>
	  <point x="199" y="700" type="line"/>
	  <point x="112" y="631"/>
	  <point x="49" y="550"/>
	  <point x="49" y="440" type="curve" smooth="yes"/>
	</contour>
  </outline>
</glyph>
<glyph name="T" format="1">
  <advance width="541"/>
  <unicode hex="0054"/>
  <outline>
	<contour>
	  <point x="15" y="651" type="line"/>
	  <point x="21" y="548" type="line"/>
	  <point x="161" y="562" type="line"/>
	  <point x="211" y="-14" type="line"/>
	  <point x="321" y="-4" type="line"/>
	  <point x="383" y="584" type="line"/>
	  <point x="523" y="598" type="line"/>
	  <point x="526" y="665" type="line"/>
	</contour>
  </outline>
</glyph>
<glyph name="U" format="1">
  <advance width="696"/>
  <unicode hex="0055"/>
  <outline>
	<contour>
	  <point x="611" y="660" type="line"/>
	  <point x="511" y="655" type="line"/>
	  <point x="502" y="191" type="line" smooth="yes"/>
	  <point x="500" y="80"/>
	  <point x="437" y="54"/>
	  <point x="381" y="54" type="curve" smooth="yes"/>
	  <point x="314" y="54"/>
	  <point x="272" y="85"/>
	  <point x="272" y="168" type="curve" smooth="yes"/>
	  <point x="272" y="175"/>
	  <point x="272" y="183"/>
	  <point x="313" y="665" type="curve"/>
	  <point x="75" y="650" type="line"/>
	  <point x="123" y="207" type="line" smooth="yes"/>
	  <point x="141" y="36"/>
	  <point x="233" y="-24"/>
	  <point x="342" y="-24" type="curve" smooth="yes"/>
	  <point x="445" y="-24"/>
	  <point x="570" y="10"/>
	  <point x="581" y="190" type="curve" smooth="yes"/>
	</contour>
  </outline>
</glyph>
<glyph name="V" format="1">
  <advance width="599"/>
  <unicode hex="0056"/>
  <outline>
	<contour>
	  <point x="244" y="665" type="line"/>
	  <point x="15" y="638" type="line"/>
	  <point x="262" y="-15" type="line"/>
	  <point x="352" y="0" type="line"/>
	  <point x="569" y="641" type="line"/>
	  <point x="479" y="665" type="line"/>
	  <point x="334" y="163" type="line"/>
	  <point x="325" y="163" type="line"/>
	</contour>
  </outline>
</glyph>
<glyph name="W" format="1">
  <advance width="923"/>
  <unicode hex="0057"/>
  <outline>
	<contour>
	  <point x="258" y="665" type="line"/>
	  <point x="29" y="638" type="line"/>
	  <point x="239" y="-15" type="line"/>
	  <point x="349" y="0" type="line"/>
	  <point x="463" y="322" type="line"/>
	  <point x="616" y="-15" type="line"/>
	  <point x="706" y="0" type="line"/>
	  <point x="883" y="641" type="line"/>
	  <point x="793" y="665" type="line"/>
	  <point x="678" y="157" type="line"/>
	  <point x="670" y="157" type="line"/>
	  <point x="566" y="611" type="line"/>
	  <point x="486" y="635" type="line"/>
	  <point x="335" y="161" type="line"/>
	  <point x="327" y="161" type="line"/>
	</contour>
  </outline>
</glyph>
<glyph name="X" format="1">
  <advance width="631"/>
  <unicode hex="0058"/>
  <outline>
	<contour>
	  <point x="30" y="13" type="line"/>
	  <point x="145" y="-15" type="line"/>
	  <point x="262" y="239" type="line"/>
	  <point x="370" y="-14" type="line"/>
	  <point x="601" y="15" type="line"/>
	  <point x="404" y="329" type="line"/>
	  <point x="598" y="638" type="line"/>
	  <point x="483" y="665" type="line"/>
	  <point x="369" y="418" type="line"/>
	  <point x="281" y="665" type="line"/>
	  <point x="50" y="637" type="line"/>
	  <point x="224" y="323" type="line"/>
	</contour>
  </outline>
</glyph>
<glyph name="Y" format="1">
  <advance width="558"/>
  <unicode hex="0059"/>
  <outline>
	<contour>
	  <point x="229" y="665" type="line"/>
	  <point x="4" y="638" type="line"/>
	  <point x="202" y="209" type="line"/>
	  <point x="233" y="-14" type="line"/>
	  <point x="333" y="-4" type="line"/>
	  <point x="371" y="235" type="line"/>
	  <point x="543" y="640" type="line"/>
	  <point x="462" y="662" type="line"/>
	  <point x="318" y="303" type="line"/>
	  <point x="309" y="303" type="line"/>
	</contour>
  </outline>
</glyph>
<glyph name="Z" format="1">
  <advance width="560"/>
  <unicode hex="005A"/>
  <outline>
	<contour>
	  <point x="55" y="660" type="line"/>
	  <point x="58" y="593" type="line"/>
	  <point x="296" y="569" type="line"/>
	  <point x="23" y="58" type="line"/>
	  <point x="20" y="-9" type="line"/>
	  <point x="509" y="0" type="line"/>
	  <point x="503" y="103" type="line"/>
	  <point x="130" y="68" type="line"/>
	  <point x="520" y="546" type="line"/>
	  <point x="506" y="650" type="line"/>
	</contour>
  </outline>
</glyph>
<glyph name="bracketleft" format="1">
  <advance width="426"/>
  <unicode hex="005B"/>
  <outline>
	<contour>
	  <point x="386" y="-54" type="line"/>
	  <point x="376" y="-4" type="line"/>
	  <point x="211" y="16" type="line"/>
	  <point x="263" y="620" type="line"/>
	  <point x="396" y="620" type="line"/>
	  <point x="396" y="718" type="line"/>
	  <point x="100" y="674" type="line"/>
	  <point x="152" y="-105" type="line"/>
	</contour>
  </outline>
</glyph>
<glyph name="backslash" format="1">
  <advance width="496"/>
  <unicode hex="005C"/>
  <outline>
	<contour>
	  <point x="416" y="-68" type="line"/>
	  <point x="346" y="-91" type="line"/>
	  <point x="80" y="708" type="line"/>
	  <point x="192" y="739" type="line"/>
	</contour>
  </outline>
</glyph>
<glyph name="bracketright" format="1">
  <advance width="426"/>
  <unicode hex="005D"/>
  <outline>
	<contour>
	  <point x="274" y="-105" type="line"/>
	  <point x="326" y="674" type="line"/>
	  <point x="30" y="718" type="line"/>
	  <point x="30" y="620" type="line"/>
	  <point x="163" y="620" type="line"/>
	  <point x="215" y="16" type="line"/>
	  <point x="50" y="-4" type="line"/>
	  <point x="40" y="-54" type="line"/>
	</contour>
  </outline>
</glyph>
<glyph name="asciicircum" format="1">
  <advance width="612"/>
  <unicode hex="005E"/>
  <outline>
	<contour>
	  <point x="442" y="362" type="line"/>
	  <point x="503" y="386" type="line"/>
	  <point x="354" y="669" type="line"/>
	  <point x="267" y="669" type="line"/>
	  <point x="105" y="406" type="line"/>
	  <point x="200" y="348" type="line"/>
	  <point x="298" y="545" type="line"/>
	</contour>
  </outline>
</glyph>
<glyph name="underscore" format="1">
  <advance width="575"/>
  <unicode hex="005F"/>
  <outline>
	<contour>
	  <point x="521" y="-98" type="line"/>
	  <point x="535" y="-15" type="line"/>
	  <point x="54" y="-15" type="line"/>
	  <point x="40" y="-125" type="line"/>
	</contour>
  </outline>
</glyph>
<glyph name="grave" format="1">
  <advance width="438"/>
  <unicode hex="0060"/>
  <outline>
	<contour>
	  <point x="170" y="753" type="line"/>
	  <point x="110" y="628" type="line"/>
	  <point x="314" y="563" type="line"/>
	  <point x="348" y="631" type="line"/>
	</contour>
  </outline>
</glyph>
<glyph name="a" format="1">
  <advance width="580"/>
  <unicode hex="0061"/>
  <outline>
	<contour>
	  <point x="390" y="-15" type="line"/>
	  <point x="489" y="-6" type="line"/>
	  <point x="517" y="270" type="line" smooth="yes"/>
	  <point x="518" y="277"/>
	  <point x="519" y="296"/>
	  <point x="519" y="308" type="curve" smooth="yes"/>
	  <point x="519" y="453"/>
	  <point x="422" y="512"/>
	  <point x="276" y="512" type="curve" smooth="yes"/>
	  <point x="202" y="512"/>
	  <point x="129" y="495"/>
	  <point x="85" y="477" type="curve"/>
	  <point x="129" y="332" type="line"/>
	  <point x="166" y="355"/>
	  <point x="205" y="365"/>
	  <point x="240" y="365" type="curve" smooth="yes"/>
	  <point x="302" y="365"/>
	  <point x="354" y="333"/>
	  <point x="360" y="278" type="curve" smooth="yes"/>
	  <point x="362" y="256" type="line"/>
	  <point x="325" y="261"/>
	  <point x="291" y="263"/>
	  <point x="262" y="263" type="curve" smooth="yes"/>
	  <point x="81" y="263"/>
	  <point x="35" y="222"/>
	  <point x="35" y="141" type="curve" smooth="yes"/>
	  <point x="35" y="76"/>
	  <point x="65" y="9"/>
	  <point x="110" y="-22" type="curve"/>
	  <point x="118" y="-23"/>
	  <point x="127" y="-23"/>
	  <point x="135" y="-23" type="curve" smooth="yes"/>
	  <point x="241" y="-23"/>
	  <point x="323" y="36"/>
	  <point x="367" y="130" type="curve"/>
	  <point x="375" y="130" type="line"/>
	</contour>
	<contour>
	  <point x="333" y="116"/>
	  <point x="254" y="96"/>
	  <point x="210" y="89" type="curve"/>
	  <point x="200" y="99"/>
	  <point x="191" y="130"/>
	  <point x="191" y="153" type="curve" smooth="yes"/>
	  <point x="191" y="179"/>
	  <point x="199" y="196"/>
	  <point x="205" y="208" type="curve"/>
	  <point x="241" y="214"/>
	  <point x="271" y="215"/>
	  <point x="313" y="215" type="curve" smooth="yes"/>
	  <point x="331" y="215"/>
	  <point x="349" y="214"/>
	  <point x="366" y="214" type="curve"/>
	</contour>
  </outline>
</glyph>
<glyph name="b" format="1">
  <advance width="665"/>
  <unicode hex="0062"/>
  <outline>
	<contour>
	  <point x="117" y="28" type="line"/>
	  <point x="195" y="-11"/>
	  <point x="274" y="-24"/>
	  <point x="336" y="-24" type="curve" smooth="yes"/>
	  <point x="532" y="-24"/>
	  <point x="582" y="54"/>
	  <point x="582" y="207" type="curve" smooth="yes"/>
	  <point x="582" y="332"/>
	  <point x="549" y="459"/>
	  <point x="501" y="517" type="curve"/>
	  <point x="489" y="521"/>
	  <point x="477" y="523"/>
	  <point x="465" y="523" type="curve" smooth="yes"/>
	  <point x="384" y="523"/>
	  <point x="309" y="440"/>
	  <point x="257" y="315" type="curve"/>
	  <point x="248" y="315" type="line"/>
	  <point x="284" y="716" type="line"/>
	  <point x="70" y="683" type="line"/>
	</contour>
	<contour>
	  <point x="403" y="375"/>
	  <point x="413" y="283"/>
	  <point x="413" y="216" type="curve" smooth="yes"/>
	  <point x="413" y="135"/>
	  <point x="405" y="88"/>
	  <point x="398" y="52" type="curve"/>
	  <point x="359" y="42"/>
	  <point x="326" y="40"/>
	  <point x="281" y="40" type="curve" smooth="yes"/>
	  <point x="262" y="40"/>
	  <point x="242" y="41"/>
	  <point x="224" y="43" type="curve"/>
	  <point x="262" y="329"/>
	  <point x="345" y="385"/>
	  <point x="393" y="404" type="curve"/>
	</contour>
  </outline>
</glyph>
<glyph name="c" format="1">
  <advance width="460"/>
  <unicode hex="0063"/>
  <outline>
	<contour>
	  <point x="237" y="539" type="line"/>
	  <point x="147" y="489"/>
	  <point x="50" y="347"/>
	  <point x="50" y="169" type="curve" smooth="yes"/>
	  <point x="50" y="130"/>
	  <point x="54" y="88"/>
	  <point x="65" y="35" type="curve"/>
	  <point x="105" y="1"/>
	  <point x="188" y="-24"/>
	  <point x="284" y="-24" type="curve" smooth="yes"/>
	  <point x="333" y="-24"/>
	  <point x="386" y="-18"/>
	  <point x="438" y="-1" type="curve"/>
	  <point x="408" y="96" type="line"/>
	  <point x="346" y="72"/>
	  <point x="285" y="63"/>
	  <point x="227" y="63" type="curve" smooth="yes"/>
	  <point x="197" y="63"/>
	  <point x="168" y="65"/>
	  <point x="140" y="69" type="curve"/>
	  <point x="140" y="207"/>
	  <point x="244" y="337"/>
	  <point x="410" y="426" type="curve"/>
	</contour>
  </outline>
</glyph>
<glyph name="d" format="1">
  <advance width="701"/>
  <unicode hex="0064"/>
  <outline>
	<contour>
	  <point x="468" y="-15" type="line"/>
	  <point x="567" y="-6" type="line"/>
	  <point x="631" y="716" type="line"/>
	  <point x="417" y="683" type="line"/>
	  <point x="432" y="468" type="line"/>
	  <point x="392" y="484"/>
	  <point x="343" y="496"/>
	  <point x="291" y="496" type="curve" smooth="yes"/>
	  <point x="133" y="496"/>
	  <point x="83" y="418"/>
	  <point x="83" y="265" type="curve" smooth="yes"/>
	  <point x="83" y="140"/>
	  <point x="116" y="35"/>
	  <point x="165" y="-15" type="curve"/>
	  <point x="173" y="-19"/>
	  <point x="197" y="-23"/>
	  <point x="205" y="-23" type="curve" smooth="yes"/>
	  <point x="305" y="-23"/>
	  <point x="392" y="29"/>
	  <point x="447" y="157" type="curve"/>
	  <point x="455" y="157" type="line"/>
	</contour>
	<contour>
	  <point x="440" y="384"/>
	  <point x="441" y="368"/>
	  <point x="441" y="353" type="curve" smooth="yes"/>
	  <point x="441" y="136"/>
	  <point x="324" y="68"/>
	  <point x="273" y="58" type="curve"/>
	  <point x="263" y="87"/>
	  <point x="253" y="179"/>
	  <point x="253" y="246" type="curve" smooth="yes"/>
	  <point x="253" y="327"/>
	  <point x="260" y="386"/>
	  <point x="267" y="422" type="curve"/>
	  <point x="284" y="431"/>
	  <point x="306" y="436"/>
	  <point x="330" y="436" type="curve" smooth="yes"/>
	  <point x="367" y="436"/>
	  <point x="409" y="424"/>
	  <point x="439" y="400" type="curve"/>
	</contour>
  </outline>
</glyph>
<glyph name="e" format="1">
  <advance width="534"/>
  <unicode hex="0065"/>
  <outline>
	<contour>
	  <point x="144" y="487"/>
	  <point x="50" y="347"/>
	  <point x="50" y="169" type="curve" smooth="yes"/>
	  <point x="50" y="130"/>
	  <point x="54" y="88"/>
	  <point x="66" y="35" type="curve"/>
	  <point x="119" y="-6"/>
	  <point x="200" y="-24"/>
	  <point x="304" y="-24" type="curve" smooth="yes"/>
	  <point x="357" y="-24"/>
	  <point x="414" y="-18"/>
	  <point x="468" y="-1" type="curve"/>
	  <point x="438" y="96" type="line"/>
	  <point x="371" y="72"/>
	  <point x="305" y="63"/>
	  <point x="242" y="63" type="curve" smooth="yes"/>
	  <point x="209" y="63"/>
	  <point x="170" y="65"/>
	  <point x="140" y="69" type="curve"/>
	  <point x="140" y="102"/>
	  <point x="146" y="135"/>
	  <point x="159" y="167" type="curve"/>
	  <point x="189" y="160"/>
	  <point x="234" y="156"/>
	  <point x="279" y="156" type="curve" smooth="yes"/>
	  <point x="440" y="156"/>
	  <point x="479" y="204"/>
	  <point x="479" y="298" type="curve" smooth="yes"/>
	  <point x="479" y="419"/>
	  <point x="346" y="497"/>
	  <point x="237" y="539" type="curve"/>
	</contour>
	<contour>
	  <point x="353" y="350"/>
	  <point x="368" y="313"/>
	  <point x="368" y="265" type="curve" smooth="yes"/>
	  <point x="368" y="253"/>
	  <point x="367" y="240"/>
	  <point x="365" y="227" type="curve"/>
	  <point x="326" y="219"/>
	  <point x="272" y="213"/>
	  <point x="221" y="213" type="curve" smooth="yes"/>
	  <point x="207" y="213"/>
	  <point x="192" y="213"/>
	  <point x="179" y="214" type="curve"/>
	  <point x="215" y="277"/>
	  <point x="260" y="330"/>
	  <point x="335" y="380" type="curve"/>
	</contour>
  </outline>
</glyph>
<glyph name="f" format="1">
  <advance width="431"/>
  <unicode hex="0066"/>
  <outline>
	<contour>
	  <point x="329" y="750" type="line"/>
	  <point x="230" y="738"/>
	  <point x="121" y="657"/>
	  <point x="110" y="463" type="curve"/>
	  <point x="20" y="459" type="line"/>
	  <point x="26" y="356" type="line"/>
	  <point x="111" y="369" type="line"/>
	  <point x="151" y="-15" type="line"/>
	  <point x="250" y="-6" type="line"/>
	  <point x="299" y="397" type="line"/>
	  <point x="398" y="412" type="line"/>
	  <point x="401" y="479" type="line"/>
	  <point x="236" y="470" type="line"/>
	  <point x="260" y="518"/>
	  <point x="301" y="556"/>
	  <point x="366" y="579" type="curve"/>
	</contour>
  </outline>
</glyph>
<glyph name="g" format="1">
  <advance width="720"/>
  <unicode hex="0067"/>
  <outline>
	<contour>
	  <point x="440" y="386"/>
	  <point x="441" y="372"/>
	  <point x="441" y="358" type="curve" smooth="yes"/>
	  <point x="441" y="152"/>
	  <point x="323" y="87"/>
	  <point x="273" y="78" type="curve"/>
	  <point x="263" y="105"/>
	  <point x="253" y="193"/>
	  <point x="253" y="256" type="curve" smooth="yes"/>
	  <point x="253" y="333"/>
	  <point x="260" y="389"/>
	  <point x="267" y="423" type="curve"/>
	  <point x="284" y="432"/>
	  <point x="306" y="437"/>
	  <point x="330" y="437" type="curve" smooth="yes"/>
	  <point x="367" y="437"/>
	  <point x="409" y="425"/>
	  <point x="439" y="402" type="curve"/>
	</contour>
	<contour>
	  <point x="650" y="514" type="line"/>
	  <point x="458" y="485" type="line"/>
	  <point x="436" y="456" type="line"/>
	  <point x="395" y="483"/>
	  <point x="345" y="496"/>
	  <point x="291" y="496" type="curve" smooth="yes"/>
	  <point x="133" y="496"/>
	  <point x="83" y="421"/>
	  <point x="83" y="274" type="curve" smooth="yes"/>
	  <point x="83" y="154"/>
	  <point x="116" y="53"/>
	  <point x="165" y="5" type="curve"/>
	  <point x="173" y="1"/>
	  <point x="197" y="-3"/>
	  <point x="205" y="-3" type="curve" smooth="yes"/>
	  <point x="311" y="-3"/>
	  <point x="404" y="54"/>
	  <point x="457" y="196" type="curve"/>
	  <point x="465" y="196" type="line"/>
	  <point x="486" y="-9"/>
	  <point x="486" y="-17"/>
	  <point x="486" y="-25" type="curve" smooth="yes"/>
	  <point x="486" y="-92"/>
	  <point x="452" y="-139"/>
	  <point x="376" y="-139" type="curve" smooth="yes"/>
	  <point x="335" y="-139"/>
	  <point x="284" y="-126"/>
	  <point x="225" y="-100" type="curve"/>
	  <point x="197" y="-150" type="line"/>
	  <point x="268" y="-197"/>
	  <point x="330" y="-220"/>
	  <point x="403" y="-220" type="curve" smooth="yes"/>
	  <point x="506" y="-220"/>
	  <point x="568" y="-150"/>
	  <point x="581" y="-45" type="curve" smooth="yes"/>
	</contour>
  </outline>
</glyph>
<glyph name="h" format="1">
  <advance width="665"/>
  <unicode hex="0068"/>
  <outline>
	<contour>
	  <point x="121" y="-15" type="line"/>
	  <point x="220" y="-6" type="line"/>
	  <point x="260" y="324"/>
	  <point x="345" y="385"/>
	  <point x="397" y="404" type="curve"/>
	  <point x="408" y="282"/>
	  <point x="414" y="178"/>
	  <point x="414" y="-15" type="curve"/>
	  <point x="594" y="0" type="line"/>
	  <point x="594" y="133"/>
	  <point x="583" y="423"/>
	  <point x="505" y="517" type="curve"/>
	  <point x="493" y="521"/>
	  <point x="481" y="523"/>
	  <point x="469" y="523" type="curve" smooth="yes"/>
	  <point x="386" y="523"/>
	  <point x="309" y="436"/>
	  <point x="256" y="304" type="curve"/>
	  <point x="247" y="304" type="line"/>
	  <point x="284" y="716" type="line"/>
	  <point x="70" y="683" type="line"/>
	</contour>
  </outline>
</glyph>
<glyph name="i" format="1">
  <advance width="354"/>
  <unicode hex="0069"/>
  <outline>
	<contour>
	  <point x="121" y="-15" type="line"/>
	  <point x="220" y="-6" type="line"/>
	  <point x="284" y="513" type="line"/>
	  <point x="70" y="480" type="line"/>
	</contour>
	<contour>
	  <point x="74" y="606"/>
	  <point x="116" y="564"/>
	  <point x="167" y="564" type="curve" smooth="yes"/>
	  <point x="218" y="564"/>
	  <point x="260" y="606"/>
	  <point x="260" y="657" type="curve" smooth="yes"/>
	  <point x="260" y="708"/>
	  <point x="218" y="750"/>
	  <point x="167" y="750" type="curve" smooth="yes"/>
	  <point x="116" y="750"/>
	  <point x="74" y="708"/>
	  <point x="74" y="657" type="curve" smooth="yes"/>
	</contour>
  </outline>
</glyph>
<glyph name="j" format="1">
  <advance width="354"/>
  <unicode hex="006A"/>
  <outline>
	<contour>
	  <point x="74" y="606"/>
	  <point x="116" y="564"/>
	  <point x="167" y="564" type="curve" smooth="yes"/>
	  <point x="218" y="564"/>
	  <point x="260" y="606"/>
	  <point x="260" y="657" type="curve" smooth="yes"/>
	  <point x="260" y="708"/>
	  <point x="218" y="750"/>
	  <point x="167" y="750" type="curve" smooth="yes"/>
	  <point x="116" y="750"/>
	  <point x="74" y="708"/>
	  <point x="74" y="657" type="curve" smooth="yes"/>
	</contour>
	<contour>
	  <point x="284" y="512" type="line"/>
	  <point x="70" y="480" type="line"/>
	  <point x="115" y="48"/>
	  <point x="116" y="38"/>
	  <point x="116" y="28" type="curve" smooth="yes"/>
	  <point x="116" y="-27"/>
	  <point x="96" y="-60"/>
	  <point x="45" y="-60" type="curve" smooth="yes"/>
	  <point x="28" y="-60"/>
	  <point x="-2" y="-53"/>
	  <point x="-22" y="-39" type="curve"/>
	  <point x="-52" y="-90" type="line"/>
	  <point x="-12" y="-122"/>
	  <point x="29" y="-135"/>
	  <point x="68" y="-135" type="curve" smooth="yes"/>
	  <point x="146" y="-135"/>
	  <point x="208" y="-102"/>
	  <point x="220" y="-5" type="curve" smooth="yes"/>
	</contour>
  </outline>
</glyph>
<glyph name="k" format="1">
  <advance width="598"/>
  <unicode hex="006B"/>
  <outline>
	<contour>
	  <point x="526" y="484" type="line"/>
	  <point x="459" y="536" type="line"/>
	  <point x="246" y="284" type="line"/>
	  <point x="284" y="716" type="line"/>
	  <point x="70" y="683" type="line"/>
	  <point x="121" y="-15" type="line"/>
	  <point x="220" y="-6" type="line"/>
	  <point x="237" y="185" type="line"/>
	  <point x="273" y="219" type="line"/>
	  <point x="398" y="-15" type="line"/>
	  <point x="588" y="-2" type="line"/>
	  <point x="371" y="322" type="line"/>
	</contour>
  </outline>
</glyph>
<glyph name="l" format="1">
  <advance width="354"/>
  <unicode hex="006C"/>
  <outline>
	<contour>
	  <point x="121" y="-15" type="line"/>
	  <point x="220" y="-6" type="line"/>
	  <point x="284" y="716" type="line"/>
	  <point x="70" y="683" type="line"/>
	</contour>
  </outline>
</glyph>
<glyph name="m" format="1">
  <advance width="930"/>
  <unicode hex="006D"/>
  <outline>
	<contour>
	  <point x="859" y="-6" type="line"/>
	  <point x="859" y="127"/>
	  <point x="848" y="423"/>
	  <point x="770" y="517" type="curve"/>
	  <point x="758" y="521"/>
	  <point x="745" y="523"/>
	  <point x="733" y="523" type="curve" smooth="yes"/>
	  <point x="663" y="523"/>
	  <point x="598" y="453"/>
	  <point x="551" y="343" type="curve"/>
	  <point x="543" y="343" type="line"/>
	  <point x="529" y="416"/>
	  <point x="509" y="481"/>
	  <point x="480" y="517" type="curve"/>
	  <point x="468" y="521"/>
	  <point x="455" y="523"/>
	  <point x="443" y="523" type="curve" smooth="yes"/>
	  <point x="376" y="523"/>
	  <point x="314" y="459"/>
	  <point x="267" y="358" type="curve"/>
	  <point x="260" y="358" type="line"/>
	  <point x="279" y="514" type="line"/>
	  <point x="65" y="481" type="line"/>
	  <point x="116" y="-15" type="line"/>
	  <point x="215" y="-6" type="line"/>
	  <point x="224" y="67" type="line" smooth="yes"/>
	  <point x="254" y="314"/>
	  <point x="330" y="386"/>
	  <point x="374" y="404" type="curve"/>
	  <point x="384" y="282"/>
	  <point x="389" y="178"/>
	  <point x="389" y="-15" type="curve"/>
	  <point x="505" y="-6" type="line"/>
	  <point x="541" y="324"/>
	  <point x="617" y="385"/>
	  <point x="664" y="404" type="curve"/>
	  <point x="674" y="282"/>
	  <point x="679" y="178"/>
	  <point x="679" y="-15" type="curve"/>
	</contour>
  </outline>
</glyph>
<glyph name="n" format="1">
  <advance width="660"/>
  <unicode hex="006E"/>
  <outline>
	<contour>
	  <point x="116" y="-15" type="line"/>
	  <point x="215" y="-6" type="line"/>
	  <point x="255" y="324"/>
	  <point x="340" y="385"/>
	  <point x="392" y="404" type="curve"/>
	  <point x="403" y="282"/>
	  <point x="409" y="178"/>
	  <point x="409" y="-15" type="curve"/>
	  <point x="589" y="0" type="line"/>
	  <point x="589" y="133"/>
	  <point x="578" y="423"/>
	  <point x="500" y="517" type="curve"/>
	  <point x="488" y="521"/>
	  <point x="475" y="523"/>
	  <point x="463" y="523" type="curve" smooth="yes"/>
	  <point x="388" y="523"/>
	  <point x="318" y="451"/>
	  <point x="266" y="338" type="curve"/>
	  <point x="257" y="338" type="line"/>
	  <point x="279" y="514" type="line"/>
	  <point x="65" y="481" type="line"/>
	</contour>
  </outline>
</glyph>
<glyph name="o" format="1">
  <advance width="538"/>
  <unicode hex="006F"/>
  <outline>
	<contour>
	  <point x="178" y="509"/>
	  <point x="50" y="371"/>
	  <point x="50" y="184" type="curve" smooth="yes"/>
	  <point x="50" y="137"/>
	  <point x="54" y="87"/>
	  <point x="65" y="34" type="curve"/>
	  <point x="106" y="1"/>
	  <point x="171" y="-24"/>
	  <point x="266" y="-24" type="curve" smooth="yes"/>
	  <point x="442" y="-24"/>
	  <point x="488" y="46"/>
	  <point x="488" y="184" type="curve" smooth="yes"/>
	  <point x="488" y="364"/>
	  <point x="357" y="477"/>
	  <point x="238" y="539" type="curve"/>
	</contour>
	<contour>
	  <point x="372" y="169"/>
	  <point x="367" y="126"/>
	  <point x="356" y="84" type="curve"/>
	  <point x="317" y="71"/>
	  <point x="262" y="63"/>
	  <point x="212" y="63" type="curve" smooth="yes"/>
	  <point x="187" y="63"/>
	  <point x="162" y="65"/>
	  <point x="141" y="69" type="curve"/>
	  <point x="141" y="191"/>
	  <point x="220" y="326"/>
	  <point x="332" y="385" type="curve"/>
	  <point x="359" y="332"/>
	  <point x="372" y="273"/>
	  <point x="372" y="211" type="curve" smooth="yes"/>
	</contour>
  </outline>
</glyph>
<glyph name="p" format="1">
  <advance width="677"/>
  <unicode hex="0070"/>
  <outline>
	<contour>
	  <point x="111" y="-217" type="line"/>
	  <point x="204" y="-208" type="line"/>
	  <point x="231" y="10" type="line"/>
	  <point x="274" y="-10"/>
	  <point x="327" y="-24"/>
	  <point x="386" y="-24" type="curve" smooth="yes"/>
	  <point x="544" y="-24"/>
	  <point x="594" y="54"/>
	  <point x="594" y="207" type="curve" smooth="yes"/>
	  <point x="594" y="332"/>
	  <point x="561" y="459"/>
	  <point x="513" y="517" type="curve"/>
	  <point x="501" y="521"/>
	  <point x="488" y="523"/>
	  <point x="476" y="523" type="curve" smooth="yes"/>
	  <point x="401" y="523"/>
	  <point x="331" y="450"/>
	  <point x="279" y="338" type="curve"/>
	  <point x="272" y="338" type="line"/>
	  <point x="294" y="514" type="line"/>
	  <point x="80" y="481" type="line"/>
	</contour>
	<contour>
	  <point x="275" y="359"/>
	  <point x="357" y="385"/>
	  <point x="405" y="404" type="curve"/>
	  <point x="415" y="375"/>
	  <point x="425" y="283"/>
	  <point x="425" y="216" type="curve" smooth="yes"/>
	  <point x="425" y="135"/>
	  <point x="417" y="88"/>
	  <point x="410" y="52" type="curve"/>
	  <point x="393" y="43"/>
	  <point x="371" y="38"/>
	  <point x="347" y="38" type="curve" smooth="yes"/>
	  <point x="310" y="38"/>
	  <point x="269" y="50"/>
	  <point x="239" y="74" type="curve"/>
	</contour>
  </outline>
</glyph>
<glyph name="q" format="1">
  <advance width="720"/>
  <unicode hex="0071"/>
  <outline>
	<contour>
	  <point x="467" y="-217" type="line"/>
	  <point x="560" y="-208" type="line"/>
	  <point x="650" y="514" type="line"/>
	  <point x="458" y="485" type="line"/>
	  <point x="436" y="456" type="line"/>
	  <point x="395" y="483"/>
	  <point x="345" y="496"/>
	  <point x="291" y="496" type="curve" smooth="yes"/>
	  <point x="133" y="496"/>
	  <point x="83" y="418"/>
	  <point x="83" y="265" type="curve" smooth="yes"/>
	  <point x="83" y="140"/>
	  <point x="116" y="35"/>
	  <point x="165" y="-15" type="curve"/>
	  <point x="173" y="-19"/>
	  <point x="197" y="-23"/>
	  <point x="205" y="-23" type="curve" smooth="yes"/>
	  <point x="302" y="-23"/>
	  <point x="388" y="26"/>
	  <point x="443" y="148" type="curve"/>
	  <point x="450" y="148" type="line"/>
	</contour>
	<contour>
	  <point x="440" y="384"/>
	  <point x="441" y="368"/>
	  <point x="441" y="353" type="curve" smooth="yes"/>
	  <point x="441" y="136"/>
	  <point x="324" y="68"/>
	  <point x="273" y="58" type="curve"/>
	  <point x="263" y="87"/>
	  <point x="253" y="179"/>
	  <point x="253" y="246" type="curve" smooth="yes"/>
	  <point x="253" y="327"/>
	  <point x="260" y="386"/>
	  <point x="267" y="422" type="curve"/>
	  <point x="284" y="431"/>
	  <point x="306" y="436"/>
	  <point x="330" y="436" type="curve" smooth="yes"/>
	  <point x="367" y="436"/>
	  <point x="409" y="424"/>
	  <point x="439" y="400" type="curve"/>
	</contour>
  </outline>
</glyph>
<glyph name="r" format="1">
  <advance width="470"/>
  <unicode hex="0072"/>
  <outline>
	<contour>
	  <point x="116" y="-15" type="line"/>
	  <point x="215" y="-6" type="line"/>
	  <point x="229" y="107" type="line" smooth="yes"/>
	  <point x="251" y="281"/>
	  <point x="296" y="329"/>
	  <point x="383" y="329" type="curve" smooth="yes"/>
	  <point x="401" y="329"/>
	  <point x="420" y="327"/>
	  <point x="442" y="324" type="curve"/>
	  <point x="470" y="537" type="line"/>
	  <point x="388" y="530"/>
	  <point x="317" y="464"/>
	  <point x="266" y="354" type="curve"/>
	  <point x="259" y="354" type="line"/>
	  <point x="279" y="514" type="line"/>
	  <point x="65" y="481" type="line"/>
	</contour>
  </outline>
</glyph>
<glyph name="s" format="1">
  <advance width="419"/>
  <unicode hex="0073"/>
  <outline>
	<contour>
	  <point x="60" y="196"/>
	  <point x="194" y="132"/>
	  <point x="194" y="46" type="curve" smooth="yes"/>
	  <point x="194" y="14"/>
	  <point x="177" y="-15"/>
	  <point x="115" y="-49" type="curve"/>
	  <point x="159" y="-108" type="line"/>
	  <point x="268" y="-65"/>
	  <point x="339" y="-2"/>
	  <point x="339" y="94" type="curve" smooth="yes"/>
	  <point x="339" y="169"/>
	  <point x="248" y="224"/>
	  <point x="248" y="304" type="curve" smooth="yes"/>
	  <point x="248" y="363"/>
	  <point x="295" y="412"/>
	  <point x="359" y="453" type="curve"/>
	  <point x="195" y="563" type="line"/>
	  <point x="116" y="501"/>
	  <point x="60" y="428"/>
	  <point x="60" y="329" type="curve" smooth="yes"/>
	</contour>
  </outline>
</glyph>
<glyph name="t" format="1">
  <advance width="431"/>
  <unicode hex="0074"/>
  <outline>
	<contour>
	  <point x="151" y="-15" type="line"/>
	  <point x="250" y="-6" type="line"/>
	  <point x="302" y="417" type="line"/>
	  <point x="408" y="432" type="line"/>
	  <point x="411" y="499" type="line"/>
	  <point x="312" y="494" type="line"/>
	  <point x="332" y="656" type="line"/>
	  <point x="83" y="623" type="line"/>
	  <point x="98" y="483" type="line"/>
	  <point x="10" y="479" type="line"/>
	  <point x="16" y="376" type="line"/>
	  <point x="108" y="389" type="line"/>
	</contour>
  </outline>
</glyph>
<glyph name="u" format="1">
  <advance width="690"/>
  <unicode hex="0075"/>
  <outline>
	<contour>
	  <point x="251" y="131"/>
	  <point x="247" y="189"/>
	  <point x="247" y="249" type="curve" smooth="yes"/>
	  <point x="247" y="324"/>
	  <point x="254" y="400"/>
	  <point x="265" y="507" type="curve"/>
	  <point x="65" y="492" type="line"/>
	  <point x="65" y="359"/>
	  <point x="76" y="79"/>
	  <point x="154" y="-15" type="curve"/>
	  <point x="162" y="-19"/>
	  <point x="186" y="-23"/>
	  <point x="194" y="-23" type="curve" smooth="yes"/>
	  <point x="298" y="-23"/>
	  <point x="377" y="34"/>
	  <point x="430" y="175" type="curve"/>
	  <point x="437" y="175" type="line"/>
	  <point x="457" y="-15" type="line"/>
	  <point x="556" y="-6" type="line"/>
	  <point x="620" y="513" type="line"/>
	  <point x="406" y="480" type="line"/>
	  <point x="417" y="370"/>
	  <point x="418" y="355"/>
	  <point x="418" y="339" type="curve" smooth="yes"/>
	  <point x="418" y="225"/>
	  <point x="378" y="84"/>
	  <point x="262" y="58" type="curve"/>
	</contour>
  </outline>
</glyph>
<glyph name="v" format="1">
  <advance width="558"/>
  <unicode hex="0076"/>
  <outline>
	<contour>
	  <point x="244" y="513" type="line"/>
	  <point x="30" y="480" type="line"/>
	  <point x="252" y="-15" type="line"/>
	  <point x="333" y="-2" type="line"/>
	  <point x="528" y="488" type="line"/>
	  <point x="447" y="510" type="line"/>
	  <point x="318" y="130" type="line"/>
	  <point x="310" y="130" type="line"/>
	</contour>
  </outline>
</glyph>
<glyph name="w" format="1">
  <advance width="828"/>
  <unicode hex="0077"/>
  <outline>
	<contour>
	  <point x="236" y="511" type="line"/>
	  <point x="30" y="480" type="line"/>
	  <point x="219" y="-15" type="line"/>
	  <point x="318" y="-2" type="line"/>
	  <point x="412" y="219" type="line"/>
	  <point x="558" y="-15" type="line"/>
	  <point x="639" y="-2" type="line"/>
	  <point x="798" y="482" type="line"/>
	  <point x="717" y="504" type="line"/>
	  <point x="613" y="119" type="line"/>
	  <point x="605" y="119" type="line"/>
	  <point x="513" y="455" type="line"/>
	  <point x="441" y="477" type="line"/>
	  <point x="306" y="122" type="line"/>
	  <point x="298" y="122" type="line"/>
	</contour>
  </outline>
</glyph>
<glyph name="x" format="1">
  <advance width="540"/>
  <unicode hex="0078"/>
  <outline>
	<contour>
	  <point x="30" y="0" type="line"/>
	  <point x="121" y="-22" type="line"/>
	  <point x="213" y="164" type="line"/>
	  <point x="296" y="-22" type="line"/>
	  <point x="510" y="0" type="line"/>
	  <point x="348" y="256" type="line"/>
	  <point x="501" y="488" type="line"/>
	  <point x="410" y="510" type="line"/>
	  <point x="320" y="329" type="line"/>
	  <point x="254" y="510" type="line"/>
	  <point x="40" y="480" type="line"/>
	  <point x="183" y="232" type="line"/>
	</contour>
  </outline>
</glyph>
<glyph name="y" format="1">
  <advance width="566"/>
  <unicode hex="0079"/>
  <outline>
	<contour>
	  <point x="536" y="488" type="line"/>
	  <point x="455" y="510" type="line"/>
	  <point x="326" y="129" type="line"/>
	  <point x="318" y="129" type="line"/>
	  <point x="252" y="513" type="line"/>
	  <point x="38" y="480" type="line"/>
	  <point x="245" y="-23" type="line"/>
	  <point x="233" y="-96"/>
	  <point x="184" y="-128"/>
	  <point x="125" y="-128" type="curve" smooth="yes"/>
	  <point x="104" y="-128"/>
	  <point x="82" y="-124"/>
	  <point x="60" y="-116" type="curve"/>
	  <point x="30" y="-167" type="line"/>
	  <point x="70" y="-199"/>
	  <point x="111" y="-212"/>
	  <point x="150" y="-212" type="curve" smooth="yes"/>
	  <point x="228" y="-212"/>
	  <point x="272" y="-176"/>
	  <point x="319" y="-58" type="curve" smooth="yes"/>
	</contour>
  </outline>
</glyph>
<glyph name="z" format="1">
  <advance width="560"/>
  <unicode hex="007A"/>
  <outline>
	<contour>
	  <point x="76" y="509" type="line"/>
	  <point x="79" y="438" type="line"/>
	  <point x="273" y="418" type="line"/>
	  <point x="48" y="52" type="line"/>
	  <point x="45" y="-9" type="line"/>
	  <point x="476" y="0" type="line"/>
	  <point x="470" y="102" type="line"/>
	  <point x="160" y="65" type="line"/>
	  <point x="495" y="396" type="line"/>
	  <point x="482" y="500" type="line"/>
	</contour>
  </outline>
</glyph>
<glyph name="braceleft" format="1">
  <advance width="426"/>
  <unicode hex="007B"/>
  <outline>
	<contour>
	  <point x="172" y="316" type="line"/>
	  <point x="218" y="330"/>
	  <point x="240" y="361"/>
	  <point x="243" y="393" type="curve" smooth="yes"/>
	  <point x="260" y="580" type="line" smooth="yes"/>
	  <point x="264" y="625"/>
	  <point x="315" y="657"/>
	  <point x="396" y="657" type="curve"/>
	  <point x="396" y="718" type="line"/>
	  <point x="218" y="718"/>
	  <point x="109" y="704"/>
	  <point x="109" y="548" type="curve" smooth="yes"/>
	  <point x="109" y="538"/>
	  <point x="109" y="528"/>
	  <point x="122" y="351" type="curve"/>
	  <point x="53" y="323" type="line"/>
	  <point x="58" y="275" type="line"/>
	  <point x="127" y="263" type="line"/>
	  <point x="143" y="34" type="line" smooth="yes"/>
	  <point x="149" y="-49"/>
	  <point x="164" y="-90"/>
	  <point x="227" y="-90" type="curve" smooth="yes"/>
	  <point x="262" y="-90"/>
	  <point x="313" y="-80"/>
	  <point x="386" y="-54" type="curve"/>
	  <point x="377" y="1" type="line"/>
	  <point x="337" y="-6"/>
	  <point x="313" y="-10"/>
	  <point x="290" y="-10" type="curve" smooth="yes"/>
	  <point x="228" y="-10"/>
	  <point x="216" y="14"/>
	  <point x="216" y="49" type="curve" smooth="yes"/>
	  <point x="216" y="85"/>
	  <point x="230" y="208"/>
	  <point x="230" y="247" type="curve" smooth="yes"/>
	  <point x="230" y="272"/>
	  <point x="215" y="294"/>
	  <point x="170" y="308" type="curve"/>
	</contour>
  </outline>
</glyph>
<glyph name="bar" format="1">
  <advance width="356"/>
  <unicode hex="007C"/>
  <outline>
	<contour>
	  <point x="138" y="-102" type="line"/>
	  <point x="217" y="-102" type="line"/>
	  <point x="248" y="739" type="line"/>
	  <point x="108" y="739" type="line"/>
	</contour>
  </outline>
</glyph>
<glyph name="braceright" format="1">
  <advance width="426"/>
  <unicode hex="007D"/>
  <outline>
	<contour>
	  <point x="256" y="308" type="line"/>
	  <point x="211" y="294"/>
	  <point x="196" y="272"/>
	  <point x="196" y="247" type="curve" smooth="yes"/>
	  <point x="196" y="208"/>
	  <point x="210" y="85"/>
	  <point x="210" y="49" type="curve" smooth="yes"/>
	  <point x="210" y="14"/>
	  <point x="198" y="-10"/>
	  <point x="136" y="-10" type="curve" smooth="yes"/>
	  <point x="113" y="-10"/>
	  <point x="89" y="-6"/>
	  <point x="49" y="1" type="curve"/>
	  <point x="40" y="-54" type="line"/>
	  <point x="113" y="-80"/>
	  <point x="164" y="-90"/>
	  <point x="199" y="-90" type="curve" smooth="yes"/>
	  <point x="262" y="-90"/>
	  <point x="277" y="-49"/>
	  <point x="283" y="34" type="curve" smooth="yes"/>
	  <point x="299" y="263" type="line"/>
	  <point x="368" y="275" type="line"/>
	  <point x="373" y="323" type="line"/>
	  <point x="304" y="351" type="line"/>
	  <point x="317" y="528"/>
	  <point x="317" y="538"/>
	  <point x="317" y="548" type="curve" smooth="yes"/>
	  <point x="317" y="704"/>
	  <point x="208" y="718"/>
	  <point x="30" y="718" type="curve"/>
	  <point x="30" y="657" type="line"/>
	  <point x="111" y="657"/>
	  <point x="162" y="625"/>
	  <point x="166" y="580" type="curve" smooth="yes"/>
	  <point x="183" y="393" type="line" smooth="yes"/>
	  <point x="186" y="361"/>
	  <point x="208" y="330"/>
	  <point x="254" y="316" type="curve"/>
	</contour>
  </outline>
</glyph>
<glyph name="asciitilde" format="1">
  <advance width="612"/>
  <unicode hex="007E"/>
  <outline>
	<contour>
	  <point x="522" y="364" type="line"/>
	  <point x="491" y="386"/>
	  <point x="453" y="398"/>
	  <point x="414" y="398" type="curve" smooth="yes"/>
	  <point x="329" y="398"/>
	  <point x="272" y="341"/>
	  <point x="188" y="341" type="curve" smooth="yes"/>
	  <point x="155" y="341"/>
	  <point x="123" y="350"/>
	  <point x="97" y="372" type="curve"/>
	  <point x="90" y="259" type="line"/>
	  <point x="115" y="236"/>
	  <point x="148" y="227"/>
	  <point x="180" y="227" type="curve" smooth="yes"/>
	  <point x="278" y="227"/>
	  <point x="331" y="315"/>
	  <point x="428" y="315" type="curve" smooth="yes"/>
	  <point x="458" y="315"/>
	  <point x="487" y="307"/>
	  <point x="512" y="292" type="curve"/>
	</contour>
  </outline>
</glyph>
<glyph name="exclamdown" format="1">
  <advance width="383"/>
  <unicode hex="00A1"/>
  <outline>
	<contour>
	  <point x="323" y="470"/>
	  <point x="281" y="512"/>
	  <point x="230" y="512" type="curve" smooth="yes"/>
	  <point x="179" y="512"/>
	  <point x="137" y="470"/>
	  <point x="137" y="419" type="curve" smooth="yes"/>
	  <point x="137" y="368"/>
	  <point x="179" y="326"/>
	  <point x="230" y="326" type="curve" smooth="yes"/>
	  <point x="281" y="326"/>
	  <point x="323" y="368"/>
	  <point x="323" y="419" type="curve" smooth="yes"/>
	</contour>
	<contour>
	  <point x="127" y="-186" type="line"/>
	  <point x="308" y="-154" type="line"/>
	  <point x="277" y="271" type="line"/>
	  <point x="188" y="262" type="line"/>
	  <point x="100" y="-146" type="line"/>
	</contour>
  </outline>
</glyph>
<glyph name="cent" format="1">
  <advance width="460"/>
  <unicode hex="00A2"/>
  <outline>
	<contour>
	  <point x="190" y="-112" type="line"/>
	  <point x="290" y="-112" type="line"/>
	  <point x="275" y="56" type="line"/>
	  <point x="333" y="56"/>
	  <point x="386" y="62"/>
	  <point x="438" y="79" type="curve"/>
	  <point x="408" y="176" type="line"/>
	  <point x="346" y="152"/>
	  <point x="285" y="143"/>
	  <point x="227" y="143" type="curve" smooth="yes"/>
	  <point x="197" y="143"/>
	  <point x="168" y="145"/>
	  <point x="140" y="149" type="curve"/>
	  <point x="140" y="287"/>
	  <point x="244" y="417"/>
	  <point x="410" y="506" type="curve"/>
	  <point x="276" y="593" type="line"/>
	  <point x="290" y="749" type="line"/>
	  <point x="190" y="749" type="line"/>
	  <point x="202" y="596" type="line"/>
	  <point x="124" y="533"/>
	  <point x="50" y="404"/>
	  <point x="50" y="249" type="curve" smooth="yes"/>
	  <point x="50" y="210"/>
	  <point x="54" y="168"/>
	  <point x="65" y="115" type="curve"/>
	  <point x="93" y="91"/>
	  <point x="143" y="71"/>
	  <point x="204" y="62" type="curve"/>
	</contour>
  </outline>
</glyph>
<glyph name="sterling" format="1">
  <advance width="632"/>
  <unicode hex="00A3"/>
  <outline>
	<contour>
	  <point x="452" y="296" type="line"/>
	  <point x="462" y="349" type="line"/>
	  <point x="313" y="349" type="line"/>
	  <point x="314" y="386"/>
	  <point x="315" y="424"/>
	  <point x="315" y="463" type="curve" smooth="yes"/>
	  <point x="315" y="545"/>
	  <point x="328" y="575"/>
	  <point x="368" y="600" type="curve"/>
	  <point x="520" y="497" type="line"/>
	  <point x="572" y="605" type="line"/>
	  <point x="510" y="640"/>
	  <point x="451" y="665"/>
	  <point x="335" y="665" type="curve" smooth="yes"/>
	  <point x="260" y="665"/>
	  <point x="186" y="652"/>
	  <point x="130" y="617" type="curve"/>
	  <point x="121" y="591"/>
	  <point x="117" y="564"/>
	  <point x="117" y="537" type="curve" smooth="yes"/>
	  <point x="117" y="467"/>
	  <point x="134" y="405"/>
	  <point x="151" y="349" type="curve"/>
	  <point x="90" y="349" type="line"/>
	  <point x="80" y="269" type="line"/>
	  <point x="172" y="275" type="line"/>
	  <point x="178" y="250"/>
	  <point x="182" y="226"/>
	  <point x="182" y="203" type="curve" smooth="yes"/>
	  <point x="182" y="155"/>
	  <point x="165" y="90"/>
	  <point x="113" y="46" type="curve"/>
	  <point x="110" y="0" type="line"/>
	  <point x="559" y="0" type="line"/>
	  <point x="553" y="113" type="line"/>
	  <point x="221" y="62" type="line"/>
	  <point x="218" y="69" type="line"/>
	  <point x="276" y="123"/>
	  <point x="299" y="199"/>
	  <point x="308" y="285" type="curve"/>
	</contour>
  </outline>
</glyph>
<glyph name="currency" format="1">
  <advance width="678"/>
  <unicode hex="00A4"/>
  <outline>
	<contour>
	  <point x="628" y="565" type="line"/>
	  <point x="557" y="636" type="line"/>
	  <point x="461" y="516" type="line"/>
	  <point x="430" y="534"/>
	  <point x="390" y="544"/>
	  <point x="339" y="544" type="curve" smooth="yes"/>
	  <point x="288" y="544"/>
	  <point x="248" y="534"/>
	  <point x="217" y="516" type="curve"/>
	  <point x="121" y="636" type="line"/>
	  <point x="50" y="565" type="line"/>
	  <point x="166" y="472" type="line"/>
	  <point x="141" y="437"/>
	  <point x="130" y="394"/>
	  <point x="130" y="347" type="curve" smooth="yes"/>
	  <point x="130" y="300"/>
	  <point x="141" y="256"/>
	  <point x="166" y="222" type="curve"/>
	  <point x="50" y="129" type="line"/>
	  <point x="121" y="58" type="line"/>
	  <point x="217" y="177" type="line"/>
	  <point x="248" y="160"/>
	  <point x="288" y="150"/>
	  <point x="339" y="150" type="curve" smooth="yes"/>
	  <point x="390" y="150"/>
	  <point x="430" y="160"/>
	  <point x="461" y="177" type="curve"/>
	  <point x="557" y="58" type="line"/>
	  <point x="628" y="129" type="line"/>
	  <point x="512" y="222" type="line"/>
	  <point x="537" y="256"/>
	  <point x="548" y="300"/>
	  <point x="548" y="347" type="curve" smooth="yes"/>
	  <point x="548" y="394"/>
	  <point x="537" y="437"/>
	  <point x="512" y="471" type="curve"/>
	</contour>
	<contour>
	  <point x="419" y="438"/>
	  <point x="424" y="407"/>
	  <point x="424" y="373" type="curve" smooth="yes"/>
	  <point x="424" y="242"/>
	  <point x="402" y="219"/>
	  <point x="319" y="219" type="curve" smooth="yes"/>
	  <point x="300" y="219"/>
	  <point x="278" y="225"/>
	  <point x="265" y="234" type="curve"/>
	  <point x="257" y="256"/>
	  <point x="252" y="286"/>
	  <point x="252" y="319" type="curve" smooth="yes"/>
	  <point x="252" y="450"/>
	  <point x="275" y="474"/>
	  <point x="358" y="474" type="curve" smooth="yes"/>
	  <point x="377" y="474"/>
	  <point x="398" y="469"/>
	  <point x="412" y="460" type="curve"/>
	</contour>
  </outline>
</glyph>
<glyph name="yen" format="1">
  <advance width="558"/>
  <unicode hex="00A5"/>
  <outline>
	<contour>
	  <point x="229" y="665" type="line"/>
	  <point x="4" y="638" type="line"/>
	  <point x="128" y="369" type="line"/>
	  <point x="74" y="369" type="line"/>
	  <point x="62" y="289" type="line"/>
	  <point x="162" y="295" type="line"/>
	  <point x="202" y="209" type="line"/>
	  <point x="205" y="189" type="line"/>
	  <point x="54" y="189" type="line"/>
	  <point x="42" y="109" type="line"/>
	  <point x="214" y="119" type="line"/>
	  <point x="233" y="-14" type="line"/>
	  <point x="333" y="-4" type="line"/>
	  <point x="354" y="128" type="line"/>
	  <point x="488" y="136" type="line"/>
	  <point x="500" y="189" type="line"/>
	  <point x="363" y="189" type="line"/>
	  <point x="370" y="234" type="line"/>
	  <point x="402" y="310" type="line"/>
	  <point x="508" y="316" type="line"/>
	  <point x="520" y="369" type="line"/>
	  <point x="427" y="369" type="line"/>
	  <point x="543" y="640" type="line"/>
	  <point x="462" y="662" type="line"/>
	  <point x="318" y="303" type="line"/>
	  <point x="309" y="303" type="line"/>
	</contour>
  </outline>
</glyph>
<glyph name="brokenbar" format="1">
  <advance width="356"/>
  <unicode hex="00A6"/>
  <outline>
	<contour>
	  <point x="248" y="739" type="line"/>
	  <point x="108" y="739" type="line"/>
	  <point x="116" y="500" type="line"/>
	  <point x="239" y="500" type="line"/>
	</contour>
	<contour>
	  <point x="138" y="-102" type="line"/>
	  <point x="217" y="-102" type="line"/>
	  <point x="228" y="192" type="line"/>
	  <point x="127" y="192" type="line"/>
	</contour>
  </outline>
</glyph>
<glyph name="section" format="1">
  <advance width="620"/>
  <unicode hex="00A7"/>
  <outline>
	<contour>
	  <point x="563" y="344"/>
	  <point x="425" y="390"/>
	  <point x="425" y="493" type="curve" smooth="yes"/>
	  <point x="425" y="541"/>
	  <point x="455" y="585"/>
	  <point x="513" y="625" type="curve"/>
	  <point x="292" y="749" type="line"/>
	  <point x="230" y="691"/>
	  <point x="183" y="628"/>
	  <point x="183" y="549" type="curve" smooth="yes"/>
	  <point x="183" y="512"/>
	  <point x="191" y="477"/>
	  <point x="205" y="448" type="curve"/>
	  <point x="117" y="410"/>
	  <point x="57" y="353"/>
	  <point x="57" y="276" type="curve" smooth="yes"/>
	  <point x="57" y="152"/>
	  <point x="194" y="106"/>
	  <point x="194" y="2" type="curve" smooth="yes"/>
	  <point x="194" y="-45"/>
	  <point x="165" y="-89"/>
	  <point x="108" y="-129" type="curve"/>
	  <point x="329" y="-254" type="line"/>
	  <point x="391" y="-196"/>
	  <point x="436" y="-133"/>
	  <point x="436" y="-53" type="curve" smooth="yes"/>
	  <point x="436" y="-16"/>
	  <point x="428" y="17"/>
	  <point x="414" y="47" type="curve"/>
	  <point x="507" y="85"/>
	  <point x="563" y="140"/>
	  <point x="563" y="221" type="curve" smooth="yes"/>
	</contour>
	<contour>
	  <point x="408" y="164"/>
	  <point x="395" y="144"/>
	  <point x="359" y="119" type="curve"/>
	  <point x="295" y="189"/>
	  <point x="212" y="241"/>
	  <point x="212" y="307" type="curve" smooth="yes"/>
	  <point x="212" y="331"/>
	  <point x="223" y="350"/>
	  <point x="262" y="377" type="curve"/>
	  <point x="328" y="302"/>
	  <point x="408" y="254"/>
	  <point x="408" y="189" type="curve" smooth="yes"/>
	</contour>
  </outline>
</glyph>
<glyph name="dieresis" format="1">
  <advance width="438"/>
  <unicode hex="00A8"/>
  <outline>
	<contour>
	  <point x="38" y="611"/>
	  <point x="73" y="573"/>
	  <point x="114" y="573" type="curve" smooth="yes"/>
	  <point x="155" y="573"/>
	  <point x="190" y="611"/>
	  <point x="190" y="657" type="curve" smooth="yes"/>
	  <point x="190" y="703"/>
	  <point x="155" y="741"/>
	  <point x="114" y="741" type="curve" smooth="yes"/>
	  <point x="73" y="741"/>
	  <point x="38" y="703"/>
	  <point x="38" y="657" type="curve" smooth="yes"/>
	</contour>
	<contour>
	  <point x="248" y="611"/>
	  <point x="283" y="573"/>
	  <point x="324" y="573" type="curve" smooth="yes"/>
	  <point x="365" y="573"/>
	  <point x="400" y="611"/>
	  <point x="400" y="657" type="curve" smooth="yes"/>
	  <point x="400" y="703"/>
	  <point x="365" y="741"/>
	  <point x="324" y="741" type="curve" smooth="yes"/>
	  <point x="283" y="741"/>
	  <point x="248" y="703"/>
	  <point x="248" y="657" type="curve" smooth="yes"/>
	</contour>
  </outline>
</glyph>
<glyph name="copyright" format="1">
  <advance width="850"/>
  <unicode hex="00A9"/>
  <outline>
	<contour>
	  <point x="100" y="700" type="line"/>
	  <point x="100" y="239"/>
	  <point x="250" y="108"/>
	  <point x="435" y="108" type="curve" smooth="yes"/>
	  <point x="620" y="108"/>
	  <point x="770" y="284"/>
	  <point x="770" y="502" type="curve" smooth="yes"/>
	  <point x="770" y="655"/>
	  <point x="694" y="785"/>
	  <point x="460" y="785" type="curve" smooth="yes"/>
	  <point x="370" y="785"/>
	  <point x="256" y="766"/>
	  <point x="114" y="719" type="curve"/>
	</contour>
	<contour>
	  <point x="664" y="745"/>
	  <point x="730" y="633"/>
	  <point x="730" y="502" type="curve" smooth="yes"/>
	  <point x="730" y="306"/>
	  <point x="598" y="148"/>
	  <point x="435" y="148" type="curve" smooth="yes"/>
	  <point x="274" y="148"/>
	  <point x="143" y="268"/>
	  <point x="140" y="685" type="curve"/>
	  <point x="271" y="727"/>
	  <point x="377" y="745"/>
	  <point x="460" y="745" type="curve" smooth="yes"/>
	</contour>
	<contour>
	  <point x="427" y="693" type="line"/>
	  <point x="366" y="652"/>
	  <point x="299" y="538"/>
	  <point x="299" y="396" type="curve" smooth="yes"/>
	  <point x="299" y="364"/>
	  <point x="302" y="331"/>
	  <point x="309" y="297" type="curve"/>
	  <point x="337" y="273"/>
	  <point x="393" y="256"/>
	  <point x="457" y="256" type="curve" smooth="yes"/>
	  <point x="491" y="256"/>
	  <point x="526" y="260"/>
	  <point x="563" y="272" type="curve"/>
	  <point x="541" y="341" type="line"/>
	  <point x="498" y="325"/>
	  <point x="457" y="320"/>
	  <point x="419" y="320" type="curve" smooth="yes"/>
	  <point x="400" y="320"/>
	  <point x="383" y="320"/>
	  <point x="366" y="323" type="curve"/>
	  <point x="367" y="430"/>
	  <point x="437" y="546"/>
	  <point x="548" y="617" type="curve"/>
	</contour>
  </outline>
</glyph>
<glyph name="ordfeminine" format="1">
  <advance width="408"/>
  <unicode hex="00AA"/>
  <outline>
	<contour>
	  <point x="259" y="391" type="line"/>
	  <point x="323" y="396" type="line"/>
	  <point x="341" y="570"/>
	  <point x="341" y="577"/>
	  <point x="341" y="583" type="curve" smooth="yes"/>
	  <point x="341" y="671"/>
	  <point x="283" y="709"/>
	  <point x="195" y="709" type="curve" smooth="yes"/>
	  <point x="150" y="709"/>
	  <point x="104" y="698"/>
	  <point x="77" y="688" type="curve"/>
	  <point x="105" y="595" type="line"/>
	  <point x="130" y="609"/>
	  <point x="154" y="616"/>
	  <point x="173" y="616" type="curve" smooth="yes"/>
	  <point x="210" y="616"/>
	  <point x="242" y="595"/>
	  <point x="242" y="559" type="curve"/>
	  <point x="222" y="562"/>
	  <point x="203" y="562"/>
	  <point x="186" y="562" type="curve" smooth="yes"/>
	  <point x="77" y="562"/>
	  <point x="49" y="536"/>
	  <point x="49" y="487" type="curve" smooth="yes"/>
	  <point x="49" y="447"/>
	  <point x="68" y="406"/>
	  <point x="96" y="387" type="curve"/>
	  <point x="101" y="386"/>
	  <point x="106" y="386"/>
	  <point x="111" y="386" type="curve" smooth="yes"/>
	  <point x="169" y="386"/>
	  <point x="218" y="417"/>
	  <point x="245" y="466" type="curve"/>
	  <point x="251" y="466" type="line"/>
	</contour>
	<contour>
	  <point x="322" y="296" type="line"/>
	  <point x="332" y="349" type="line"/>
	  <point x="60" y="349" type="line"/>
	  <point x="50" y="269" type="line"/>
	</contour>
	<contour>
	  <point x="227" y="476"/>
	  <point x="182" y="463"/>
	  <point x="156" y="458" type="curve"/>
	  <point x="152" y="464"/>
	  <point x="148" y="481"/>
	  <point x="148" y="494" type="curve" smooth="yes"/>
	  <point x="148" y="507"/>
	  <point x="151" y="517"/>
	  <point x="155" y="524" type="curve"/>
	  <point x="173" y="527"/>
	  <point x="190" y="528"/>
	  <point x="206" y="528" type="curve" smooth="yes"/>
	  <point x="219" y="528"/>
	  <point x="237" y="527"/>
	  <point x="244" y="526" type="curve"/>
	</contour>
  </outline>
</glyph>
<glyph name="guillemotleft" format="1">
  <advance width="718"/>
  <unicode hex="00AB"/>
  <outline>
	<contour>
	  <point x="70" y="271" type="line"/>
	  <point x="77" y="196" type="line"/>
	  <point x="263" y="21" type="line"/>
	  <point x="348" y="66" type="line"/>
	  <point x="218" y="243" type="line"/>
	  <point x="323" y="421" type="line"/>
	  <point x="232" y="466" type="line"/>
	</contour>
	<contour>
	  <point x="517" y="244" type="line"/>
	  <point x="623" y="421" type="line"/>
	  <point x="532" y="466" type="line"/>
	  <point x="370" y="271" type="line"/>
	  <point x="377" y="196" type="line"/>
	  <point x="563" y="21" type="line"/>
	  <point x="648" y="66" type="line"/>
	</contour>
  </outline>
</glyph>
<glyph name="logicalnot" format="1">
  <advance width="612"/>
  <unicode hex="00AC"/>
  <outline>
	<contour>
	  <point x="413" y="81" type="line"/>
	  <point x="512" y="90" type="line"/>
	  <point x="512" y="369" type="line"/>
	  <point x="90" y="369" type="line"/>
	  <point x="80" y="259" type="line"/>
	  <point x="430" y="281" type="line"/>
	</contour>
  </outline>
</glyph>
<glyph name="registered" format="1">
  <advance width="850"/>
  <unicode hex="00AE"/>
  <outline>
	<contour>
	  <point x="100" y="700" type="line"/>
	  <point x="100" y="239"/>
	  <point x="250" y="108"/>
	  <point x="435" y="108" type="curve" smooth="yes"/>
	  <point x="620" y="108"/>
	  <point x="770" y="284"/>
	  <point x="770" y="502" type="curve" smooth="yes"/>
	  <point x="770" y="655"/>
	  <point x="694" y="785"/>
	  <point x="460" y="785" type="curve" smooth="yes"/>
	  <point x="370" y="785"/>
	  <point x="256" y="766"/>
	  <point x="114" y="719" type="curve"/>
	</contour>
	<contour>
	  <point x="664" y="745"/>
	  <point x="730" y="633"/>
	  <point x="730" y="502" type="curve" smooth="yes"/>
	  <point x="730" y="306"/>
	  <point x="598" y="148"/>
	  <point x="435" y="148" type="curve" smooth="yes"/>
	  <point x="274" y="148"/>
	  <point x="143" y="268"/>
	  <point x="140" y="685" type="curve"/>
	  <point x="271" y="727"/>
	  <point x="377" y="745"/>
	  <point x="460" y="745" type="curve" smooth="yes"/>
	</contour>
	<contour>
	  <point x="307" y="262" type="line"/>
	  <point x="373" y="268" type="line"/>
	  <point x="388" y="418" type="line"/>
	  <point x="402" y="421" type="line"/>
	  <point x="564" y="246" type="line"/>
	  <point x="609" y="273" type="line"/>
	  <point x="578" y="334"/>
	  <point x="541" y="400"/>
	  <point x="509" y="461" type="curve"/>
	  <point x="562" y="491"/>
	  <point x="595" y="534"/>
	  <point x="595" y="587" type="curve" smooth="yes"/>
	  <point x="595" y="604"/>
	  <point x="592" y="626"/>
	  <point x="584" y="649" type="curve"/>
	  <point x="550" y="669"/>
	  <point x="505" y="677"/>
	  <point x="460" y="677" type="curve" smooth="yes"/>
	  <point x="390" y="677"/>
	  <point x="311" y="661"/>
	  <point x="274" y="649" type="curve"/>
	</contour>
	<contour>
	  <point x="463" y="617"/>
	  <point x="475" y="594"/>
	  <point x="475" y="571" type="curve" smooth="yes"/>
	  <point x="475" y="533"/>
	  <point x="445" y="489"/>
	  <point x="393" y="463" type="curve"/>
	  <point x="410" y="628" type="line"/>
	  <point x="420" y="631"/>
	  <point x="429" y="633"/>
	  <point x="438" y="633" type="curve"/>
	</contour>
  </outline>
</glyph>
<glyph name="macron" format="1">
  <advance width="382"/>
  <unicode hex="00AF"/>
  <outline>
	<contour>
	  <point x="338" y="611" type="line"/>
	  <point x="345" y="703" type="line"/>
	  <point x="84" y="703" type="line"/>
	  <point x="77" y="584" type="line"/>
	</contour>
  </outline>
</glyph>
<glyph name="degree" format="1">
  <advance width="390"/>
  <unicode hex="00B0"/>
  <outline>
	<contour>
	  <point x="219" y="637"/>
	  <point x="230" y="636"/>
	  <point x="238" y="634" type="curve"/>
	  <point x="252" y="616"/>
	  <point x="265" y="586"/>
	  <point x="265" y="557" type="curve" smooth="yes"/>
	  <point x="265" y="507"/>
	  <point x="224" y="486"/>
	  <point x="182" y="486" type="curve" smooth="yes"/>
	  <point x="170" y="486"/>
	  <point x="159" y="488"/>
	  <point x="151" y="490" type="curve"/>
	  <point x="136" y="508"/>
	  <point x="123" y="537"/>
	  <point x="123" y="567" type="curve" smooth="yes"/>
	  <point x="123" y="616"/>
	  <point x="167" y="637"/>
	  <point x="207" y="637" type="curve" smooth="yes"/>
	</contour>
	<contour>
	  <point x="50" y="488"/>
	  <point x="89" y="425"/>
	  <point x="195" y="425" type="curve" smooth="yes"/>
	  <point x="301" y="425"/>
	  <point x="340" y="488"/>
	  <point x="340" y="562" type="curve" smooth="yes"/>
	  <point x="340" y="636"/>
	  <point x="301" y="699"/>
	  <point x="195" y="699" type="curve" smooth="yes"/>
	  <point x="89" y="699"/>
	  <point x="50" y="636"/>
	  <point x="50" y="562" type="curve" smooth="yes"/>
	</contour>
  </outline>
</glyph>
<glyph name="acute" format="1">
  <advance width="438"/>
  <unicode hex="00B4"/>
  <outline>
	<contour>
	  <point x="130" y="631" type="line"/>
	  <point x="164" y="563" type="line"/>
	  <point x="368" y="628" type="line"/>
	  <point x="308" y="753" type="line"/>
	</contour>
  </outline>
</glyph>
<glyph name="mu" format="1">
  <advance width="690"/>
  <unicode hex="00B5"/>
  <outline>
	<contour>
	  <point x="252" y="507" type="line"/>
	  <point x="65" y="492" type="line"/>
	  <point x="65" y="271"/>
	  <point x="103" y="12"/>
	  <point x="164" y="-229" type="curve"/>
	  <point x="252" y="-209" type="line"/>
	  <point x="252" y="-16" type="line"/>
	  <point x="327" y="3"/>
	  <point x="388" y="62"/>
	  <point x="430" y="175" type="curve"/>
	  <point x="437" y="175" type="line"/>
	  <point x="457" y="-15" type="line"/>
	  <point x="556" y="-6" type="line"/>
	  <point x="620" y="513" type="line"/>
	  <point x="406" y="480" type="line"/>
	  <point x="413" y="437"/>
	  <point x="416" y="396"/>
	  <point x="416" y="357" type="curve" smooth="yes"/>
	  <point x="416" y="191"/>
	  <point x="358" y="77"/>
	  <point x="252" y="53" type="curve"/>
	</contour>
  </outline>
</glyph>
<glyph name="paragraph" format="1">
  <advance width="632"/>
  <unicode hex="00B6"/>
  <outline>
	<contour>
	  <point x="415" y="382" type="line"/>
	  <point x="371" y="217"/>
	  <point x="274" y="59"/>
	  <point x="141" y="-47" type="curve"/>
	  <point x="324" y="-200" type="line"/>
	  <point x="424" y="-117"/>
	  <point x="542" y="120"/>
	  <point x="542" y="417" type="curve" smooth="yes"/>
	  <point x="542" y="482"/>
	  <point x="537" y="550"/>
	  <point x="525" y="624" type="curve"/>
	  <point x="480" y="670"/>
	  <point x="395" y="705"/>
	  <point x="301" y="705" type="curve" smooth="yes"/>
	  <point x="130" y="705"/>
	  <point x="80" y="625"/>
	  <point x="80" y="470" type="curve" smooth="yes"/>
	  <point x="80" y="379"/>
	  <point x="120" y="307"/>
	  <point x="174" y="271" type="curve"/>
	  <point x="193" y="264"/>
	  <point x="213" y="262"/>
	  <point x="231" y="262" type="curve" smooth="yes"/>
	  <point x="302" y="262"/>
	  <point x="364" y="306"/>
	  <point x="403" y="390" type="curve"/>
	</contour>
  </outline>
</glyph>
<glyph name="cedilla" format="1">
  <advance width="460"/>
  <unicode hex="00B8"/>
  <outline>
	<contour>
	  <point x="124" y="-187" type="line"/>
	  <point x="161" y="-201"/>
	  <point x="208" y="-208"/>
	  <point x="238" y="-208" type="curve" smooth="yes"/>
	  <point x="288" y="-208"/>
	  <point x="384" y="-187"/>
	  <point x="384" y="-108" type="curve" smooth="yes"/>
	  <point x="384" y="-38"/>
	  <point x="304" y="9"/>
	  <point x="242" y="44" type="curve"/>
	  <point x="214" y="-6" type="line"/>
	  <point x="276" y="-38"/>
	  <point x="307" y="-71"/>
	  <point x="323" y="-104" type="curve"/>
	  <point x="301" y="-113"/>
	  <point x="287" y="-117"/>
	  <point x="262" y="-117" type="curve" smooth="yes"/>
	  <point x="225" y="-117"/>
	  <point x="197" y="-108"/>
	  <point x="158" y="-91" type="curve"/>
	</contour>
  </outline>
</glyph>
<glyph name="ordmasculine" format="1">
  <advance width="413"/>
  <unicode hex="00BA"/>
  <outline>
	<contour>
	  <point x="188" y="814" type="line"/>
	  <point x="128" y="775"/>
	  <point x="64" y="667"/>
	  <point x="64" y="525" type="curve" smooth="yes"/>
	  <point x="64" y="494"/>
	  <point x="67" y="461"/>
	  <point x="74" y="427" type="curve"/>
	  <point x="101" y="403"/>
	  <point x="145" y="386"/>
	  <point x="209" y="386" type="curve" smooth="yes"/>
	  <point x="328" y="386"/>
	  <point x="353" y="433"/>
	  <point x="353" y="525" type="curve" smooth="yes"/>
	  <point x="353" y="668"/>
	  <point x="281" y="778"/>
	  <point x="191" y="815" type="curve"/>
	</contour>
	<contour>
	  <point x="276" y="522"/>
	  <point x="273" y="497"/>
	  <point x="265" y="462" type="curve"/>
	  <point x="240" y="453"/>
	  <point x="207" y="449"/>
	  <point x="175" y="449" type="curve" smooth="yes"/>
	  <point x="161" y="449"/>
	  <point x="144" y="449"/>
	  <point x="130" y="452" type="curve"/>
	  <point x="131" y="538"/>
	  <point x="174" y="633"/>
	  <point x="247" y="704" type="curve"/>
	  <point x="266" y="663"/>
	  <point x="276" y="611"/>
	  <point x="276" y="552" type="curve" smooth="yes"/>
	</contour>
	<contour>
	  <point x="332" y="296" type="line"/>
	  <point x="342" y="349" type="line"/>
	  <point x="70" y="349" type="line"/>
	  <point x="60" y="269" type="line"/>
	</contour>
  </outline>
</glyph>
<glyph name="guillemotright" format="1">
  <advance width="718"/>
  <unicode hex="00BB"/>
  <outline>
	<contour>
	  <point x="648" y="216" type="line"/>
	  <point x="641" y="291" type="line"/>
	  <point x="455" y="466" type="line"/>
	  <point x="370" y="421" type="line"/>
	  <point x="500" y="244" type="line"/>
	  <point x="395" y="66" type="line"/>
	  <point x="486" y="21" type="line"/>
	</contour>
	<contour>
	  <point x="201" y="243" type="line"/>
	  <point x="95" y="66" type="line"/>
	  <point x="186" y="21" type="line"/>
	  <point x="348" y="216" type="line"/>
	  <point x="341" y="291" type="line"/>
	  <point x="155" y="466" type="line"/>
	  <point x="70" y="421" type="line"/>
	</contour>
  </outline>
</glyph>
<glyph name="AE" format="1">
  <advance width="880"/>
  <unicode hex="00C6"/>
  <outline>
	<contour>
	  <point x="787" y="277" type="line"/>
	  <point x="782" y="367" type="line"/>
	  <point x="516" y="364" type="line"/>
	  <point x="477" y="558" type="line"/>
	  <point x="806" y="597" type="line"/>
	  <point x="809" y="664" type="line"/>
	  <point x="428" y="652" type="line"/>
	  <point x="217" y="665" type="line"/>
	  <point x="30" y="0" type="line"/>
	  <point x="130" y="-15" type="line"/>
	  <point x="164" y="129" type="line"/>
	  <point x="430" y="151" type="line"/>
	  <point x="496" y="-9" type="line"/>
	  <point x="806" y="0" type="line"/>
	  <point x="810" y="103" type="line"/>
	  <point x="575" y="69" type="line"/>
	  <point x="529" y="296" type="line"/>
	</contour>
	<contour>
	  <point x="264" y="552" type="line"/>
	  <point x="408" y="204" type="line"/>
	  <point x="182" y="206" type="line"/>
	</contour>
  </outline>
</glyph>
<glyph name="multiply" format="1">
  <advance width="612"/>
  <unicode hex="00D7"/>
  <outline>
	<contour>
	  <point x="460" y="120" type="line"/>
	  <point x="526" y="172" type="line"/>
	  <point x="372" y="326" type="line"/>
	  <point x="500" y="468" type="line"/>
	  <point x="448" y="534" type="line"/>
	  <point x="306" y="392" type="line"/>
	  <point x="171" y="527" type="line"/>
	  <point x="86" y="456" type="line"/>
	  <point x="235" y="321" type="line"/>
	  <point x="93" y="179" type="line"/>
	  <point x="164" y="94" type="line"/>
	  <point x="309" y="255" type="line"/>
	</contour>
  </outline>
</glyph>
<glyph name="Oslash" format="1">
  <advance width="589"/>
  <unicode hex="00D8"/>
  <outline>
	<contour>
	  <point x="471" y="719" type="line"/>
	  <point x="405" y="734" type="line"/>
	  <point x="176" y="-111" type="line"/>
	  <point x="242" y="-126" type="line"/>
	</contour>
	<component base="O"/>
  </outline>
</glyph>
<glyph name="Thorn" format="1">
  <advance width="629"/>
  <unicode hex="00DE"/>
  <outline>
	<contour>
	  <point x="155" y="-14" type="line"/>
	  <point x="255" y="-4" type="line"/>
	  <point x="265" y="97" type="line"/>
	  <point x="456" y="137"/>
	  <point x="619" y="237"/>
	  <point x="619" y="404" type="curve" smooth="yes"/>
	  <point x="619" y="437"/>
	  <point x="613" y="471"/>
	  <point x="601" y="507" type="curve"/>
	  <point x="538" y="543"/>
	  <point x="482" y="562"/>
	  <point x="413" y="562" type="curve" smooth="yes"/>
	  <point x="383" y="562"/>
	  <point x="350" y="558"/>
	  <point x="314" y="551" type="curve"/>
	  <point x="326" y="665" type="line"/>
	  <point x="98" y="630" type="line"/>
	</contour>
	<contour>
	  <point x="406" y="464"/>
	  <point x="426" y="422"/>
	  <point x="426" y="375" type="curve" smooth="yes"/>
	  <point x="426" y="298"/>
	  <point x="371" y="209"/>
	  <point x="272" y="162" type="curve"/>
	  <point x="306" y="479" type="line"/>
	  <point x="326" y="486"/>
	  <point x="345" y="490"/>
	  <point x="363" y="490" type="curve"/>
	</contour>
  </outline>
</glyph>
<glyph name="germandbls" format="1">
  <advance width="741"/>
  <unicode hex="00DF"/>
  <outline>
	<contour>
	  <point x="522" y="371" type="line"/>
	  <point x="613" y="442"/>
	  <point x="646" y="558"/>
	  <point x="646" y="625" type="curve" smooth="yes"/>
	  <point x="646" y="642"/>
	  <point x="643" y="659"/>
	  <point x="637" y="677" type="curve"/>
	  <point x="581" y="712"/>
	  <point x="485" y="725"/>
	  <point x="410" y="725" type="curve" smooth="yes"/>
	  <point x="256" y="725"/>
	  <point x="104" y="656"/>
	  <point x="104" y="463" type="curve"/>
	  <point x="20" y="459" type="line"/>
	  <point x="20" y="356" type="line"/>
	  <point x="112" y="369" type="line"/>
	  <point x="151" y="-15" type="line"/>
	  <point x="250" y="-6" type="line"/>
	  <point x="255" y="38" type="line"/>
	  <point x="329" y="-7"/>
	  <point x="397" y="-24"/>
	  <point x="460" y="-24" type="curve" smooth="yes"/>
	  <point x="631" y="-24"/>
	  <point x="701" y="40"/>
	  <point x="701" y="164" type="curve" smooth="yes"/>
	  <point x="701" y="266"/>
	  <point x="669" y="317"/>
	  <point x="621" y="364" type="curve"/>
	  <point x="608" y="366"/>
	  <point x="593" y="370"/>
	  <point x="571" y="370" type="curve" smooth="yes"/>
	  <point x="558" y="370"/>
	  <point x="543" y="369"/>
	  <point x="524" y="365" type="curve"/>
	</contour>
	<contour>
	  <point x="389" y="261" type="line"/>
	  <point x="431" y="287"/>
	  <point x="477" y="307"/>
	  <point x="509" y="315" type="curve"/>
	  <point x="524" y="283"/>
	  <point x="532" y="231"/>
	  <point x="532" y="179" type="curve" smooth="yes"/>
	  <point x="532" y="131"/>
	  <point x="526" y="84"/>
	  <point x="512" y="52" type="curve"/>
	  <point x="435" y="55"/>
	  <point x="348" y="73"/>
	  <point x="265" y="125" type="curve"/>
	  <point x="299" y="492" type="line" smooth="yes"/>
	  <point x="307" y="574"/>
	  <point x="330" y="647"/>
	  <point x="409" y="660" type="curve"/>
	  <point x="461" y="642"/>
	  <point x="485" y="591"/>
	  <point x="485" y="530" type="curve" smooth="yes"/>
	  <point x="485" y="449"/>
	  <point x="455" y="348"/>
	  <point x="368" y="287" type="curve"/>
	</contour>
  </outline>
</glyph>
<glyph name="ae" format="1">
  <advance width="859"/>
  <unicode hex="00E6"/>
  <outline>
	<contour>
	  <point x="333" y="116"/>
	  <point x="254" y="96"/>
	  <point x="210" y="89" type="curve"/>
	  <point x="200" y="99"/>
	  <point x="191" y="130"/>
	  <point x="191" y="153" type="curve" smooth="yes"/>
	  <point x="191" y="179"/>
	  <point x="199" y="196"/>
	  <point x="205" y="208" type="curve"/>
	  <point x="241" y="214"/>
	  <point x="271" y="215"/>
	  <point x="313" y="215" type="curve" smooth="yes"/>
	  <point x="331" y="215"/>
	  <point x="349" y="214"/>
	  <point x="366" y="214" type="curve"/>
	</contour>
	<contour>
	  <point x="444" y="-6"/>
	  <point x="525" y="-24"/>
	  <point x="629" y="-24" type="curve" smooth="yes"/>
	  <point x="682" y="-24"/>
	  <point x="739" y="-18"/>
	  <point x="793" y="-1" type="curve"/>
	  <point x="763" y="96" type="line"/>
	  <point x="696" y="72"/>
	  <point x="630" y="63"/>
	  <point x="567" y="63" type="curve" smooth="yes"/>
	  <point x="534" y="63"/>
	  <point x="495" y="65"/>
	  <point x="465" y="69" type="curve"/>
	  <point x="465" y="102"/>
	  <point x="471" y="135"/>
	  <point x="484" y="167" type="curve"/>
	  <point x="514" y="160"/>
	  <point x="559" y="156"/>
	  <point x="604" y="156" type="curve" smooth="yes"/>
	  <point x="765" y="156"/>
	  <point x="804" y="204"/>
	  <point x="804" y="298" type="curve" smooth="yes"/>
	  <point x="804" y="419"/>
	  <point x="671" y="497"/>
	  <point x="562" y="539" type="curve"/>
	  <point x="529" y="521"/>
	  <point x="496" y="491"/>
	  <point x="466" y="451" type="curve"/>
	  <point x="424" y="493"/>
	  <point x="358" y="512"/>
	  <point x="276" y="512" type="curve" smooth="yes"/>
	  <point x="202" y="512"/>
	  <point x="129" y="495"/>
	  <point x="85" y="477" type="curve"/>
	  <point x="129" y="332" type="line"/>
	  <point x="166" y="355"/>
	  <point x="205" y="365"/>
	  <point x="240" y="365" type="curve" smooth="yes"/>
	  <point x="302" y="365"/>
	  <point x="355" y="333"/>
	  <point x="360" y="278" type="curve" smooth="yes"/>
	  <point x="362" y="256" type="line"/>
	  <point x="325" y="261"/>
	  <point x="291" y="263"/>
	  <point x="262" y="263" type="curve" smooth="yes"/>
	  <point x="81" y="263"/>
	  <point x="35" y="222"/>
	  <point x="35" y="141" type="curve" smooth="yes"/>
	  <point x="35" y="76"/>
	  <point x="65" y="9"/>
	  <point x="110" y="-22" type="curve"/>
	  <point x="118" y="-23"/>
	  <point x="127" y="-23"/>
	  <point x="135" y="-23" type="curve" smooth="yes"/>
	  <point x="247" y="-23"/>
	  <point x="333" y="44"/>
	  <point x="375" y="147" type="curve"/>
	  <point x="377" y="114"/>
	  <point x="381" y="78"/>
	  <point x="390" y="35" type="curve"/>
	</contour>
	<contour>
	  <point x="678" y="350"/>
	  <point x="693" y="313"/>
	  <point x="693" y="265" type="curve" smooth="yes"/>
	  <point x="693" y="253"/>
	  <point x="692" y="240"/>
	  <point x="690" y="227" type="curve"/>
	  <point x="651" y="219"/>
	  <point x="597" y="213"/>
	  <point x="546" y="213" type="curve" smooth="yes"/>
	  <point x="532" y="213"/>
	  <point x="517" y="213"/>
	  <point x="504" y="214" type="curve"/>
	  <point x="540" y="277"/>
	  <point x="585" y="330"/>
	  <point x="660" y="380" type="curve"/>
	</contour>
  </outline>
</glyph>
<glyph name="eth" format="1">
  <advance width="585"/>
  <unicode hex="00F0"/>
  <outline>
	<contour>
	  <point x="344" y="51"/>
	  <point x="318" y="45"/>
	  <point x="292" y="45" type="curve" smooth="yes"/>
	  <point x="274" y="45"/>
	  <point x="256" y="48"/>
	  <point x="239" y="52" type="curve"/>
	  <point x="232" y="78"/>
	  <point x="224" y="111"/>
	  <point x="224" y="169" type="curve" smooth="yes"/>
	  <point x="224" y="217"/>
	  <point x="227" y="283"/>
	  <point x="239" y="304" type="curve"/>
	  <point x="280" y="290"/>
	  <point x="345" y="247"/>
	  <point x="375" y="66" type="curve"/>
	</contour>
	<contour>
	  <point x="373" y="228" type="line"/>
	  <point x="332" y="326"/>
	  <point x="266" y="377"/>
	  <point x="191" y="377" type="curve" smooth="yes"/>
	  <point x="172" y="377"/>
	  <point x="151" y="374"/>
	  <point x="131" y="367" type="curve"/>
	  <point x="83" y="320"/>
	  <point x="50" y="266"/>
	  <point x="50" y="164" type="curve" smooth="yes"/>
	  <point x="50" y="40"/>
	  <point x="100" y="-24"/>
	  <point x="271" y="-24" type="curve" smooth="yes"/>
	  <point x="365" y="-24"/>
	  <point x="450" y="4"/>
	  <point x="495" y="41" type="curve"/>
	  <point x="507" y="100"/>
	  <point x="512" y="155"/>
	  <point x="512" y="207" type="curve" smooth="yes"/>
	  <point x="512" y="444"/>
	  <point x="394" y="654"/>
	  <point x="294" y="720" type="curve"/>
	  <point x="142" y="619" type="line"/>
	  <point x="216" y="551"/>
	  <point x="349" y="366"/>
	  <point x="385" y="235" type="curve"/>
	</contour>
	<component base="eslash" xOffset="159" yOffset="141"/>
  </outline>
</glyph>
<glyph name="oslash" format="1">
  <advance width="538"/>
  <unicode hex="00F8"/>
  <outline>
	<contour>
	  <point x="426" y="649" type="line"/>
	  <point x="360" y="664" type="line"/>
	  <point x="131" y="-181" type="line"/>
	  <point x="197" y="-196" type="line"/>
	</contour>
	<component base="o"/>
  </outline>
</glyph>
<glyph name="thorn" format="1">
  <advance width="677"/>
  <unicode hex="00FE"/>
  <outline>
	<contour>
	  <point x="82" y="-217" type="line"/>
	  <point x="204" y="-208" type="line"/>
	  <point x="226" y="12" type="line"/>
	  <point x="269" y="-8"/>
	  <point x="325" y="-24"/>
	  <point x="386" y="-24" type="curve" smooth="yes"/>
	  <point x="544" y="-24"/>
	  <point x="594" y="54"/>
	  <point x="594" y="207" type="curve" smooth="yes"/>
	  <point x="594" y="332"/>
	  <point x="561" y="459"/>
	  <point x="513" y="517" type="curve"/>
	  <point x="501" y="521"/>
	  <point x="488" y="523"/>
	  <point x="476" y="523" type="curve" smooth="yes"/>
	  <point x="393" y="523"/>
	  <point x="315" y="434"/>
	  <point x="262" y="301" type="curve"/>
	  <point x="254" y="301" type="line"/>
	  <point x="296" y="716" type="line"/>
	  <point x="82" y="683" type="line"/>
	</contour>
	<contour>
	  <point x="275" y="359"/>
	  <point x="357" y="385"/>
	  <point x="405" y="404" type="curve"/>
	  <point x="415" y="375"/>
	  <point x="425" y="283"/>
	  <point x="425" y="216" type="curve" smooth="yes"/>
	  <point x="425" y="135"/>
	  <point x="417" y="88"/>
	  <point x="410" y="52" type="curve"/>
	  <point x="393" y="43"/>
	  <point x="371" y="38"/>
	  <point x="347" y="38" type="curve" smooth="yes"/>
	  <point x="310" y="38"/>
	  <point x="269" y="50"/>
	  <point x="239" y="74" type="curve"/>
	</contour>
  </outline>
</glyph>
<glyph name="dotlessi" format="1">
  <advance width="354"/>
  <unicode hex="0131"/>
  <outline>
	<contour>
	  <point x="121" y="-15" type="line"/>
	  <point x="220" y="-6" type="line"/>
	  <point x="284" y="513" type="line"/>
	  <point x="70" y="480" type="line"/>
	</contour>
  </outline>
</glyph>
<glyph name="kgreenlandic" format="1">
  <advance width="598"/>
  <unicode hex="0138"/>
  <outline>
	<contour>
	  <point x="121" y="-15" type="line"/>
	  <point x="220" y="-6" type="line"/>
	  <point x="244" y="188" type="line"/>
	  <point x="273" y="219" type="line"/>
	  <point x="398" y="-15" type="line"/>
	  <point x="588" y="-2" type="line"/>
	  <point x="371" y="322" type="line"/>
	  <point x="526" y="484" type="line"/>
	  <point x="459" y="536" type="line"/>
	  <point x="257" y="298" type="line"/>
	  <point x="284" y="513" type="line"/>
	  <point x="70" y="480" type="line"/>
	</contour>
  </outline>
</glyph>
<glyph name="Eng" format="1">
  <advance width="692"/>
  <unicode hex="014A"/>
  <outline>
	<contour>
	  <point x="642" y="660" type="line"/>
	  <point x="542" y="655" type="line"/>
	  <point x="531" y="163" type="line"/>
	  <point x="525" y="163" type="line"/>
	  <point x="349" y="665" type="line"/>
	  <point x="107" y="650" type="line"/>
	  <point x="80" y="-5" type="line"/>
	  <point x="180" y="0" type="line"/>
	  <point x="177" y="519" type="line"/>
	  <point x="185" y="519" type="line"/>
	  <point x="408" y="151" type="line"/>
	  <point x="454" y="74"/>
	  <point x="480" y="6"/>
	  <point x="480" y="-45" type="curve" smooth="yes"/>
	  <point x="480" y="-100"/>
	  <point x="449" y="-134"/>
	  <point x="383" y="-134" type="curve" smooth="yes"/>
	  <point x="362" y="-134"/>
	  <point x="339" y="-128"/>
	  <point x="314" y="-120" type="curve"/>
	  <point x="296" y="-174" type="line"/>
	  <point x="337" y="-195"/>
	  <point x="381" y="-208"/>
	  <point x="423" y="-208" type="curve" smooth="yes"/>
	  <point x="507" y="-208"/>
	  <point x="588" y="-158"/>
	  <point x="598" y="-7" type="curve"/>
	</contour>
  </outline>
</glyph>
<glyph name="eng" format="1">
  <advance width="660"/>
  <unicode hex="014B"/>
  <outline>
	<contour>
	  <point x="589" y="157"/>
	  <point x="578" y="423"/>
	  <point x="500" y="517" type="curve"/>
	  <point x="488" y="521"/>
	  <point x="475" y="523"/>
	  <point x="463" y="523" type="curve" smooth="yes"/>
	  <point x="388" y="523"/>
	  <point x="318" y="451"/>
	  <point x="266" y="338" type="curve"/>
	  <point x="257" y="338" type="line"/>
	  <point x="279" y="514" type="line"/>
	  <point x="65" y="481" type="line"/>
	  <point x="116" y="-15" type="line"/>
	  <point x="215" y="-6" type="line"/>
	  <point x="255" y="324"/>
	  <point x="340" y="385"/>
	  <point x="392" y="404" type="curve"/>
	  <point x="402" y="290"/>
	  <point x="410" y="3"/>
	  <point x="410" y="-48" type="curve" smooth="yes"/>
	  <point x="410" y="-103"/>
	  <point x="390" y="-136"/>
	  <point x="339" y="-136" type="curve" smooth="yes"/>
	  <point x="322" y="-136"/>
	  <point x="292" y="-129"/>
	  <point x="272" y="-115" type="curve"/>
	  <point x="242" y="-166" type="line"/>
	  <point x="282" y="-198"/>
	  <point x="323" y="-211"/>
	  <point x="387" y="-211" type="curve" smooth="yes"/>
	  <point x="440" y="-211"/>
	  <point x="589" y="-186"/>
	  <point x="589" y="24" type="curve" smooth="yes"/>
	</contour>
  </outline>
</glyph>
<glyph name="OE" format="1">
  <advance width="848"/>
  <unicode hex="0152"/>
  <outline>
	<contour>
	  <point x="774" y="0" type="line"/>
	  <point x="778" y="103" type="line"/>
	  <point x="502" y="71" type="line"/>
	  <point x="529" y="294" type="line"/>
	  <point x="755" y="277" type="line"/>
	  <point x="750" y="367" type="line"/>
	  <point x="537" y="365" type="line"/>
	  <point x="563" y="572" type="line"/>
	  <point x="774" y="597" type="line"/>
	  <point x="777" y="664" type="line"/>
	  <point x="338" y="650" type="line"/>
	  <point x="316" y="666"/>
	  <point x="292" y="680"/>
	  <point x="268" y="690" type="curve"/>
	  <point x="168" y="624"/>
	  <point x="60" y="444"/>
	  <point x="60" y="207" type="curve" smooth="yes"/>
	  <point x="60" y="155"/>
	  <point x="65" y="100"/>
	  <point x="77" y="41" type="curve"/>
	  <point x="122" y="4"/>
	  <point x="194" y="-24"/>
	  <point x="300" y="-24" type="curve" smooth="yes"/>
	  <point x="351" y="-24"/>
	  <point x="392" y="-18"/>
	  <point x="424" y="-8" type="curve"/>
	</contour>
	<contour>
	  <point x="161" y="222"/>
	  <point x="229" y="379"/>
	  <point x="347" y="497" type="curve"/>
	  <point x="376" y="89" type="line"/>
	  <point x="336" y="79"/>
	  <point x="288" y="72"/>
	  <point x="242" y="72" type="curve" smooth="yes"/>
	  <point x="213" y="72"/>
	  <point x="185" y="75"/>
	  <point x="161" y="80" type="curve"/>
	</contour>
  </outline>
</glyph>
<glyph name="oe" format="1">
  <advance width="856"/>
  <unicode hex="0153"/>
  <outline>
	<contour>
	  <point x="372" y="169"/>
	  <point x="367" y="126"/>
	  <point x="356" y="84" type="curve"/>
	  <point x="317" y="71"/>
	  <point x="262" y="63"/>
	  <point x="212" y="63" type="curve" smooth="yes"/>
	  <point x="187" y="63"/>
	  <point x="162" y="65"/>
	  <point x="141" y="69" type="curve"/>
	  <point x="141" y="191"/>
	  <point x="220" y="326"/>
	  <point x="332" y="385" type="curve"/>
	  <point x="359" y="332"/>
	  <point x="372" y="273"/>
	  <point x="372" y="211" type="curve" smooth="yes"/>
	</contour>
	<contour>
	  <point x="470" y="-11"/>
	  <point x="540" y="-24"/>
	  <point x="626" y="-24" type="curve" smooth="yes"/>
	  <point x="679" y="-24"/>
	  <point x="736" y="-18"/>
	  <point x="790" y="-1" type="curve"/>
	  <point x="760" y="96" type="line"/>
	  <point x="693" y="72"/>
	  <point x="627" y="63"/>
	  <point x="564" y="63" type="curve" smooth="yes"/>
	  <point x="531" y="63"/>
	  <point x="492" y="65"/>
	  <point x="462" y="69" type="curve"/>
	  <point x="462" y="102"/>
	  <point x="468" y="135"/>
	  <point x="481" y="167" type="curve"/>
	  <point x="511" y="160"/>
	  <point x="556" y="156"/>
	  <point x="601" y="156" type="curve" smooth="yes"/>
	  <point x="762" y="156"/>
	  <point x="801" y="204"/>
	  <point x="801" y="298" type="curve" smooth="yes"/>
	  <point x="801" y="419"/>
	  <point x="668" y="497"/>
	  <point x="559" y="539" type="curve"/>
	  <point x="510" y="512"/>
	  <point x="459" y="458"/>
	  <point x="423" y="385" type="curve"/>
	  <point x="374" y="454"/>
	  <point x="304" y="504"/>
	  <point x="238" y="539" type="curve"/>
	  <point x="178" y="509"/>
	  <point x="50" y="371"/>
	  <point x="50" y="184" type="curve" smooth="yes"/>
	  <point x="50" y="137"/>
	  <point x="54" y="87"/>
	  <point x="65" y="34" type="curve"/>
	  <point x="106" y="1"/>
	  <point x="171" y="-24"/>
	  <point x="266" y="-24" type="curve" smooth="yes"/>
	  <point x="338" y="-24"/>
	  <point x="384" y="-7"/>
	  <point x="418" y="16" type="curve"/>
	</contour>
	<contour>
	  <point x="675" y="350"/>
	  <point x="690" y="313"/>
	  <point x="690" y="265" type="curve" smooth="yes"/>
	  <point x="690" y="253"/>
	  <point x="689" y="240"/>
	  <point x="687" y="227" type="curve"/>
	  <point x="648" y="219"/>
	  <point x="594" y="213"/>
	  <point x="543" y="213" type="curve" smooth="yes"/>
	  <point x="529" y="213"/>
	  <point x="514" y="213"/>
	  <point x="501" y="214" type="curve"/>
	  <point x="537" y="277"/>
	  <point x="582" y="330"/>
	  <point x="657" y="380" type="curve"/>
	</contour>
  </outline>
</glyph>
<glyph name="Scedilla" format="1">
  <advance width="431"/>
  <unicode hex="015E"/>
  <outline>
	<contour>
	  <point x="59" y="-187" type="line"/>
	  <point x="96" y="-201"/>
	  <point x="143" y="-208"/>
	  <point x="173" y="-208" type="curve" smooth="yes"/>
	  <point x="223" y="-208"/>
	  <point x="319" y="-187"/>
	  <point x="319" y="-108" type="curve" smooth="yes"/>
	  <point x="319" y="-64"/>
	  <point x="287" y="-28"/>
	  <point x="248" y="0" type="curve"/>
	  <point x="317" y="44"/>
	  <point x="359" y="102"/>
	  <point x="359" y="179" type="curve" smooth="yes"/>
	  <point x="359" y="263"/>
	  <point x="258" y="324"/>
	  <point x="258" y="413" type="curve" smooth="yes"/>
	  <point x="258" y="478"/>
	  <point x="310" y="533"/>
	  <point x="382" y="578" type="curve"/>
	  <point x="199" y="700" type="line"/>
	  <point x="112" y="631"/>
	  <point x="49" y="550"/>
	  <point x="49" y="440" type="curve" smooth="yes"/>
	  <point x="49" y="292"/>
	  <point x="198" y="221"/>
	  <point x="198" y="126" type="curve" smooth="yes"/>
	  <point x="198" y="90"/>
	  <point x="179" y="53"/>
	  <point x="111" y="15" type="curve"/>
	  <point x="176" y="-17"/>
	  <point x="239" y="-57"/>
	  <point x="258" y="-104" type="curve"/>
	  <point x="236" y="-113"/>
	  <point x="222" y="-117"/>
	  <point x="197" y="-117" type="curve" smooth="yes"/>
	  <point x="160" y="-117"/>
	  <point x="132" y="-108"/>
	  <point x="93" y="-91" type="curve"/>
	</contour>
  </outline>
</glyph>
<glyph name="scedilla" format="1">
  <advance width="419"/>
  <unicode hex="015F"/>
  <outline>
	<contour>
	  <point x="80" y="-187" type="line"/>
	  <point x="117" y="-201"/>
	  <point x="164" y="-208"/>
	  <point x="194" y="-208" type="curve" smooth="yes"/>
	  <point x="244" y="-208"/>
	  <point x="340" y="-187"/>
	  <point x="340" y="-108" type="curve" smooth="yes"/>
	  <point x="340" y="-69"/>
	  <point x="316" y="-37"/>
	  <point x="283" y="-11" type="curve"/>
	  <point x="320" y="20"/>
	  <point x="339" y="57"/>
	  <point x="339" y="115" type="curve" smooth="yes"/>
	  <point x="339" y="186"/>
	  <point x="248" y="239"/>
	  <point x="248" y="315" type="curve" smooth="yes"/>
	  <point x="248" y="372"/>
	  <point x="295" y="419"/>
	  <point x="359" y="458" type="curve"/>
	  <point x="195" y="563" type="line"/>
	  <point x="116" y="504"/>
	  <point x="60" y="435"/>
	  <point x="60" y="340" type="curve" smooth="yes"/>
	  <point x="60" y="214"/>
	  <point x="194" y="153"/>
	  <point x="194" y="71" type="curve" smooth="yes"/>
	  <point x="194" y="41"/>
	  <point x="185" y="18"/>
	  <point x="157" y="-3" type="curve"/>
	  <point x="233" y="-39"/>
	  <point x="263" y="-72"/>
	  <point x="279" y="-104" type="curve"/>
	  <point x="257" y="-113"/>
	  <point x="243" y="-117"/>
	  <point x="218" y="-117" type="curve" smooth="yes"/>
	  <point x="181" y="-117"/>
	  <point x="153" y="-108"/>
	  <point x="114" y="-91" type="curve"/>
	</contour>
  </outline>
</glyph>
<glyph name="uni0162" format="1">
  <advance width="541"/>
  <unicode hex="0162"/>
  <outline>
	<contour>
	  <point x="127" y="-187" type="line"/>
	  <point x="164" y="-201"/>
	  <point x="211" y="-208"/>
	  <point x="241" y="-208" type="curve" smooth="yes"/>
	  <point x="291" y="-208"/>
	  <point x="387" y="-187"/>
	  <point x="387" y="-108" type="curve" smooth="yes"/>
	  <point x="387" y="-38"/>
	  <point x="307" y="9"/>
	  <point x="245" y="44" type="curve"/>
	  <point x="211" y="-14" type="line"/>
	  <point x="273" y="-36"/>
	  <point x="310" y="-71"/>
	  <point x="326" y="-104" type="curve"/>
	  <point x="304" y="-113"/>
	  <point x="290" y="-117"/>
	  <point x="265" y="-117" type="curve" smooth="yes"/>
	  <point x="228" y="-117"/>
	  <point x="200" y="-108"/>
	  <point x="161" y="-91" type="curve"/>
	</contour>
	<component base="T"/>
  </outline>
</glyph>
<glyph name="uni0163" format="1">
  <advance width="431"/>
  <unicode hex="0163"/>
  <outline>
	<contour>
	  <point x="67" y="-187" type="line"/>
	  <point x="104" y="-201"/>
	  <point x="151" y="-208"/>
	  <point x="181" y="-208" type="curve" smooth="yes"/>
	  <point x="231" y="-208"/>
	  <point x="327" y="-187"/>
	  <point x="327" y="-108" type="curve" smooth="yes"/>
	  <point x="327" y="-38"/>
	  <point x="247" y="9"/>
	  <point x="185" y="44" type="curve"/>
	  <point x="151" y="-15" type="line"/>
	  <point x="213" y="-37"/>
	  <point x="250" y="-71"/>
	  <point x="266" y="-104" type="curve"/>
	  <point x="244" y="-113"/>
	  <point x="230" y="-117"/>
	  <point x="205" y="-117" type="curve" smooth="yes"/>
	  <point x="168" y="-117"/>
	  <point x="140" y="-108"/>
	  <point x="101" y="-91" type="curve"/>
	</contour>
	<component base="t"/>
  </outline>
</glyph>
<glyph name="florin" format="1">
  <advance width="431"/>
  <unicode hex="0192"/>
  <outline>
	<contour>
	  <point x="392" y="316" type="line"/>
	  <point x="402" y="369" type="line"/>
	  <point x="228" y="369" type="line"/>
	  <point x="248" y="429"/>
	  <point x="277" y="476"/>
	  <point x="391" y="494" type="curve"/>
	  <point x="324" y="665" type="line"/>
	  <point x="228" y="654"/>
	  <point x="101" y="575"/>
	  <point x="101" y="392" type="curve" smooth="yes"/>
	  <point x="101" y="369" type="line"/>
	  <point x="30" y="369" type="line"/>
	  <point x="20" y="289" type="line"/>
	  <point x="106" y="295" type="line"/>
	  <point x="117" y="187"/>
	  <point x="142" y="81"/>
	  <point x="142" y="-26" type="curve" smooth="yes"/>
	  <point x="142" y="-81"/>
	  <point x="122" y="-114"/>
	  <point x="71" y="-114" type="curve" smooth="yes"/>
	  <point x="54" y="-114"/>
	  <point x="24" y="-107"/>
	  <point x="4" y="-93" type="curve"/>
	  <point x="-26" y="-144" type="line"/>
	  <point x="14" y="-176"/>
	  <point x="55" y="-189"/>
	  <point x="94" y="-189" type="curve" smooth="yes"/>
	  <point x="172" y="-189"/>
	  <point x="234" y="-156"/>
	  <point x="246" y="-59" type="curve" smooth="yes"/>
	  <point x="291" y="309" type="line"/>
	</contour>
  </outline>
</glyph>
<glyph name="Oslashacute" format="1">
  <advance width="589"/>
  <unicode hex="01FE"/>
  <outline>
	<contour>
	  <point x="466" y="700" type="line"/>
	  <point x="400" y="715" type="line"/>
	  <point x="176" y="-111" type="line"/>
	  <point x="242" y="-126" type="line"/>
	</contour>
	<component base="O"/>
	<component base="acute.case" xOffset="45"/>
  </outline>
</glyph>
<glyph name="oslashacute" format="1">
  <advance width="538"/>
  <unicode hex="01FF"/>
  <outline>
	<contour>
	  <point x="399" y="549" type="line"/>
	  <point x="333" y="564" type="line"/>
	  <point x="131" y="-181" type="line"/>
	  <point x="197" y="-196" type="line"/>
	</contour>
	<component base="o"/>
	<component base="acute" xOffset="20"/>
  </outline>
</glyph>
<glyph name="circumflex" format="1">
  <advance width="463"/>
  <unicode hex="02C6"/>
  <outline>
	<contour>
	  <point x="80" y="614" type="line"/>
	  <point x="114" y="566" type="line"/>
	  <point x="232" y="631" type="line"/>
	  <point x="308" y="569" type="line"/>
	  <point x="383" y="659" type="line"/>
	  <point x="196" y="751" type="line"/>
	</contour>
  </outline>
</glyph>
<glyph name="caron" format="1">
  <advance width="463"/>
  <unicode hex="02C7"/>
  <outline>
	<contour>
	  <point x="383" y="648" type="line"/>
	  <point x="308" y="738" type="line"/>
	  <point x="232" y="676" type="line"/>
	  <point x="114" y="741" type="line"/>
	  <point x="80" y="693" type="line"/>
	  <point x="196" y="556" type="line"/>
	</contour>
  </outline>
</glyph>
<glyph name="uni02C9" format="1">
  <advance width="382"/>
  <unicode hex="02C9"/>
  <outline>
	<contour>
	  <point x="318" y="611" type="line"/>
	  <point x="325" y="703" type="line"/>
	  <point x="64" y="703" type="line"/>
	  <point x="57" y="584" type="line"/>
	</contour>
  </outline>
</glyph>
<glyph name="breve" format="1">
  <advance width="479"/>
  <unicode hex="02D8"/>
  <outline>
	<contour>
	  <point x="325" y="738" type="line"/>
	  <point x="309" y="699"/>
	  <point x="290" y="657"/>
	  <point x="246" y="657" type="curve" smooth="yes"/>
	  <point x="206" y="657"/>
	  <point x="188" y="688"/>
	  <point x="163" y="732" type="curve"/>
	  <point x="110" y="699" type="line"/>
	  <point x="137" y="634"/>
	  <point x="171" y="556"/>
	  <point x="244" y="556" type="curve" smooth="yes"/>
	  <point x="302" y="556"/>
	  <point x="355" y="592"/>
	  <point x="409" y="683" type="curve"/>
	</contour>
  </outline>
</glyph>
<glyph name="dotaccent" format="1">
  <advance width="307"/>
  <unicode hex="02D9"/>
  <outline>
	<contour>
	  <point x="244" y="677"/>
	  <point x="241" y="641"/>
	  <point x="232" y="605" type="curve"/>
	  <point x="203" y="594"/>
	  <point x="160" y="588"/>
	  <point x="121" y="588" type="curve" smooth="yes"/>
	  <point x="102" y="588"/>
	  <point x="83" y="589"/>
	  <point x="67" y="593" type="curve"/>
	  <point x="67" y="635"/>
	  <point x="76" y="684"/>
	  <point x="95" y="721" type="curve"/>
	  <point x="144" y="733"/>
	  <point x="194" y="733"/>
	  <point x="244" y="733" type="curve"/>
	</contour>
  </outline>
</glyph>
<glyph name="ogonek" format="1">
  <advance width="460"/>
  <unicode hex="02DB"/>
  <outline>
	<contour>
	  <point x="350" y="-91" type="line"/>
	  <point x="311" y="-108"/>
	  <point x="283" y="-117"/>
	  <point x="246" y="-117" type="curve" smooth="yes"/>
	  <point x="221" y="-117"/>
	  <point x="207" y="-113"/>
	  <point x="185" y="-104" type="curve"/>
	  <point x="201" y="-71"/>
	  <point x="232" y="-38"/>
	  <point x="294" y="-6" type="curve"/>
	  <point x="266" y="44" type="line"/>
	  <point x="204" y="9"/>
	  <point x="124" y="-38"/>
	  <point x="124" y="-108" type="curve" smooth="yes"/>
	  <point x="124" y="-187"/>
	  <point x="220" y="-208"/>
	  <point x="270" y="-208" type="curve" smooth="yes"/>
	  <point x="300" y="-208"/>
	  <point x="347" y="-201"/>
	  <point x="384" y="-187" type="curve"/>
	</contour>
  </outline>
</glyph>
<glyph name="tilde" format="1">
  <advance width="460"/>
  <unicode hex="02DC"/>
  <outline>
	<contour>
	  <point x="292" y="697"/>
	  <point x="305" y="708"/>
	  <point x="320" y="742" type="curve"/>
	  <point x="380" y="726" type="line"/>
	  <point x="369" y="641"/>
	  <point x="342" y="585"/>
	  <point x="295" y="585" type="curve" smooth="yes"/>
	  <point x="262" y="585"/>
	  <point x="225" y="611"/>
	  <point x="190" y="611" type="curve" smooth="yes"/>
	  <point x="175" y="611"/>
	  <point x="162" y="600"/>
	  <point x="147" y="566" type="curve"/>
	  <point x="87" y="582" type="line"/>
	  <point x="98" y="667"/>
	  <point x="125" y="723"/>
	  <point x="172" y="723" type="curve" smooth="yes"/>
	  <point x="205" y="723"/>
	  <point x="242" y="697"/>
	  <point x="277" y="697" type="curve" smooth="yes"/>
	</contour>
  </outline>
</glyph>
<glyph name="hungarumlaut" format="1">
  <advance width="511"/>
  <unicode hex="02DD"/>
  <outline>
	<contour>
	  <point x="75" y="609" type="line"/>
	  <point x="111" y="558" type="line"/>
	  <point x="286" y="653" type="line"/>
	  <point x="209" y="756" type="line"/>
	</contour>
	<contour>
	  <point x="295" y="609" type="line"/>
	  <point x="331" y="558" type="line"/>
	  <point x="506" y="653" type="line"/>
	  <point x="429" y="756" type="line"/>
	</contour>
  </outline>
</glyph>
<glyph name="uni03BC" format="1">
  <advance width="690"/>
  <unicode hex="03BC"/>
  <outline>
	<contour>
	  <point x="252" y="507" type="line"/>
	  <point x="65" y="492" type="line"/>
	  <point x="65" y="271"/>
	  <point x="103" y="12"/>
	  <point x="164" y="-229" type="curve"/>
	  <point x="252" y="-209" type="line"/>
	  <point x="252" y="-16" type="line"/>
	  <point x="331" y="4"/>
	  <point x="393" y="67"/>
	  <point x="436" y="190" type="curve"/>
	  <point x="457" y="-15" type="line"/>
	  <point x="556" y="-6" type="line"/>
	  <point x="620" y="513" type="line"/>
	  <point x="406" y="480" type="line"/>
	  <point x="413" y="437"/>
	  <point x="416" y="396"/>
	  <point x="416" y="357" type="curve" smooth="yes"/>
	  <point x="416" y="191"/>
	  <point x="358" y="77"/>
	  <point x="252" y="53" type="curve"/>
	</contour>
  </outline>
</glyph>
<glyph name="pi" format="1">
  <advance width="742"/>
  <unicode hex="03C0"/>
  <outline>
	<contour>
	  <point x="681" y="412" type="line"/>
	  <point x="697" y="500" type="line"/>
	  <point x="46" y="500" type="line"/>
	  <point x="30" y="368" type="line"/>
	  <point x="109" y="373" type="line"/>
	  <point x="151" y="-15" type="line"/>
	  <point x="250" y="-6" type="line"/>
	  <point x="300" y="386" type="line"/>
	  <point x="415" y="394" type="line"/>
	  <point x="447" y="86" type="line" smooth="yes"/>
	  <point x="455" y="12"/>
	  <point x="505" y="-24"/>
	  <point x="578" y="-24" type="curve" smooth="yes"/>
	  <point x="626" y="-24"/>
	  <point x="677" y="-15"/>
	  <point x="712" y="5" type="curve"/>
	  <point x="685" y="71" type="line"/>
	  <point x="666" y="63"/>
	  <point x="647" y="58"/>
	  <point x="630" y="58" type="curve" smooth="yes"/>
	  <point x="596" y="58"/>
	  <point x="572" y="76"/>
	  <point x="572" y="120" type="curve" smooth="yes"/>
	  <point x="572" y="123"/>
	  <point x="573" y="127"/>
	  <point x="573" y="131" type="curve" smooth="yes"/>
	  <point x="607" y="407" type="line"/>
	</contour>
  </outline>
</glyph>
<glyph name="endash" format="1">
  <advance width="558"/>
  <unicode hex="2013"/>
  <outline>
	<contour>
	  <point x="546" y="289" type="line"/>
	  <point x="558" y="353" type="line"/>
	  <point x="12" y="353" type="line"/>
	  <point x="0" y="257" type="line"/>
	</contour>
  </outline>
</glyph>
<glyph name="emdash" format="1">
  <advance width="858"/>
  <unicode hex="2014"/>
  <outline>
	<contour>
	  <point x="846" y="289" type="line"/>
	  <point x="858" y="353" type="line"/>
	  <point x="12" y="353" type="line"/>
	  <point x="0" y="257" type="line"/>
	</contour>
  </outline>
</glyph>
<glyph name="dagger" format="1">
  <advance width="645"/>
  <unicode hex="2020"/>
  <outline>
	<contour>
	  <point x="595" y="416" type="line"/>
	  <point x="585" y="568" type="line"/>
	  <point x="426" y="542" type="line"/>
	  <point x="443" y="739" type="line"/>
	  <point x="201" y="719" type="line"/>
	  <point x="216" y="542" type="line"/>
	  <point x="50" y="568" type="line"/>
	  <point x="60" y="416" type="line"/>
	  <point x="226" y="433" type="line"/>
	  <point x="282" y="-202" type="line"/>
	  <point x="361" y="-202" type="line"/>
	  <point x="416" y="434" type="line"/>
	</contour>
  </outline>
</glyph>
<glyph name="daggerdbl" format="1">
  <advance width="645"/>
  <unicode hex="2021"/>
  <outline>
	<contour>
	  <point x="50" y="121" type="line"/>
	  <point x="60" y="-31" type="line"/>
	  <point x="232" y="-3" type="line"/>
	  <point x="202" y="-202" type="line"/>
	  <point x="444" y="-182" type="line"/>
	  <point x="416" y="-4" type="line"/>
	  <point x="595" y="-31" type="line"/>
	  <point x="585" y="121" type="line"/>
	  <point x="400" y="101" type="line"/>
	  <point x="373" y="276" type="line"/>
	  <point x="397" y="435" type="line"/>
	  <point x="595" y="416" type="line"/>
	  <point x="585" y="568" type="line"/>
	  <point x="413" y="540" type="line"/>
	  <point x="443" y="739" type="line"/>
	  <point x="201" y="719" type="line"/>
	  <point x="228" y="541" type="line"/>
	  <point x="50" y="568" type="line"/>
	  <point x="60" y="416" type="line"/>
	  <point x="245" y="435" type="line"/>
	  <point x="272" y="261" type="line"/>
	  <point x="248" y="101" type="line"/>
	</contour>
  </outline>
</glyph>
<glyph name="ellipsis" format="1">
  <advance width="858"/>
  <unicode hex="2026"/>
  <outline>
	<contour>
	  <point x="50" y="30"/>
	  <point x="75" y="-10"/>
	  <point x="143" y="-10" type="curve" smooth="yes"/>
	  <point x="211" y="-10"/>
	  <point x="236" y="30"/>
	  <point x="236" y="78" type="curve" smooth="yes"/>
	  <point x="236" y="126"/>
	  <point x="211" y="166"/>
	  <point x="143" y="166" type="curve" smooth="yes"/>
	  <point x="75" y="166"/>
	  <point x="50" y="126"/>
	  <point x="50" y="78" type="curve" smooth="yes"/>
	</contour>
	<contour>
	  <point x="336" y="30"/>
	  <point x="361" y="-10"/>
	  <point x="429" y="-10" type="curve" smooth="yes"/>
	  <point x="497" y="-10"/>
	  <point x="522" y="30"/>
	  <point x="522" y="78" type="curve" smooth="yes"/>
	  <point x="522" y="126"/>
	  <point x="497" y="166"/>
	  <point x="429" y="166" type="curve" smooth="yes"/>
	  <point x="361" y="166"/>
	  <point x="336" y="126"/>
	  <point x="336" y="78" type="curve" smooth="yes"/>
	</contour>
	<contour>
	  <point x="622" y="30"/>
	  <point x="647" y="-10"/>
	  <point x="715" y="-10" type="curve" smooth="yes"/>
	  <point x="783" y="-10"/>
	  <point x="808" y="30"/>
	  <point x="808" y="78" type="curve" smooth="yes"/>
	  <point x="808" y="126"/>
	  <point x="783" y="166"/>
	  <point x="715" y="166" type="curve" smooth="yes"/>
	  <point x="647" y="166"/>
	  <point x="622" y="126"/>
	  <point x="622" y="78" type="curve" smooth="yes"/>
	</contour>
  </outline>
</glyph>
<glyph name="guilsinglleft" format="1">
  <advance width="418"/>
  <unicode hex="2039"/>
  <outline>
	<contour>
	  <point x="70" y="271" type="line"/>
	  <point x="77" y="196" type="line"/>
	  <point x="263" y="21" type="line"/>
	  <point x="348" y="66" type="line"/>
	  <point x="218" y="243" type="line"/>
	  <point x="323" y="421" type="line"/>
	  <point x="232" y="466" type="line"/>
	</contour>
  </outline>
</glyph>
<glyph name="guilsinglright" format="1">
  <advance width="418"/>
  <unicode hex="203A"/>
  <outline>
	<contour>
	  <point x="348" y="216" type="line"/>
	  <point x="341" y="291" type="line"/>
	  <point x="155" y="466" type="line"/>
	  <point x="70" y="421" type="line"/>
	  <point x="200" y="244" type="line"/>
	  <point x="95" y="66" type="line"/>
	  <point x="186" y="21" type="line"/>
	</contour>
  </outline>
</glyph>
<glyph name="fraction" format="1">
  <advance width="496"/>
  <unicode hex="2044"/>
  <outline>
	<contour>
	  <point x="90" y="-68" type="line"/>
	  <point x="140" y="-81" type="line"/>
	  <point x="406" y="718" type="line"/>
	  <point x="314" y="739" type="line"/>
	</contour>
  </outline>
</glyph>
<glyph name="zeroinferior" format="1">
  <advance width="436"/>
  <unicode hex="2080"/>
  <outline>
	<contour>
	  <point x="332" y="-167"/>
	  <point x="366" y="-102"/>
	  <point x="366" y="-8" type="curve" smooth="yes"/>
	  <point x="366" y="42"/>
	  <point x="358" y="99"/>
	  <point x="331" y="164" type="curve"/>
	  <point x="300" y="187"/>
	  <point x="258" y="204"/>
	  <point x="214" y="204" type="curve" smooth="yes"/>
	  <point x="191" y="204"/>
	  <point x="166" y="200"/>
	  <point x="134" y="190" type="curve"/>
	  <point x="104" y="158"/>
	  <point x="70" y="91"/>
	  <point x="70" y="-2" type="curve" smooth="yes"/>
	  <point x="70" y="-53"/>
	  <point x="78" y="-111"/>
	  <point x="103" y="-174" type="curve"/>
	  <point x="135" y="-197"/>
	  <point x="177" y="-214"/>
	  <point x="221" y="-214" type="curve" smooth="yes"/>
	  <point x="245" y="-214"/>
	  <point x="269" y="-210"/>
	  <point x="304" y="-197" type="curve"/>
	</contour>
	<contour>
	  <point x="152" y="-22"/>
	  <point x="185" y="80"/>
	  <point x="244" y="148" type="curve"/>
	  <point x="257" y="148"/>
	  <point x="267" y="147"/>
	  <point x="279" y="145" type="curve"/>
	  <point x="282" y="130"/>
	  <point x="283" y="114"/>
	  <point x="283" y="98" type="curve" smooth="yes"/>
	  <point x="283" y="11"/>
	  <point x="252" y="-91"/>
	  <point x="193" y="-158" type="curve"/>
	  <point x="180" y="-158"/>
	  <point x="168" y="-157"/>
	  <point x="156" y="-154" type="curve"/>
	  <point x="153" y="-139"/>
	  <point x="152" y="-125"/>
	  <point x="152" y="-108" type="curve" smooth="yes"/>
	</contour>
  </outline>
</glyph>
<glyph name="oneinferior" format="1">
  <advance width="344"/>
  <unicode hex="2081"/>
  <outline>
	<contour>
	  <point x="234" y="205" type="line"/>
	  <point x="23" y="98" type="line"/>
	  <point x="60" y="23" type="line"/>
	  <point x="78" y="37"/>
	  <point x="109" y="58"/>
	  <point x="128" y="72" type="curve"/>
	  <point x="145" y="-209" type="line"/>
	  <point x="222" y="-202" type="line"/>
	  <point x="264" y="193" type="line"/>
	</contour>
  </outline>
</glyph>
<glyph name="twoinferior" format="1">
  <advance width="407"/>
  <unicode hex="2082"/>
  <outline>
	<contour>
	  <point x="94" y="90" type="line"/>
	  <point x="123" y="108"/>
	  <point x="157" y="133"/>
	  <point x="186" y="152" type="curve"/>
	  <point x="203" y="142"/>
	  <point x="209" y="122"/>
	  <point x="209" y="97" type="curve" smooth="yes"/>
	  <point x="209" y="15"/>
	  <point x="145" y="-110"/>
	  <point x="55" y="-152" type="curve"/>
	  <point x="59" y="-200" type="line"/>
	  <point x="342" y="-200" type="line"/>
	  <point x="342" y="-120" type="line"/>
	  <point x="286" y="-124"/>
	  <point x="233" y="-131"/>
	  <point x="177" y="-137" type="curve"/>
	  <point x="177" y="-130" type="line"/>
	  <point x="269" y="-66"/>
	  <point x="339" y="35"/>
	  <point x="339" y="126" type="curve" smooth="yes"/>
	  <point x="339" y="142"/>
	  <point x="337" y="157"/>
	  <point x="331" y="172" type="curve"/>
	  <point x="294" y="195"/>
	  <point x="249" y="204"/>
	  <point x="205" y="204" type="curve" smooth="yes"/>
	  <point x="136" y="204"/>
	  <point x="98" y="187"/>
	  <point x="58" y="164" type="curve"/>
	</contour>
  </outline>
</glyph>
<glyph name="threeinferior" format="1">
  <advance width="404"/>
  <unicode hex="2083"/>
  <outline>
	<contour>
	  <point x="163" y="-53" type="line"/>
	  <point x="188" y="-37"/>
	  <point x="213" y="-27"/>
	  <point x="232" y="-22" type="curve"/>
	  <point x="237" y="-36"/>
	  <point x="240" y="-69"/>
	  <point x="240" y="-95" type="curve" smooth="yes"/>
	  <point x="240" y="-124"/>
	  <point x="235" y="-143"/>
	  <point x="231" y="-158" type="curve"/>
	  <point x="186" y="-155"/>
	  <point x="135" y="-143"/>
	  <point x="86" y="-111" type="curve"/>
	  <point x="51" y="-173" type="line"/>
	  <point x="104" y="-203"/>
	  <point x="159" y="-214"/>
	  <point x="204" y="-214" type="curve" smooth="yes"/>
	  <point x="308" y="-214"/>
	  <point x="352" y="-174"/>
	  <point x="352" y="-98" type="curve" smooth="yes"/>
	  <point x="352" y="-35"/>
	  <point x="332" y="-2"/>
	  <point x="301" y="28" type="curve"/>
	  <point x="292" y="31"/>
	  <point x="285" y="33"/>
	  <point x="275" y="33" type="curve"/>
	  <point x="307" y="67"/>
	  <point x="325" y="103"/>
	  <point x="325" y="139" type="curve" smooth="yes"/>
	  <point x="325" y="149"/>
	  <point x="324" y="159"/>
	  <point x="319" y="172" type="curve"/>
	  <point x="282" y="195"/>
	  <point x="238" y="204"/>
	  <point x="194" y="204" type="curve" smooth="yes"/>
	  <point x="124" y="204"/>
	  <point x="92" y="187"/>
	  <point x="52" y="164" type="curve"/>
	  <point x="89" y="90" type="line"/>
	  <point x="115" y="108"/>
	  <point x="148" y="133"/>
	  <point x="175" y="152" type="curve"/>
	  <point x="196" y="140"/>
	  <point x="204" y="119"/>
	  <point x="204" y="94" type="curve" smooth="yes"/>
	  <point x="204" y="65"/>
	  <point x="188" y="24"/>
	  <point x="154" y="-13" type="curve" smooth="yes"/>
	  <point x="143" y="-25" type="line"/>
	</contour>
  </outline>
</glyph>
<glyph name="fourinferior" format="1">
  <advance width="406"/>
  <unicode hex="2084"/>
  <outline>
	<contour>
	  <point x="197" y="213" type="line"/>
	  <point x="134" y="182"/>
	  <point x="69" y="89"/>
	  <point x="69" y="-22" type="curve" smooth="yes"/>
	  <point x="69" y="-47"/>
	  <point x="72" y="-73"/>
	  <point x="81" y="-109" type="curve"/>
	  <point x="107" y="-130"/>
	  <point x="164" y="-146"/>
	  <point x="249" y="-146" type="curve"/>
	  <point x="254" y="-210" type="line"/>
	  <point x="331" y="-202" type="line"/>
	  <point x="355" y="19" type="line"/>
	  <point x="239" y="12" type="line"/>
	  <point x="244" y="-78" type="line"/>
	  <point x="227" y="-80"/>
	  <point x="207" y="-81"/>
	  <point x="192" y="-81" type="curve" smooth="yes"/>
	  <point x="175" y="-81"/>
	  <point x="157" y="-81"/>
	  <point x="141" y="-79" type="curve"/>
	  <point x="143" y="1"/>
	  <point x="224" y="89"/>
	  <point x="316" y="134" type="curve"/>
	</contour>
  </outline>
</glyph>
<glyph name="fiveinferior" format="1">
  <advance width="404"/>
  <unicode hex="2085"/>
  <outline>
	<contour>
	  <point x="69" y="189" type="line"/>
	  <point x="57" y="172" type="line"/>
	  <point x="95" y="-44" type="line"/>
	  <point x="148" y="-51" type="line"/>
	  <point x="172" y="-36"/>
	  <point x="197" y="-25"/>
	  <point x="231" y="-21" type="curve"/>
	  <point x="236" y="-35"/>
	  <point x="238" y="-69"/>
	  <point x="238" y="-95" type="curve" smooth="yes"/>
	  <point x="238" y="-124"/>
	  <point x="235" y="-143"/>
	  <point x="231" y="-158" type="curve"/>
	  <point x="186" y="-155"/>
	  <point x="135" y="-143"/>
	  <point x="86" y="-111" type="curve"/>
	  <point x="51" y="-173" type="line"/>
	  <point x="104" y="-203"/>
	  <point x="159" y="-214"/>
	  <point x="204" y="-214" type="curve" smooth="yes"/>
	  <point x="308" y="-214"/>
	  <point x="352" y="-174"/>
	  <point x="352" y="-98" type="curve" smooth="yes"/>
	  <point x="352" y="-35"/>
	  <point x="332" y="-2"/>
	  <point x="301" y="28" type="curve"/>
	  <point x="289" y="32"/>
	  <point x="277" y="33"/>
	  <point x="264" y="33" type="curve" smooth="yes"/>
	  <point x="230" y="33"/>
	  <point x="195" y="24"/>
	  <point x="165" y="6" type="curve"/>
	  <point x="193" y="128" type="line"/>
	  <point x="314" y="117" type="line"/>
	  <point x="327" y="199" type="line"/>
	</contour>
  </outline>
</glyph>
<glyph name="sixinferior" format="1">
  <advance width="404"/>
  <unicode hex="2086"/>
  <outline>
	<contour>
	  <point x="197" y="225" type="line"/>
	  <point x="144" y="183"/>
	  <point x="62" y="69"/>
	  <point x="62" y="-72" type="curve" smooth="yes"/>
	  <point x="62" y="-102"/>
	  <point x="65" y="-135"/>
	  <point x="73" y="-173" type="curve"/>
	  <point x="100" y="-197"/>
	  <point x="152" y="-214"/>
	  <point x="210" y="-214" type="curve" smooth="yes"/>
	  <point x="315" y="-214"/>
	  <point x="346" y="-174"/>
	  <point x="346" y="-98" type="curve" smooth="yes"/>
	  <point x="346" y="-35"/>
	  <point x="326" y="-2"/>
	  <point x="295" y="28" type="curve"/>
	  <point x="283" y="32"/>
	  <point x="269" y="34"/>
	  <point x="257" y="34" type="curve" smooth="yes"/>
	  <point x="229" y="34"/>
	  <point x="200" y="19"/>
	  <point x="177" y="-5" type="curve"/>
	  <point x="172" y="-2" type="line"/>
	  <point x="204" y="54"/>
	  <point x="244" y="109"/>
	  <point x="304" y="154" type="curve"/>
	</contour>
	<contour>
	  <point x="231" y="-37"/>
	  <point x="232" y="-69"/>
	  <point x="232" y="-95" type="curve" smooth="yes"/>
	  <point x="232" y="-124"/>
	  <point x="228" y="-144"/>
	  <point x="224" y="-159" type="curve"/>
	  <point x="215" y="-161"/>
	  <point x="206" y="-162"/>
	  <point x="198" y="-162" type="curve" smooth="yes"/>
	  <point x="185" y="-162"/>
	  <point x="171" y="-159"/>
	  <point x="154" y="-152" type="curve"/>
	  <point x="171" y="-65"/>
	  <point x="203" y="-34"/>
	  <point x="226" y="-23" type="curve"/>
	</contour>
  </outline>
</glyph>
<glyph name="seveninferior" format="1">
  <advance width="366"/>
  <unicode hex="2087"/>
  <outline>
	<contour>
	  <point x="33" y="199" type="line"/>
	  <point x="46" y="117" type="line"/>
	  <point x="154" y="125" type="line"/>
	  <point x="132" y="-209" type="line"/>
	  <point x="208" y="-202" type="line"/>
	  <point x="309" y="171" type="line"/>
	  <point x="297" y="189" type="line"/>
	</contour>
  </outline>
</glyph>
<glyph name="eightinferior" format="1">
  <advance width="430"/>
  <unicode hex="2088"/>
  <outline>
	<contour>
	  <point x="61" y="-122"/>
	  <point x="69" y="-156"/>
	  <point x="97" y="-192" type="curve"/>
	  <point x="130" y="-205"/>
	  <point x="171" y="-214"/>
	  <point x="216" y="-214" type="curve" smooth="yes"/>
	  <point x="285" y="-214"/>
	  <point x="366" y="-196"/>
	  <point x="366" y="-97" type="curve" smooth="yes"/>
	  <point x="366" y="-68"/>
	  <point x="358" y="-35"/>
	  <point x="329" y="1" type="curve"/>
	  <point x="316" y="6" type="line"/>
	  <point x="338" y="25"/>
	  <point x="359" y="55"/>
	  <point x="359" y="93" type="curve" smooth="yes"/>
	  <point x="359" y="118"/>
	  <point x="351" y="150"/>
	  <point x="323" y="184" type="curve"/>
	  <point x="293" y="196"/>
	  <point x="254" y="204"/>
	  <point x="210" y="204" type="curve" smooth="yes"/>
	  <point x="146" y="204"/>
	  <point x="68" y="187"/>
	  <point x="68" y="95" type="curve" smooth="yes"/>
	  <point x="68" y="68"/>
	  <point x="77" y="36"/>
	  <point x="101" y="6" type="curve"/>
	  <point x="116" y="-1" type="line"/>
	  <point x="91" y="-19"/>
	  <point x="61" y="-57"/>
	  <point x="61" y="-94" type="curve" smooth="yes"/>
	</contour>
	<contour>
	  <point x="255" y="-116"/>
	  <point x="244" y="-144"/>
	  <point x="218" y="-165" type="curve"/>
	  <point x="208" y="-164"/>
	  <point x="189" y="-160"/>
	  <point x="176" y="-151" type="curve"/>
	  <point x="171" y="-138"/>
	  <point x="168" y="-121"/>
	  <point x="168" y="-107" type="curve" smooth="yes"/>
	  <point x="168" y="-74"/>
	  <point x="180" y="-40"/>
	  <point x="206" y="-18" type="curve"/>
	  <point x="215" y="-18"/>
	  <point x="223" y="-18"/>
	  <point x="233" y="-20" type="curve"/>
	  <point x="246" y="-38"/>
	  <point x="255" y="-66"/>
	  <point x="255" y="-87" type="curve" smooth="yes"/>
	</contour>
	<contour>
	  <point x="169" y="110"/>
	  <point x="182" y="135"/>
	  <point x="206" y="153" type="curve"/>
	  <point x="217" y="152"/>
	  <point x="240" y="148"/>
	  <point x="254" y="142" type="curve"/>
	  <point x="258" y="131"/>
	  <point x="261" y="115"/>
	  <point x="261" y="102" type="curve" smooth="yes"/>
	  <point x="261" y="75"/>
	  <point x="249" y="44"/>
	  <point x="222" y="25" type="curve"/>
	  <point x="211" y="25"/>
	  <point x="199" y="26"/>
	  <point x="191" y="28" type="curve"/>
	  <point x="176" y="44"/>
	  <point x="169" y="66"/>
	  <point x="169" y="86" type="curve" smooth="yes"/>
	</contour>
  </outline>
</glyph>
<glyph name="nineinferior" format="1">
  <advance width="404"/>
  <unicode hex="2089"/>
  <outline>
	<contour>
	  <point x="228" y="-21" type="line"/>
	  <point x="192" y="-81"/>
	  <point x="145" y="-129"/>
	  <point x="97" y="-166" type="curve"/>
	  <point x="204" y="-237" type="line"/>
	  <point x="266" y="-197"/>
	  <point x="346" y="-80"/>
	  <point x="346" y="61" type="curve" smooth="yes"/>
	  <point x="346" y="92"/>
	  <point x="343" y="125"/>
	  <point x="335" y="163" type="curve"/>
	  <point x="307" y="186"/>
	  <point x="255" y="204"/>
	  <point x="199" y="204" type="curve" smooth="yes"/>
	  <point x="92" y="204"/>
	  <point x="62" y="164"/>
	  <point x="62" y="87" type="curve" smooth="yes"/>
	  <point x="62" y="25"/>
	  <point x="84" y="-9"/>
	  <point x="114" y="-39" type="curve"/>
	  <point x="127" y="-42"/>
	  <point x="139" y="-43"/>
	  <point x="150" y="-43" type="curve" smooth="yes"/>
	  <point x="178" y="-43"/>
	  <point x="201" y="-35"/>
	  <point x="224" y="-18" type="curve"/>
	</contour>
	<contour>
	  <point x="255" y="29"/>
	  <point x="203" y="15"/>
	  <point x="183" y="10" type="curve"/>
	  <point x="178" y="25"/>
	  <point x="177" y="58"/>
	  <point x="177" y="84" type="curve" smooth="yes"/>
	  <point x="177" y="115"/>
	  <point x="180" y="133"/>
	  <point x="185" y="148" type="curve"/>
	  <point x="193" y="150"/>
	  <point x="202" y="152"/>
	  <point x="210" y="152" type="curve" smooth="yes"/>
	  <point x="224" y="152"/>
	  <point x="238" y="148"/>
	  <point x="253" y="141" type="curve"/>
	  <point x="254" y="131"/>
	  <point x="255" y="121"/>
	  <point x="255" y="114" type="curve" smooth="yes"/>
	</contour>
  </outline>
</glyph>
<glyph name="franc" format="1">
  <advance width="574"/>
  <unicode hex="20A3"/>
  <outline>
	<contour>
	  <point x="432" y="116" type="line"/>
	  <point x="442" y="169" type="line"/>
	  <point x="271" y="169" type="line"/>
	  <point x="283" y="270" type="line"/>
	  <point x="439" y="294" type="line"/>
	  <point x="439" y="387" type="line"/>
	  <point x="297" y="387" type="line"/>
	  <point x="320" y="572" type="line"/>
	  <point x="531" y="597" type="line"/>
	  <point x="534" y="664" type="line"/>
	  <point x="93" y="650" type="line"/>
	  <point x="127" y="169" type="line"/>
	  <point x="70" y="169" type="line"/>
	  <point x="60" y="89" type="line"/>
	  <point x="132" y="94" type="line"/>
	  <point x="140" y="-9" type="line"/>
	  <point x="250" y="-4" type="line"/>
	  <point x="263" y="104" type="line"/>
	</contour>
  </outline>
</glyph>
<glyph name="lira" format="1">
  <advance width="632"/>
  <unicode hex="20A4"/>
  <outline>
	<contour>
	  <point x="559" y="0" type="line"/>
	  <point x="553" y="113" type="line"/>
	  <point x="208" y="60" type="line"/>
	  <point x="248" y="94"/>
	  <point x="273" y="136"/>
	  <point x="289" y="186" type="curve"/>
	  <point x="432" y="196" type="line"/>
	  <point x="442" y="249" type="line"/>
	  <point x="303" y="249" type="line"/>
	  <point x="308" y="276"/>
	  <point x="311" y="306"/>
	  <point x="312" y="336" type="curve"/>
	  <point x="452" y="346" type="line"/>
	  <point x="462" y="399" type="line"/>
	  <point x="314" y="399" type="line"/>
	  <point x="315" y="420"/>
	  <point x="315" y="441"/>
	  <point x="315" y="463" type="curve" smooth="yes"/>
	  <point x="315" y="545"/>
	  <point x="328" y="575"/>
	  <point x="368" y="600" type="curve"/>
	  <point x="520" y="497" type="line"/>
	  <point x="572" y="605" type="line"/>
	  <point x="510" y="640"/>
	  <point x="451" y="665"/>
	  <point x="335" y="665" type="curve" smooth="yes"/>
	  <point x="260" y="665"/>
	  <point x="186" y="652"/>
	  <point x="130" y="617" type="curve"/>
	  <point x="121" y="591"/>
	  <point x="117" y="564"/>
	  <point x="117" y="537" type="curve" smooth="yes"/>
	  <point x="117" y="487"/>
	  <point x="126" y="441"/>
	  <point x="137" y="399" type="curve"/>
	  <point x="90" y="399" type="line"/>
	  <point x="80" y="319" type="line"/>
	  <point x="158" y="324" type="line"/>
	  <point x="166" y="298"/>
	  <point x="173" y="273"/>
	  <point x="177" y="249" type="curve"/>
	  <point x="70" y="249" type="line"/>
	  <point x="60" y="169" type="line"/>
	  <point x="180" y="178" type="line"/>
	  <point x="175" y="134"/>
	  <point x="156" y="82"/>
	  <point x="113" y="46" type="curve"/>
	  <point x="110" y="0" type="line"/>
	</contour>
  </outline>
</glyph>
<glyph name="Euro" format="1">
  <advance width="502"/>
  <unicode hex="20AC"/>
  <outline>
	<contour>
	  <point x="372" y="196" type="line"/>
	  <point x="382" y="249" type="line"/>
	  <point x="201" y="249" type="line"/>
	  <point x="211" y="278"/>
	  <point x="224" y="307"/>
	  <point x="240" y="335" type="curve"/>
	  <point x="392" y="346" type="line"/>
	  <point x="402" y="399" type="line"/>
	  <point x="283" y="399" type="line"/>
	  <point x="336" y="467"/>
	  <point x="408" y="529"/>
	  <point x="501" y="578" type="curve"/>
	  <point x="308" y="700" type="line"/>
	  <point x="237" y="653"/>
	  <point x="147" y="543"/>
	  <point x="100" y="399" type="curve"/>
	  <point x="30" y="399" type="line"/>
	  <point x="20" y="319" type="line"/>
	  <point x="81" y="323" type="line"/>
	  <point x="76" y="299"/>
	  <point x="73" y="274"/>
	  <point x="71" y="249" type="curve"/>
	  <point x="10" y="249" type="line"/>
	  <point x="0" y="169" type="line"/>
	  <point x="71" y="174" type="line"/>
	  <point x="77" y="25"/>
	  <point x="130" y="-24"/>
	  <point x="330" y="-24" type="curve" smooth="yes"/>
	  <point x="385" y="-24"/>
	  <point x="444" y="-17"/>
	  <point x="502" y="1" type="curve"/>
	  <point x="468" y="109" type="line"/>
	  <point x="399" y="83"/>
	  <point x="332" y="73"/>
	  <point x="267" y="73" type="curve" smooth="yes"/>
	  <point x="234" y="73"/>
	  <point x="202" y="75"/>
	  <point x="171" y="80" type="curve"/>
	  <point x="171" y="113"/>
	  <point x="174" y="148"/>
	  <point x="181" y="182" type="curve"/>
	</contour>
  </outline>
</glyph>
<glyph name="uni2113" format="1">
  <advance width="354"/>
  <unicode hex="2113"/>
  <outline>
	<contour>
	  <point x="346" y="71" type="line"/>
	  <point x="327" y="63"/>
	  <point x="308" y="58"/>
	  <point x="291" y="58" type="curve" smooth="yes"/>
	  <point x="257" y="58"/>
	  <point x="233" y="76"/>
	  <point x="233" y="120" type="curve" smooth="yes"/>
	  <point x="233" y="123"/>
	  <point x="234" y="127"/>
	  <point x="234" y="131" type="curve" smooth="yes"/>
	  <point x="284" y="716" type="line"/>
	  <point x="70" y="683" type="line"/>
	  <point x="111" y="120" type="line" smooth="yes"/>
	  <point x="119" y="12"/>
	  <point x="183" y="-24"/>
	  <point x="270" y="-24" type="curve" smooth="yes"/>
	  <point x="304" y="-24"/>
	  <point x="338" y="-15"/>
	  <point x="373" y="5" type="curve"/>
	</contour>
  </outline>
</glyph>
<glyph name="trademark" format="1">
  <advance width="923"/>
  <unicode hex="2122"/>
  <outline>
	<contour>
	  <point x="37" y="663" type="line"/>
	  <point x="41" y="596" type="line"/>
	  <point x="67" y="598"/>
	  <point x="97" y="602"/>
	  <point x="124" y="604" type="curve"/>
	  <point x="154" y="262" type="line"/>
	  <point x="225" y="268" type="line"/>
	  <point x="262" y="617" type="line"/>
	  <point x="345" y="626" type="line"/>
	  <point x="347" y="671" type="line"/>
	</contour>
	<contour>
	  <point x="786" y="261" type="line"/>
	  <point x="845" y="271" type="line"/>
	  <point x="827" y="662" type="line"/>
	  <point x="678" y="671" type="line"/>
	  <point x="611" y="397" type="line"/>
	  <point x="553" y="668" type="line"/>
	  <point x="404" y="662" type="line"/>
	  <point x="376" y="267" type="line"/>
	  <point x="441" y="270" type="line"/>
	  <point x="451" y="548" type="line"/>
	  <point x="578" y="261" type="line"/>
	  <point x="636" y="270" type="line"/>
	  <point x="701" y="575" type="line"/>
	</contour>
  </outline>
</glyph>
<glyph name="Omega" format="1">
  <advance width="788"/>
  <unicode hex="2126"/>
  <outline>
	<contour>
	  <point x="70" y="340"/>
	  <point x="152" y="193"/>
	  <point x="263" y="101" type="curve"/>
	  <point x="74" y="74" type="line"/>
	  <point x="71" y="0" type="line"/>
	  <point x="298" y="0" type="line"/>
	  <point x="347" y="113" type="line"/>
	  <point x="284" y="179"/>
	  <point x="252" y="308"/>
	  <point x="252" y="394" type="curve" smooth="yes"/>
	  <point x="252" y="484"/>
	  <point x="289" y="583"/>
	  <point x="394" y="583" type="curve" smooth="yes"/>
	  <point x="498" y="583"/>
	  <point x="536" y="484"/>
	  <point x="536" y="394" type="curve" smooth="yes"/>
	  <point x="536" y="308"/>
	  <point x="504" y="179"/>
	  <point x="441" y="113" type="curve"/>
	  <point x="490" y="0" type="line"/>
	  <point x="717" y="0" type="line"/>
	  <point x="714" y="74" type="line"/>
	  <point x="524" y="101" type="line"/>
	  <point x="635" y="193"/>
	  <point x="718" y="340"/>
	  <point x="718" y="454" type="curve" smooth="yes"/>
	  <point x="718" y="630"/>
	  <point x="589" y="658"/>
	  <point x="393" y="658" type="curve" smooth="yes"/>
	  <point x="198" y="658"/>
	  <point x="70" y="629"/>
	  <point x="70" y="454" type="curve" smooth="yes"/>
	</contour>
  </outline>
</glyph>
<glyph name="partialdiff" format="1">
  <advance width="585"/>
  <unicode hex="2202"/>
  <outline>
	<contour>
	  <point x="300" y="51"/>
	  <point x="272" y="45"/>
	  <point x="246" y="45" type="curve" smooth="yes"/>
	  <point x="235" y="45"/>
	  <point x="215" y="47"/>
	  <point x="195" y="55" type="curve"/>
	  <point x="195" y="79"/>
	  <point x="204" y="226"/>
	  <point x="257" y="304" type="curve"/>
	  <point x="290" y="291"/>
	  <point x="337" y="256"/>
	  <point x="337" y="120" type="curve" smooth="yes"/>
	  <point x="337" y="104"/>
	  <point x="336" y="86"/>
	  <point x="335" y="66" type="curve"/>
	</contour>
	<contour>
	  <point x="169" y="602" type="line"/>
	  <point x="323" y="510"/>
	  <point x="383" y="358"/>
	  <point x="387" y="235" type="curve"/>
	  <point x="373" y="228" type="line"/>
	  <point x="356" y="326"/>
	  <point x="302" y="377"/>
	  <point x="227" y="377" type="curve" smooth="yes"/>
	  <point x="208" y="377"/>
	  <point x="187" y="374"/>
	  <point x="165" y="367" type="curve"/>
	  <point x="99" y="323"/>
	  <point x="24" y="236"/>
	  <point x="24" y="95" type="curve" smooth="yes"/>
	  <point x="24" y="16"/>
	  <point x="73" y="-24"/>
	  <point x="209" y="-24" type="curve" smooth="yes"/>
	  <point x="303" y="-24"/>
	  <point x="394" y="4"/>
	  <point x="449" y="41" type="curve"/>
	  <point x="502" y="161"/>
	  <point x="526" y="270"/>
	  <point x="526" y="366" type="curve" smooth="yes"/>
	  <point x="526" y="529"/>
	  <point x="449" y="647"/>
	  <point x="314" y="720" type="curve"/>
	</contour>
  </outline>
</glyph>
<glyph name="Delta" format="1">
  <advance width="659"/>
  <unicode hex="2206"/>
  <outline>
	<contour>
	  <point x="50" y="0" type="line"/>
	  <point x="609" y="0" type="line"/>
	  <point x="399" y="650" type="line"/>
	  <point x="257" y="665" type="line"/>
	</contour>
	<contour>
	  <point x="289" y="584" type="line"/>
	  <point x="497" y="54" type="line"/>
	  <point x="151" y="77" type="line"/>
	</contour>
  </outline>
</glyph>
<glyph name="product" format="1">
  <advance width="779"/>
  <unicode hex="220F"/>
  <outline>
	<contour>
	  <point x="511" y="-165" type="line"/>
	  <point x="610" y="-156" type="line"/>
	  <point x="670" y="565" type="line"/>
	  <point x="744" y="569" type="line"/>
	  <point x="759" y="651" type="line"/>
	  <point x="35" y="651" type="line"/>
	  <point x="20" y="527" type="line"/>
	  <point x="103" y="532" type="line"/>
	  <point x="151" y="-165" type="line"/>
	  <point x="250" y="-156" type="line"/>
	  <point x="308" y="544" type="line"/>
	  <point x="462" y="553" type="line"/>
	</contour>
  </outline>
</glyph>
<glyph name="summation" format="1">
  <advance width="639"/>
  <unicode hex="2211"/>
  <outline>
	<contour>
	  <point x="65" y="-87" type="line"/>
	  <point x="50" y="-169" type="line"/>
	  <point x="614" y="-154" type="line"/>
	  <point x="599" y="-30" type="line"/>
	  <point x="279" y="-69" type="line"/>
	  <point x="464" y="278" type="line"/>
	  <point x="192" y="538" type="line"/>
	  <point x="614" y="583" type="line"/>
	  <point x="629" y="665" type="line"/>
	  <point x="95" y="650" type="line"/>
	  <point x="80" y="526" type="line"/>
	  <point x="285" y="176" type="line"/>
	</contour>
  </outline>
</glyph>
<glyph name="minus" format="1">
  <advance width="612"/>
  <unicode hex="2212"/>
  <outline>
	<contour>
	  <point x="512" y="286" type="line"/>
	  <point x="522" y="369" type="line"/>
	  <point x="100" y="369" type="line"/>
	  <point x="90" y="259" type="line"/>
	</contour>
  </outline>
</glyph>
<glyph name="radical" format="1">
  <advance width="599"/>
  <unicode hex="221A"/>
  <outline>
	<contour>
	  <point x="214" y="265" type="line"/>
	  <point x="35" y="238" type="line"/>
	  <point x="232" y="-165" type="line"/>
	  <point x="322" y="-150" type="line"/>
	  <point x="597" y="686" type="line"/>
	  <point x="772" y="704" type="line"/>
	  <point x="782" y="757" type="line"/>
	  <point x="520" y="757" type="line"/>
	  <point x="288" y="-21" type="line"/>
	</contour>
  </outline>
</glyph>
<glyph name="infinity" format="1">
  <advance width="715"/>
  <unicode hex="221E"/>
  <outline>
	<contour>
	  <point x="466" y="215"/>
	  <point x="416" y="233"/>
	  <point x="390" y="260" type="curve"/>
	  <point x="412" y="347"/>
	  <point x="462" y="402"/>
	  <point x="514" y="402" type="curve" smooth="yes"/>
	  <point x="574" y="402"/>
	  <point x="596" y="358"/>
	  <point x="596" y="290" type="curve"/>
	  <point x="576" y="237"/>
	  <point x="536" y="215"/>
	  <point x="495" y="215" type="curve" smooth="yes"/>
	</contour>
	<contour>
	  <point x="330" y="473"/>
	  <point x="276" y="500"/>
	  <point x="220" y="500" type="curve" smooth="yes"/>
	  <point x="180" y="500"/>
	  <point x="132" y="490"/>
	  <point x="81" y="455" type="curve"/>
	  <point x="63" y="413"/>
	  <point x="50" y="361"/>
	  <point x="50" y="304" type="curve" smooth="yes"/>
	  <point x="50" y="216"/>
	  <point x="65" y="113"/>
	  <point x="205" y="113" type="curve" smooth="yes"/>
	  <point x="247" y="113"/>
	  <point x="303" y="123"/>
	  <point x="354" y="186" type="curve"/>
	  <point x="385" y="140"/>
	  <point x="439" y="113"/>
	  <point x="495" y="113" type="curve" smooth="yes"/>
	  <point x="535" y="113"/>
	  <point x="583" y="123"/>
	  <point x="634" y="158" type="curve"/>
	  <point x="652" y="200"/>
	  <point x="665" y="252"/>
	  <point x="665" y="309" type="curve" smooth="yes"/>
	  <point x="665" y="397"/>
	  <point x="650" y="500"/>
	  <point x="510" y="500" type="curve" smooth="yes"/>
	  <point x="468" y="500"/>
	  <point x="412" y="490"/>
	  <point x="361" y="427" type="curve"/>
	</contour>
	<contour>
	  <point x="249" y="398"/>
	  <point x="299" y="380"/>
	  <point x="325" y="353" type="curve"/>
	  <point x="303" y="266"/>
	  <point x="253" y="211"/>
	  <point x="201" y="211" type="curve" smooth="yes"/>
	  <point x="141" y="211"/>
	  <point x="119" y="257"/>
	  <point x="119" y="323" type="curve"/>
	  <point x="139" y="376"/>
	  <point x="179" y="398"/>
	  <point x="220" y="398" type="curve" smooth="yes"/>
	</contour>
  </outline>
</glyph>
<glyph name="integral" format="1">
  <advance width="431"/>
  <unicode hex="222B"/>
  <outline>
	<contour>
	  <point x="196" y="665"/>
	  <point x="96" y="619"/>
	  <point x="96" y="444" type="curve" smooth="yes"/>
	  <point x="96" y="428"/>
	  <point x="97" y="410"/>
	  <point x="140" y="-26" type="curve"/>
	  <point x="140" y="-81"/>
	  <point x="120" y="-114"/>
	  <point x="69" y="-114" type="curve" smooth="yes"/>
	  <point x="52" y="-114"/>
	  <point x="22" y="-107"/>
	  <point x="2" y="-93" type="curve"/>
	  <point x="-28" y="-144" type="line"/>
	  <point x="12" y="-176"/>
	  <point x="53" y="-189"/>
	  <point x="92" y="-189" type="curve" smooth="yes"/>
	  <point x="170" y="-189"/>
	  <point x="233" y="-157"/>
	  <point x="244" y="-59" type="curve" smooth="yes"/>
	  <point x="305" y="501" type="line" smooth="yes"/>
	  <point x="311" y="556"/>
	  <point x="325" y="589"/>
	  <point x="376" y="589" type="curve" smooth="yes"/>
	  <point x="393" y="589"/>
	  <point x="423" y="582"/>
	  <point x="443" y="568" type="curve"/>
	  <point x="473" y="619" type="line"/>
	  <point x="433" y="651"/>
	  <point x="365" y="665"/>
	  <point x="306" y="665" type="curve" smooth="yes"/>
	</contour>
  </outline>
</glyph>
<glyph name="approxequal" format="1">
  <advance width="612"/>
  <unicode hex="2248"/>
  <outline>
	<contour>
	  <point x="522" y="464" type="line"/>
	  <point x="491" y="486"/>
	  <point x="453" y="498"/>
	  <point x="414" y="498" type="curve" smooth="yes"/>
	  <point x="329" y="498"/>
	  <point x="272" y="441"/>
	  <point x="188" y="441" type="curve" smooth="yes"/>
	  <point x="155" y="441"/>
	  <point x="123" y="450"/>
	  <point x="97" y="472" type="curve"/>
	  <point x="90" y="359" type="line"/>
	  <point x="115" y="336"/>
	  <point x="148" y="327"/>
	  <point x="180" y="327" type="curve" smooth="yes"/>
	  <point x="278" y="327"/>
	  <point x="331" y="415"/>
	  <point x="428" y="415" type="curve" smooth="yes"/>
	  <point x="458" y="415"/>
	  <point x="487" y="407"/>
	  <point x="512" y="392" type="curve"/>
	</contour>
	<contour>
	  <point x="90" y="164" type="line"/>
	  <point x="117" y="136"/>
	  <point x="153" y="124"/>
	  <point x="190" y="124" type="curve" smooth="yes"/>
	  <point x="278" y="124"/>
	  <point x="332" y="188"/>
	  <point x="418" y="188" type="curve" smooth="yes"/>
	  <point x="452" y="188"/>
	  <point x="485" y="177"/>
	  <point x="512" y="156" type="curve"/>
	  <point x="522" y="269" type="line"/>
	  <point x="493" y="290"/>
	  <point x="459" y="300"/>
	  <point x="424" y="300" type="curve" smooth="yes"/>
	  <point x="328" y="300"/>
	  <point x="274" y="209"/>
	  <point x="177" y="209" type="curve" smooth="yes"/>
	  <point x="149" y="209"/>
	  <point x="121" y="217"/>
	  <point x="97" y="235" type="curve"/>
	</contour>
  </outline>
</glyph>
<glyph name="lozenge" format="1">
  <advance width="619"/>
  <unicode hex="25CA"/>
  <outline>
	<contour>
	  <point x="70" y="300" type="line"/>
	  <point x="230" y="-65" type="line"/>
	  <point x="382" y="-65" type="line"/>
	  <point x="549" y="300" type="line"/>
	  <point x="389" y="665" type="line"/>
	  <point x="237" y="665" type="line"/>
	</contour>
	<contour>
	  <point x="271" y="609" type="line"/>
	  <point x="462" y="301" type="line"/>
	  <point x="347" y="-9" type="line"/>
	  <point x="157" y="299" type="line"/>
	</contour>
  </outline>
</glyph>
<glyph name="commaaccent" format="1">
  <advance width="300"/>
  <unicode hex="F6C3"/>
  <outline>
	<contour>
	  <point x="150" y="-201" type="line"/>
	  <point x="145" y="-223"/>
	  <point x="135" y="-251"/>
	  <point x="99" y="-280" type="curve"/>
	  <point x="153" y="-331" type="line"/>
	  <point x="208" y="-282"/>
	  <point x="228" y="-223"/>
	  <point x="228" y="-149" type="curve" smooth="yes"/>
	  <point x="228" y="-124"/>
	  <point x="226" y="-100"/>
	  <point x="222" y="-78" type="curve"/>
	  <point x="207" y="-62"/>
	  <point x="178" y="-51"/>
	  <point x="145" y="-51" type="curve" smooth="yes"/>
	  <point x="86" y="-51"/>
	  <point x="70" y="-78"/>
	  <point x="70" y="-130" type="curve" smooth="yes"/>
	  <point x="70" y="-178"/>
	  <point x="88" y="-209"/>
	  <point x="117" y="-209" type="curve" smooth="yes"/>
	  <point x="130" y="-209"/>
	  <point x="139" y="-205"/>
	  <point x="146" y="-199" type="curve"/>
	</contour>
  </outline>
</glyph>
<glyph name="f_f" format="1">
  <advance width="786"/>
  <unicode hex="FB00"/>
  <outline>
	<contour>
	  <point x="684" y="750" type="line"/>
	  <point x="586" y="739"/>
	  <point x="479" y="659"/>
	  <point x="465" y="471" type="curve"/>
	  <point x="233" y="465" type="line"/>
	  <point x="257" y="516"/>
	  <point x="299" y="556"/>
	  <point x="366" y="579" type="curve"/>
	  <point x="329" y="750" type="line"/>
	  <point x="230" y="738"/>
	  <point x="120" y="656"/>
	  <point x="110" y="461" type="curve"/>
	  <point x="20" y="459" type="line"/>
	  <point x="26" y="356" type="line"/>
	  <point x="112" y="362" type="line"/>
	  <point x="151" y="-15" type="line"/>
	  <point x="250" y="-6" type="line"/>
	  <point x="297" y="377" type="line"/>
	  <point x="464" y="390" type="line"/>
	  <point x="506" y="-15" type="line"/>
	  <point x="605" y="-6" type="line"/>
	  <point x="655" y="404" type="line"/>
	  <point x="753" y="412" type="line"/>
	  <point x="756" y="479" type="line"/>
	  <point x="593" y="474" type="line"/>
	  <point x="617" y="521"/>
	  <point x="658" y="557"/>
	  <point x="721" y="579" type="curve"/>
	</contour>
  </outline>
</glyph>
<glyph name="fi" format="1">
  <advance width="755"/>
  <unicode hex="FB01"/>
  <outline>
	<contour>
	  <point x="522" y="-15" type="line"/>
	  <point x="621" y="-6" type="line"/>
	  <point x="685" y="513" type="line"/>
	  <point x="239" y="477" type="line"/>
	  <point x="264" y="522"/>
	  <point x="304" y="557"/>
	  <point x="366" y="579" type="curve"/>
	  <point x="329" y="750" type="line"/>
	  <point x="231" y="738"/>
	  <point x="122" y="658"/>
	  <point x="110" y="466" type="curve"/>
	  <point x="20" y="459" type="line"/>
	  <point x="26" y="356" type="line"/>
	  <point x="111" y="368" type="line"/>
	  <point x="151" y="-15" type="line"/>
	  <point x="250" y="-6" type="line"/>
	  <point x="299" y="394" type="line"/>
	  <point x="477" y="419" type="line"/>
	</contour>
	<contour>
	  <point x="475" y="606"/>
	  <point x="517" y="564"/>
	  <point x="568" y="564" type="curve" smooth="yes"/>
	  <point x="619" y="564"/>
	  <point x="661" y="606"/>
	  <point x="661" y="657" type="curve" smooth="yes"/>
	  <point x="661" y="708"/>
	  <point x="619" y="750"/>
	  <point x="568" y="750" type="curve" smooth="yes"/>
	  <point x="517" y="750"/>
	  <point x="475" y="708"/>
	  <point x="475" y="657" type="curve" smooth="yes"/>
	</contour>
  </outline>
</glyph>
<glyph name="fl" format="1">
  <advance width="745"/>
  <unicode hex="FB02"/>
  <outline>
	<contour>
	  <point x="512" y="-15" type="line"/>
	  <point x="611" y="-6" type="line"/>
	  <point x="675" y="716" type="line"/>
	  <point x="540" y="695" type="line"/>
	  <point x="466" y="733"/>
	  <point x="402" y="750"/>
	  <point x="348" y="750" type="curve" smooth="yes"/>
	  <point x="194" y="750"/>
	  <point x="119" y="615"/>
	  <point x="110" y="463" type="curve"/>
	  <point x="20" y="459" type="line"/>
	  <point x="26" y="356" type="line"/>
	  <point x="111" y="369" type="line"/>
	  <point x="151" y="-15" type="line"/>
	  <point x="250" y="-6" type="line"/>
	  <point x="299" y="397" type="line"/>
	  <point x="398" y="412" type="line"/>
	  <point x="401" y="479" type="line"/>
	  <point x="234" y="470" type="line"/>
	  <point x="274" y="545"/>
	  <point x="340" y="586"/>
	  <point x="417" y="586" type="curve" smooth="yes"/>
	  <point x="434" y="586"/>
	  <point x="451" y="584"/>
	  <point x="468" y="580" type="curve"/>
	</contour>
  </outline>
</glyph>
<glyph name="f_f_i" format="1">
  <advance width="1216"/>
  <unicode hex="FB03"/>
  <outline>
	<contour>
	  <point x="877" y="-15" type="line"/>
	  <point x="976" y="-6" type="line"/>
	  <point x="1040" y="513" type="line"/>
	  <point x="601" y="489" type="line"/>
	  <point x="626" y="528"/>
	  <point x="665" y="560"/>
	  <point x="721" y="579" type="curve"/>
	  <point x="684" y="750" type="line"/>
	  <point x="588" y="739"/>
	  <point x="483" y="662"/>
	  <point x="466" y="482" type="curve"/>
	  <point x="236" y="470" type="line"/>
	  <point x="260" y="519"/>
	  <point x="301" y="556"/>
	  <point x="366" y="579" type="curve"/>
	  <point x="329" y="750" type="line"/>
	  <point x="230" y="738"/>
	  <point x="121" y="657"/>
	  <point x="110" y="464" type="curve"/>
	  <point x="20" y="459" type="line"/>
	  <point x="26" y="356" type="line"/>
	  <point x="112" y="364" type="line"/>
	  <point x="151" y="-15" type="line"/>
	  <point x="250" y="-6" type="line"/>
	  <point x="297" y="381" type="line"/>
	  <point x="463" y="396" type="line"/>
	  <point x="506" y="-15" type="line"/>
	  <point x="605" y="-6" type="line"/>
	  <point x="656" y="413" type="line"/>
	  <point x="831" y="429" type="line"/>
	</contour>
	<contour>
	  <point x="830" y="606"/>
	  <point x="872" y="564"/>
	  <point x="923" y="564" type="curve" smooth="yes"/>
	  <point x="974" y="564"/>
	  <point x="1016" y="606"/>
	  <point x="1016" y="657" type="curve" smooth="yes"/>
	  <point x="1016" y="708"/>
	  <point x="974" y="750"/>
	  <point x="923" y="750" type="curve" smooth="yes"/>
	  <point x="872" y="750"/>
	  <point x="830" y="708"/>
	  <point x="830" y="657" type="curve" smooth="yes"/>
	</contour>
  </outline>
</glyph>
<glyph name="f_f_l" format="1">
  <advance width="1101"/>
  <unicode hex="FB04"/>
  <outline>
	<contour>
	  <point x="868" y="-15" type="line"/>
	  <point x="967" y="-6" type="line"/>
	  <point x="1031" y="716" type="line"/>
	  <point x="896" y="695" type="line"/>
	  <point x="822" y="733"/>
	  <point x="758" y="750"/>
	  <point x="704" y="750" type="curve" smooth="yes"/>
	  <point x="552" y="750"/>
	  <point x="477" y="619"/>
	  <point x="466" y="471" type="curve"/>
	  <point x="233" y="465" type="line"/>
	  <point x="257" y="516"/>
	  <point x="299" y="556"/>
	  <point x="366" y="579" type="curve"/>
	  <point x="329" y="750" type="line"/>
	  <point x="230" y="738"/>
	  <point x="120" y="656"/>
	  <point x="110" y="461" type="curve"/>
	  <point x="20" y="459" type="line"/>
	  <point x="26" y="356" type="line"/>
	  <point x="112" y="362" type="line"/>
	  <point x="151" y="-15" type="line"/>
	  <point x="250" y="-6" type="line"/>
	  <point x="297" y="377" type="line"/>
	  <point x="465" y="390" type="line"/>
	  <point x="507" y="-15" type="line"/>
	  <point x="606" y="-6" type="line"/>
	  <point x="656" y="404" type="line"/>
	  <point x="753" y="412" type="line"/>
	  <point x="756" y="479" type="line"/>
	  <point x="593" y="474" type="line"/>
	  <point x="632" y="547"/>
	  <point x="698" y="586"/>
	  <point x="773" y="586" type="curve" smooth="yes"/>
	  <point x="790" y="586"/>
	  <point x="807" y="584"/>
	  <point x="824" y="580" type="curve"/>
	</contour>
  </outline>
</glyph>
<glyph name="acute.case" format="1">
  <advance width="438"/>
  <outline>
	<contour>
	  <point x="140" y="781" type="line"/>
	  <point x="174" y="713" type="line"/>
	  <point x="378" y="778" type="line"/>
	  <point x="318" y="903" type="line"/>
	</contour>
  </outline>
</glyph>
<glyph name="barra" format="1">
  <advance width="382"/>
  <outline>
	<contour>
	  <point x="372" y="316" type="line"/>
	  <point x="382" y="369" type="line"/>
	  <point x="10" y="369" type="line"/>
	  <point x="0" y="289" type="line"/>
	</contour>
  </outline>
</glyph>
<glyph name="breve.case" format="1">
  <advance width="479"/>
  <outline>
	<contour>
	  <point x="325" y="888" type="line"/>
	  <point x="309" y="849"/>
	  <point x="290" y="807"/>
	  <point x="246" y="807" type="curve" smooth="yes"/>
	  <point x="206" y="807"/>
	  <point x="188" y="838"/>
	  <point x="163" y="882" type="curve"/>
	  <point x="110" y="849" type="line"/>
	  <point x="137" y="784"/>
	  <point x="171" y="706"/>
	  <point x="244" y="706" type="curve" smooth="yes"/>
	  <point x="302" y="706"/>
	  <point x="355" y="742"/>
	  <point x="409" y="833" type="curve"/>
	</contour>
  </outline>
</glyph>
<glyph name="caron.case" format="1">
  <advance width="463"/>
  <outline>
	<contour>
	  <point x="383" y="798" type="line"/>
	  <point x="308" y="888" type="line"/>
	  <point x="232" y="826" type="line"/>
	  <point x="114" y="891" type="line"/>
	  <point x="80" y="843" type="line"/>
	  <point x="196" y="706" type="line"/>
	</contour>
  </outline>
</glyph>
<glyph name="circumflex.case" format="1">
  <advance width="463"/>
  <outline>
	<contour>
	  <point x="80" y="764" type="line"/>
	  <point x="114" y="716" type="line"/>
	  <point x="232" y="781" type="line"/>
	  <point x="308" y="719" type="line"/>
	  <point x="383" y="809" type="line"/>
	  <point x="196" y="901" type="line"/>
	</contour>
  </outline>
</glyph>
<glyph name="dieresis.case" format="1">
  <advance width="438"/>
  <outline>
	<contour>
	  <point x="38" y="761"/>
	  <point x="73" y="723"/>
	  <point x="114" y="723" type="curve" smooth="yes"/>
	  <point x="155" y="723"/>
	  <point x="190" y="761"/>
	  <point x="190" y="807" type="curve" smooth="yes"/>
	  <point x="190" y="853"/>
	  <point x="155" y="891"/>
	  <point x="114" y="891" type="curve" smooth="yes"/>
	  <point x="73" y="891"/>
	  <point x="38" y="853"/>
	  <point x="38" y="807" type="curve" smooth="yes"/>
	</contour>
	<contour>
	  <point x="248" y="761"/>
	  <point x="283" y="723"/>
	  <point x="324" y="723" type="curve" smooth="yes"/>
	  <point x="365" y="723"/>
	  <point x="400" y="761"/>
	  <point x="400" y="807" type="curve" smooth="yes"/>
	  <point x="400" y="853"/>
	  <point x="365" y="891"/>
	  <point x="324" y="891" type="curve" smooth="yes"/>
	  <point x="283" y="891"/>
	  <point x="248" y="853"/>
	  <point x="248" y="807" type="curve" smooth="yes"/>
	</contour>
  </outline>
</glyph>
<glyph name="dotaccent.case" format="1">
  <advance width="307"/>
  <outline>
	<contour>
	  <point x="244" y="827"/>
	  <point x="241" y="791"/>
	  <point x="232" y="755" type="curve"/>
	  <point x="203" y="744"/>
	  <point x="160" y="738"/>
	  <point x="121" y="738" type="curve" smooth="yes"/>
	  <point x="102" y="738"/>
	  <point x="83" y="739"/>
	  <point x="67" y="743" type="curve"/>
	  <point x="67" y="785"/>
	  <point x="76" y="834"/>
	  <point x="95" y="871" type="curve"/>
	  <point x="144" y="883"/>
	  <point x="194" y="883"/>
	  <point x="244" y="883" type="curve"/>
	</contour>
  </outline>
</glyph>
<glyph name="eslash" format="1">
  <advance width="346"/>
  <outline>
	<contour>
	  <point x="356" y="474" type="line"/>
	  <point x="331" y="525" type="line"/>
	  <point x="-20" y="356" type="line"/>
	  <point x="17" y="281" type="line"/>
	</contour>
  </outline>
</glyph>
<glyph name="f_j" format="1">
  <advance width="755"/>
  <outline>
	<contour>
	  <point x="685" y="512" type="line"/>
	  <point x="239" y="477" type="line"/>
	  <point x="264" y="522"/>
	  <point x="304" y="557"/>
	  <point x="366" y="579" type="curve"/>
	  <point x="329" y="750" type="line"/>
	  <point x="231" y="738"/>
	  <point x="122" y="658"/>
	  <point x="110" y="466" type="curve"/>
	  <point x="20" y="459" type="line"/>
	  <point x="26" y="356" type="line"/>
	  <point x="111" y="368" type="line"/>
	  <point x="151" y="-15" type="line"/>
	  <point x="250" y="-6" type="line"/>
	  <point x="299" y="394" type="line"/>
	  <point x="477" y="420" type="line"/>
	  <point x="516" y="48"/>
	  <point x="517" y="38"/>
	  <point x="517" y="28" type="curve" smooth="yes"/>
	  <point x="517" y="-27"/>
	  <point x="497" y="-60"/>
	  <point x="446" y="-60" type="curve" smooth="yes"/>
	  <point x="429" y="-60"/>
	  <point x="399" y="-53"/>
	  <point x="379" y="-39" type="curve"/>
	  <point x="349" y="-90" type="line"/>
	  <point x="389" y="-122"/>
	  <point x="430" y="-135"/>
	  <point x="469" y="-135" type="curve" smooth="yes"/>
	  <point x="547" y="-135"/>
	  <point x="609" y="-102"/>
	  <point x="621" y="-5" type="curve" smooth="yes"/>
	</contour>
	<contour>
	  <point x="475" y="606"/>
	  <point x="517" y="564"/>
	  <point x="568" y="564" type="curve" smooth="yes"/>
	  <point x="619" y="564"/>
	  <point x="661" y="606"/>
	  <point x="661" y="657" type="curve" smooth="yes"/>
	  <point x="661" y="708"/>
	  <point x="619" y="750"/>
	  <point x="568" y="750" type="curve" smooth="yes"/>
	  <point x="517" y="750"/>
	  <point x="475" y="708"/>
	  <point x="475" y="657" type="curve" smooth="yes"/>
	</contour>
  </outline>
</glyph>
<glyph name="grave.case" format="1">
  <advance width="438"/>
  <outline>
	<contour>
	  <point x="170" y="903" type="line"/>
	  <point x="110" y="778" type="line"/>
	  <point x="314" y="713" type="line"/>
	  <point x="348" y="781" type="line"/>
	</contour>
  </outline>
</glyph>
<glyph name="hungarumlaut.case" format="1">
  <advance width="511"/>
  <outline>
	<contour>
	  <point x="75" y="759" type="line"/>
	  <point x="111" y="708" type="line"/>
	  <point x="286" y="803" type="line"/>
	  <point x="209" y="906" type="line"/>
	</contour>
	<contour>
	  <point x="295" y="759" type="line"/>
	  <point x="331" y="708" type="line"/>
	  <point x="506" y="803" type="line"/>
	  <point x="429" y="906" type="line"/>
	</contour>
  </outline>
</glyph>
<glyph name="j.alt" format="1">
  <advance width="354"/>
  <outline>
	<contour>
	  <point x="220" y="-5" type="line" smooth="yes"/>
	  <point x="208" y="-102"/>
	  <point x="146" y="-135"/>
	  <point x="68" y="-135" type="curve" smooth="yes"/>
	  <point x="29" y="-135"/>
	  <point x="-12" y="-122"/>
	  <point x="-52" y="-90" type="curve"/>
	  <point x="-22" y="-39" type="line"/>
	  <point x="-2" y="-53"/>
	  <point x="28" y="-60"/>
	  <point x="45" y="-60" type="curve" smooth="yes"/>
	  <point x="96" y="-60"/>
	  <point x="116" y="-27"/>
	  <point x="116" y="28" type="curve" smooth="yes"/>
	  <point x="116" y="37"/>
	  <point x="115" y="48"/>
	  <point x="70" y="480" type="curve"/>
	  <point x="284" y="512" type="line"/>
	</contour>
  </outline>
</glyph>
<glyph name="macron.case" format="1">
  <advance width="382"/>
  <outline>
	<contour>
	  <point x="338" y="761" type="line"/>
	  <point x="345" y="853" type="line"/>
	  <point x="84" y="853" type="line"/>
	  <point x="77" y="734" type="line"/>
	</contour>
  </outline>
</glyph>
<glyph name="ring.case" format="1">
  <advance width="307"/>
  <outline>
	<contour>
	  <point x="273" y="837"/>
	  <point x="268" y="867"/>
	  <point x="247" y="897" type="curve"/>
	  <point x="216" y="909"/>
	  <point x="179" y="915"/>
	  <point x="153" y="915" type="curve" smooth="yes"/>
	  <point x="75" y="915"/>
	  <point x="34" y="864"/>
	  <point x="34" y="801" type="curve" smooth="yes"/>
	  <point x="34" y="765"/>
	  <point x="39" y="735"/>
	  <point x="60" y="705" type="curve"/>
	  <point x="91" y="693"/>
	  <point x="128" y="687"/>
	  <point x="154" y="687" type="curve" smooth="yes"/>
	  <point x="232" y="687"/>
	  <point x="273" y="738"/>
	  <point x="273" y="801" type="curve" smooth="yes"/>
	</contour>
	<contour>
	  <point x="197" y="784"/>
	  <point x="189" y="752"/>
	  <point x="153" y="735" type="curve"/>
	  <point x="142" y="735"/>
	  <point x="122" y="738"/>
	  <point x="116" y="742" type="curve"/>
	  <point x="112" y="754"/>
	  <point x="109" y="769"/>
	  <point x="109" y="787" type="curve" smooth="yes"/>
	  <point x="109" y="818"/>
	  <point x="117" y="850"/>
	  <point x="153" y="867" type="curve"/>
	  <point x="164" y="867"/>
	  <point x="184" y="864"/>
	  <point x="190" y="859" type="curve"/>
	  <point x="194" y="848"/>
	  <point x="197" y="832"/>
	  <point x="197" y="814" type="curve" smooth="yes"/>
	</contour>
  </outline>
</glyph>
<glyph name="ringacute" format="1">
  <advance width="307"/>
  <outline>
	<contour>
	  <point x="273" y="674"/>
	  <point x="271" y="694"/>
	  <point x="264" y="714" type="curve"/>
	  <point x="356" y="777" type="line"/>
	  <point x="285" y="853" type="line"/>
	  <point x="218" y="757" type="line"/>
	  <point x="198" y="765"/>
	  <point x="165" y="765"/>
	  <point x="153" y="765" type="curve" smooth="yes"/>
	  <point x="75" y="765"/>
	  <point x="34" y="714"/>
	  <point x="34" y="651" type="curve" smooth="yes"/>
	  <point x="34" y="615"/>
	  <point x="39" y="585"/>
	  <point x="60" y="555" type="curve"/>
	  <point x="91" y="543"/>
	  <point x="128" y="537"/>
	  <point x="154" y="537" type="curve" smooth="yes"/>
	  <point x="232" y="537"/>
	  <point x="273" y="588"/>
	  <point x="273" y="651" type="curve" smooth="yes"/>
	</contour>
	<contour>
	  <point x="197" y="634"/>
	  <point x="189" y="602"/>
	  <point x="153" y="585" type="curve"/>
	  <point x="142" y="585"/>
	  <point x="122" y="588"/>
	  <point x="116" y="592" type="curve"/>
	  <point x="112" y="604"/>
	  <point x="109" y="619"/>
	  <point x="109" y="637" type="curve" smooth="yes"/>
	  <point x="109" y="668"/>
	  <point x="117" y="700"/>
	  <point x="153" y="717" type="curve"/>
	  <point x="164" y="717"/>
	  <point x="184" y="714"/>
	  <point x="190" y="709" type="curve"/>
	  <point x="194" y="698"/>
	  <point x="197" y="682"/>
	  <point x="197" y="664" type="curve" smooth="yes"/>
	</contour>
  </outline>
</glyph>
<glyph name="s.alt" format="1">
  <advance width="419"/>
  <outline>
	<contour>
	  <point x="60" y="184"/>
	  <point x="194" y="123"/>
	  <point x="194" y="41" type="curve" smooth="yes"/>
	  <point x="194" y="11"/>
	  <point x="177" y="-17"/>
	  <point x="115" y="-49" type="curve"/>
	  <point x="159" y="-108" type="line"/>
	  <point x="268" y="-67"/>
	  <point x="339" y="-7"/>
	  <point x="339" y="85" type="curve" smooth="yes"/>
	  <point x="339" y="156"/>
	  <point x="248" y="209"/>
	  <point x="248" y="285" type="curve" smooth="yes"/>
	  <point x="248" y="342"/>
	  <point x="295" y="389"/>
	  <point x="359" y="428" type="curve"/>
	  <point x="195" y="533" type="line"/>
	  <point x="116" y="474"/>
	  <point x="60" y="405"/>
	  <point x="60" y="310" type="curve" smooth="yes"/>
	</contour>
  </outline>
</glyph>
<glyph name="tilde.case" format="1">
  <advance width="460"/>
  <outline>
	<contour>
	  <point x="292" y="847"/>
	  <point x="305" y="858"/>
	  <point x="320" y="892" type="curve"/>
	  <point x="380" y="876" type="line"/>
	  <point x="369" y="791"/>
	  <point x="342" y="735"/>
	  <point x="295" y="735" type="curve" smooth="yes"/>
	  <point x="262" y="735"/>
	  <point x="225" y="761"/>
	  <point x="190" y="761" type="curve" smooth="yes"/>
	  <point x="175" y="761"/>
	  <point x="162" y="750"/>
	  <point x="147" y="716" type="curve"/>
	  <point x="87" y="732" type="line"/>
	  <point x="98" y="817"/>
	  <point x="125" y="873"/>
	  <point x="172" y="873" type="curve" smooth="yes"/>
	  <point x="205" y="873"/>
	  <point x="242" y="847"/>
	  <point x="277" y="847" type="curve" smooth="yes"/>
	</contour>
  </outline>
</glyph>
